<ttFont>
          <CharString index="0">
            rmoveto
            207 113 165 192 40 hvcurveto
            75 -73 callsubr
            -145 -30 -79 -149 -169 hhcurveto
            -123 -42 81 103 35 5 37 8 38 hvcurveto
            76 -73 callsubr
            -9 -42 -5 -41 -39 vvcurveto
            -130 57 -105 166 vhcurveto
            return
          </CharString>
          <CharString index="1">
            rmoveto
            166 145 155 166 120 -74 99 -122 -164 -147 -155 -167 -119 73 -99 123 hvcurveto
            13 60 rmoveto
            -83 -56 72 94 135 117 119 111 83 56 -74 -94 -135 -116 -117 -112 hvcurveto
            return
          </CharString>
          <CharString index="2">
            rmoveto
            86 88 47 81 61 hvcurveto
            -13 -59 -1 -13 -9 vvcurveto
            hintmask 01111000
            -24 16 -15 31 -52 callgsubr
            -68 callgsubr
            8 2 8 hvcurveto
            91 425 -72 callgsubr
            -70 -328 rlineto
            hintmask 10111000
            -104 callgsubr
            return
          </CharString>
          <CharString index="3">
            226 -10 -107 callgsubr
            return
          </CharString>
          <CharString index="4">
            -22 16 -16 30 -2 vhcurveto
            7 9 2 1 11 hvcurveto
            13 60 rlineto
            -13 -6 5 11 4 1 5 1 4 hvcurveto
            92 432 -72 callgsubr
            -24 -109 rlineto
            return
          </CharString>
          <CharString index="5">
            56 262 rlineto
            196 hlineto
            102 -262 rlineto
            79 hlineto
            -107 274 rlineto
            110 22 90 115 114 vvcurveto
            94 -59 91 -100 vhcurveto
            -285 hlineto
            -151 -710 rlineto
            138 324 rmoveto
            69 324 rlineto
            212 hlineto
            62 42 -60 -71 -93 -75 -100 -91 hvcurveto
            return
          </CharString>
          <CharString index="6">
            67 -30 -50 51 -85 hhcurveto
            -157 -137 -159 -163 -114 67 -101 114 72 81 42 66 51 hvcurveto
            -22 -103 rlineto
            -112 -24 -92 -55 -95 hhcurveto
            -74 -62 31 66 -25 hvcurveto
            -48 -33 rlineto
            -72 28 56 -46 114 hhcurveto
            72 273 rmoveto
            -86 -57 77 92 114 100 137 125 70 60 -55 -75 11 hvcurveto
            -34 -161 rlineto
            -64 -25 -88 -65 -76 hhcurveto
            return
          </CharString>
          <CharString index="7">
            rmoveto
            162 127 77 152 98 -77 36 -118 28 hvcurveto
            -107 26 -53 22 64 vvcurveto
            89 60 67 139 80 61 -31 -45 27 vhcurveto
            45 56 rlineto
            52 -44 -66 30 -89 hhcurveto
            -162 -127 -90 -150 -86 65 -34 115 -29 hvcurveto
            111 -28 63 -27 -69 vvcurveto
            -94 -76 -52 -121 -103 -79 44 54 -36 vhcurveto
            -47 -57 rlineto
            -68 60 85 -35 105 hhcurveto
            return
          </CharString>
          <CharString index="8">
            rmoveto
            134 96 75 105 70 -58 26 -108 27 hvcurveto
            -72 18 -33 13 42 vvcurveto
            77 67 36 75 56 52 -20 -40 28 vhcurveto
            42 40 rlineto
            42 -30 -59 29 -75 hhcurveto
            -117 -106 -66 -116 -62 47 -21 95 -26 hvcurveto
            83 -22 44 -16 -47 vvcurveto
            -68 -63 -44 -88 -65 -52 24 48 -45 vhcurveto
            -40 -46 rlineto
            -51 42 73 -27 77 hhcurveto
            return
          </CharString>
          <CharString index="9">
            -81 -81 -77 -37 -76 hhcurveto
            -119 -77 108 130 171 142 185 171 89 65 -40 -88 24 hvcurveto
            62 36 rlineto
            91 -24 -69 64 -132 hhcurveto
            -207 -191 -210 -213 -154 93 -143 155 81 78 35 73 78 hvcurveto
            return
          </CharString>
          <CharString index="10">
            -27 -224 rmoveto
            95 5 54 46 92 147 81 129 rcurveline
            133 212 37 77 36 129 rrcurveto
            -67 hlineto
            -32 -121 -40 -82 -115 -188 -41 -67 rcurveline
            -84 458 rlineto
            -71 hlineto
            107 -529 -33 -49 -50 -77 -27 -22 -84 -13 rlinecurve
            return
          </CharString>
          <CharString index="11">
            -59 -34 -72 -38 -64 hhcurveto
            -97 -47 78 91 9 1 10 1 10 hvcurveto
            -4 50 44 -1 37 hhcurveto
            return
          </CharString>
          <CharString index="12">
            rmoveto
            76 85 66 92 20 hvcurveto
            116 544 -72 callgsubr
            -117 -548 rlineto
            -53 -11 -52 -40 -43 38 callgsubr
            -43 -19 callsubr
            42 hhcurveto
            251 811 rmoveto
            68 hlineto
            22 42 callsubr
            return
          </CharString>
          <CharString index="13">
            230 hlineto
            235 175 187 251 152 -82 120 -177 hvcurveto
            -230 hlineto
            -69 -648 rmoveto
            125 586 rlineto
            160 hlineto
            133 68 -92 -129 -192 -124 -173 -201 hvcurveto
            endchar
          </CharString>
          <CharString index="14">
            rmoveto
            97 94 54 75 43 hvcurveto
            -63 20 rlineto
            -48 -24 -74 -41 -63 hhcurveto
            -82 -56 74 95 137 111 114 116 59 46 -32 -53 16 hvcurveto
            70 21 rlineto
            76 -19 -63 48 -94 hhcurveto
            -170 -142 -151 -169 -121 75 -99 123 hvcurveto
            return
          </CharString>
          <CharString index="15">
            14 callsubr
            112 86 -34 20 -94 -63 -67 63 -43 -20 rlineto
            return
          </CharString>
          <CharString index="16">
            -7 -1 -6 -1 -8 vhcurveto
            40 hlineto
            2 7 0 7 7 vvcurveto
            44 -29 36 -47 -54 -50 -45 -56 -11 vhcurveto
            return
          </CharString>
          <CharString index="17">
            hstem
            75 70 vstem
            -101 callgsubr
            return
          </CharString>
          <CharString index="18">
            rmoveto
            -71 hlineto
            -76 -93 42 -17 rlineto
            return
          </CharString>
          <CharString index="19">
            rmoveto
            -32 22 -21 36 49 38 33 45 32 -22 21 -36 -47 -40 -32 -46 vhcurveto
            81 51 rmoveto
            18 14 -12 -19 -27 -27 -19 -22 -19 -12 14 17 27 24 19 24 hvcurveto
            return
          </CharString>
          <CharString index="20">
            535 -77 callsubr
            -447 hlineto
            574 593 12 55 rlineto
            -528 hlineto
            -13 -62 rlineto
            446 hlineto
            -580 -593 rlineto
            return
          </CharString>
          <CharString index="21">
            68 hlineto
            68 324 45 84 80 50 86 3 rlinecurve
            13 59 rlineto
            1 -6 -8 1 -10 hhcurveto
            -67 -3 -70 -48 -52 -75 rrcurveto
            return
          </CharString>
          <CharString index="22">
            -47 callgsubr
            136 641 -72 callgsubr
            -68 -318 -51 callsubr
            hvcurveto
            return
          </CharString>
          <CharString index="23">
            200 hmoveto
            69 hlineto
            56 264 356 446 rlineto
            -76 hlineto
            -300 -382 -137 382 rlineto
            -77 hlineto
            166 -444 rlineto
            return
          </CharString>
          <CharString index="24">
            rmoveto
            20 98 13 callgsubr
            -20 -98 rlineto
            return
          </CharString>
          <CharString index="25">
            13 60 rlineto
            -13 -6 5 12 3 1 return
          </CharString>
          <CharString index="26">
            rmoveto
            198 55 144 216 46 hvcurveto
            77 360 -32 callgsubr
            -77 -360 rlineto
            -190 -41 -38 -107 -137 hhcurveto
            -54 -42 17 20 -23 hvcurveto
            -31 -56 rlineto
            -29 34 45 -15 58 hhcurveto
            return
          </CharString>
          <CharString index="27">
            220 -10 -106 callsubr
            return
          </CharString>
          <CharString index="28">
            rlineto
            6 18 35 8 27 hhcurveto
            24 17 -7 -21 -30 -23 -13 -41 -33 -31 9 9 -15 hvcurveto
            return
          </CharString>
          <CharString index="29">
            -10 23 31 -9 36 hhcurveto
            74 41 32 50 32 -23 17 -38 -10 -15 -1 -5 -12 hvcurveto
            return
          </CharString>
          <CharString index="30">
            hlineto
            13 62 rlineto
            return
          </CharString>
          <CharString index="31">
            174 0 62 589 64 hstem
            63 70 515 70 vstem
            55 hmoveto
            289 62 hlineto
            -132 37 -79 139 127 vvcurveto
            142 99 144 159 158 99 -144 -142 -127 -79 -139 -131 -37 vhcurveto
            -62 289 62 -191 vlineto
            113 59 69 114 130 vvcurveto
            184 -140 166 -187 -188 -140 -166 -184 -130 69 -114 113 -59 vhcurveto
            -190 hlineto
            endchar
          </CharString>
          <CharString index="32">
            rmoveto
            133 126 75 146 31 hvcurveto
            111 523 rlineto
            -60 hlineto
            -23 -109 rlineto
            return
          </CharString>
          <CharString index="33">
            rmoveto
            65 108 32 83 60 hvcurveto
            -69 29 64 -46 88 hhcurveto
            96 96 54 76 47 hvcurveto
            -56 16 rlineto
            -56 -34 -71 -38 -65 hhcurveto
            -87 -60 67 93 12 1 11 1 11 hvcurveto
            427 hlineto
            5 12 10 26 42 vvcurveto
            120 -76 94 -122 -81 -76 -42 -62 -55 vhcurveto
            66 -15 -53 38 -79 hhcurveto
            -63 -66 -23 -45 -74 hvcurveto
            13 -45 rlineto
            40 64 58 22 50 hhcurveto
            71 40 -42 -57 hvcurveto
            -5 -32 -17 -25 -10 -34 rrcurveto
            return
          </CharString>
          <CharString index="34">
            358 rlineto
            -77 callgsubr
            return
          </CharString>
          <CharString index="35">
            -35 -10 60 -32 -21 473 60 -9 -20 return
          </CharString>
          <CharString index="36">
            60 hlineto
            74 349 rlineto
            -208 43 callsubr
            148 hlineto
            -26 -119 rlineto
            return
          </CharString>
          <CharString index="37">
            68 hlineto
            110 521 -72 callgsubr
            return
          </CharString>
          <CharString index="38">
            47 47 -26 -42 -52 -67 -35 -58 hvcurveto
            40 192 rmoveto
            -40 -41 20 34 44 53 28 54 hvcurveto
            return
          </CharString>
          <CharString index="39">
            rmoveto
            10 47 rlineto
            -275 hlineto
            -10 -47 rlineto
            return
          </CharString>
          <CharString index="40">
            -95 callgsubr
            endchar
          </CharString>
          <CharString index="41">
            -51 0 62 271 59 256 62 return
          </CharString>
          <CharString index="42">
            -100 callgsubr
            endchar
          </CharString>
          <CharString index="43">
            rmoveto
            -63 hlineto
            -73 -93 33 -17 rlineto
            224 110 rmoveto
            -62 hlineto
            -73 -93 32 -17 rlineto
            return
          </CharString>
          <CharString index="44">
            -99 -10 52 193 49 193 53 return
          </CharString>
          <CharString index="45">
            -212 rmoveto
            68 hlineto
            57 287 rlineto
            -50 6 31 -35 60 hhcurveto
            78 88 57 71 49 hvcurveto
            -9 -36 -5 -35 -7 vvcurveto
            hintmask 10110000
            -31 31 -9 40 vhcurveto
            14 60 rlineto
            -14 -6 5 12 3 1 4 1 4 hvcurveto
            92 433 -72 callgsubr
            -70 -328 rlineto
            hintmask 11010000
            -87 -48 -84 -56 -74 hhcurveto
            -58 -29 32 67 22 return
          </CharString>
          <CharString index="46">
            -53 callgsubr
            26 27 73 43 vhcurveto
            return
          </CharString>
          <CharString index="47">
            76 hlineto
            179 222 rlineto
            244 hlineto
            -47 -222 rlineto
            448 -77 callsubr
            -379 hlineto
            57 269 rlineto
            319 hlineto
            14 62 rlineto
            -319 hlineto
            53 255 rlineto
            371 hlineto
            14 62 rlineto
            -459 hlineto
            -284 -426 rmoveto
            281 342 -73 -342 rlineto
            endchar
          </CharString>
          <CharString index="48">
            68 hlineto
            55 262 rlineto
            127 65 101 86 87 hhcurveto
            39 25 -18 -40 -68 -70 -66 -133 -28 hvcurveto
            124 -255 rlineto
            74 hlineto
            -117 226 rlineto
            119 40 66 74 86 vvcurveto
            64 -36 41 -74 -94 -84 -66 -93 -68 vhcurveto
            76 358 -72 callgsubr
            endchar
          </CharString>
          <CharString index="49">
            rmoveto
            -92 callgsubr
            return
          </CharString>
          <CharString index="50">
            hhcurveto
            70 52 -44 -68 13 hvcurveto
            52 40 rlineto
            82 -20 -65 50 -88 hhcurveto
            -209 -142 -238 -265 -137 72 -85 118 hvcurveto
            13 60 rmoveto
            -81 -57 67 85 114 108 102 108 82 56 -67 -85 -115 -108 -101 -108 hvcurveto
            endchar
          </CharString>
          <CharString index="51">
            -36 -34 -10 -19 -26 hvcurveto
            59 130 rlineto
            179 hlineto
            10 44 rlineto
            -213 hlineto
            -12 -32 -67 -147 -20 -49 rrcurveto
            41 hlineto
            28 26 42 19 39 hhcurveto
            44 43 -26 -48 -63 -61 -44 -67 -50 -37 23 35 -16 hvcurveto
            -35 -26 rlineto
            -44 16 48 -30 62 hhcurveto
            return
          </CharString>
          <CharString index="52">
            -29 callgsubr
            129 100 -23 callsubr
            24 109 rmoveto
            68 hlineto
            21 42 callsubr
            return
          </CharString>
          <CharString index="53">
            4 callgsubr
            -7 callsubr
            -7 callgsubr
            vstem
            return
          </CharString>
          <CharString index="54">
            170 144 187 175 46 38 -16 -27 31 vhcurveto
            -394 -465 rlineto
            -27 41 -13 53 57 vvcurveto
            193 -236 rmoveto
            -46 -38 15 25 -30 hvcurveto
            393 465 rlineto
            25 -41 14 -52 -55 vvcurveto
            -168 -143 -189 -175 vhcurveto
            return
          </CharString>
          <CharString index="55">
            21 -21 10 callgsubr
            return
          </CharString>
          <CharString index="56">
            rlineto
            65 -23 -56 53 -82 hhcurveto
            -152 -138 -157 -165 return
          </CharString>
          <CharString index="57">
            -63 callsubr
            -7 callsubr
            -17 callsubr
            vstem
            return
          </CharString>
          <CharString index="58">
            72 82 43 68 53 hvcurveto
            -9 -41 -2 -13 -9 vvcurveto
            return
          </CharString>
          <CharString index="59">
            vvcurveto
            -29 20 -23 40 -9 vhcurveto
            return
          </CharString>
          <CharString index="60">
            43 -3 -12 callgsubr
            return
          </CharString>
          <CharString index="61">
            rmoveto
            -24 -17 23 28 hvcurveto
            return
          </CharString>
          <CharString index="62">
            399 rlineto
            -307 hlineto
            -9 -44 rlineto
            237 hlineto
            endchar
          </CharString>
          <CharString index="63">
            -20 hstem
            -110 -181 rmoveto
            76 86 66 92 19 hvcurveto
            116 544 -72 callgsubr
            -116 -548 rlineto
            -54 -11 -52 -39 -44 38 callgsubr
            -42 -46 rlineto
            -28 23 35 -11 42 hhcurveto
            return
          </CharString>
          <CharString index="64">
            -89 callsubr
            endchar
          </CharString>
          <CharString index="65">
            128 110 77 -43 89 -101 -128 -103 -129 -109 -79 return
          </CharString>
          <CharString index="66">
            -10 -36 callsubr
            return
          </CharString>
          <CharString index="67">
            79 47 -24 -42 -47 -58 -33 -68 -68 -37 40 33 hvcurveto
            -32 -28 rlineto
            -58 58 -31 70 vhcurveto
            endchar
          </CharString>
          <CharString index="68">
            78 49 -24 -41 -47 -60 -33 -67 -69 -35 39 34 hvcurveto
            -34 -29 rlineto
            -57 2 56 -32 71 hhcurveto
            return
          </CharString>
          <CharString index="69">
            hstem
            46 71 511 70 vstem
            return
          </CharString>
          <CharString index="70">
            89 -5 63 593 64 return
          </CharString>
          <CharString index="71">
            60 420 60 return
          </CharString>
          <CharString index="72">
            -29 32 67 22 3 return
          </CharString>
          <CharString index="73">
            -87 callgsubr
            endchar
          </CharString>
          <CharString index="74">
            -89 callgsubr
            endchar
          </CharString>
          <CharString index="75">
            54 -5 63 -37 -21 295 54 303 63 return
          </CharString>
          <CharString index="76">
            433 -7 rmoveto
            211 158 155 207 206 -158 154 -211 -211 -156 -154 -206 -207 156 -155 211 hvcurveto
            return
          </CharString>
          <CharString index="77">
            74 30 74 62 87 vvcurveto
            97 -88 54 -90 -112 -141 -76 -130 -57 35 -45 46 -22 vhcurveto
            -79 -28 -97 -74 -111 vvcurveto
            -98 75 -77 118 vhcurveto
            return
          </CharString>
          <CharString index="78">
            21 -21 467 54 121 59 -21 60 hstemhm
            hintmask 11010000
            31 hmoveto
            -18 callgsubr
            152 hlineto
            -99 -467 rlineto
            -18 callgsubr
            return
          </CharString>
          <CharString index="79">
            46 9 45 166 45 -22 22 -22 47 return
          </CharString>
          <CharString index="80">
            -897 rmoveto
            -87 callsubr
            return
          </CharString>
          <CharString index="81">
            -32 callgsubr
            endchar
          </CharString>
          <CharString index="82">
            102 22 60 57 73 hhcurveto
            45 37 -23 -35 10 hvcurveto
            33 29 rlineto
            45 -14 -45 26 -56 hhcurveto
            -130 -90 -121 -154 -82 49 -50 78 return
          </CharString>
          <CharString index="83">
            -8 callgsubr
            -9 -20 229 -20 hstemhm
            432 73 hintmask 11011000
            return
          </CharString>
          <CharString index="84">
            hstem
            9 hmoveto
            -70 callsubr
            return
          </CharString>
          <CharString index="85">
            -61 callgsubr
            229 -20 hstemhm
            37 72 hintmask 10111000
            return
          </CharString>
          <CharString index="86">
            159 -10 rmoveto
            86 88 47 81 61 hvcurveto
            -13 -59 -1 -13 -9 vvcurveto
            return
          </CharString>
          <CharString index="87">
            -52 callsubr
            227 -20 hstem
            return
          </CharString>
          <CharString index="88">
            -46 rlineto
            -28 23 36 -11 return
          </CharString>
          <CharString index="89">
            hvcurveto
            -62 -35 callgsubr
            64 305 rlineto
            return
          </CharString>
          <CharString index="90">
            25 69 349 62 return
          </CharString>
          <CharString index="91">
            rlineto
            -69 hlineto
            return
          </CharString>
          <CharString index="92">
            -31 39 49 -18 58 hhcurveto
            207 195 210 215 73 -21 72 -40 55 hvcurveto
            76 90 rlineto
            -596 -416 rmoveto
            return
          </CharString>
          <CharString index="93">
            -25 31 41 -15 48 hhcurveto
            165 145 155 166 61 -19 55 -35 40 hvcurveto
            53 56 rlineto
            -46 hlineto
            -31 -33 rlineto
            return
          </CharString>
          <CharString index="94">
            rlineto
            -328 hlineto
            return
          </CharString>
          <CharString index="95">
            542 -21 17 callsubr
            178 730 rmoveto
            -47 -106 -22 -103 rlineto
            67 hlineto
            21 103 rlineto
            -23 hlineto
            39 106 rlineto
            return
          </CharString>
          <CharString index="96">
            641 -21 110 -20 hstem
            return
          </CharString>
          <CharString index="97">
            rmoveto
            53 50 19 12 17 hvcurveto
            -6 55 rlineto
            return
          </CharString>
          <CharString index="98">
            -144 -203 -21 745 -20 return
          </CharString>
          <CharString index="99">
            -178 -21 150 return
          </CharString>
          <CharString index="100">
            19 callsubr
            hstem
            return
          </CharString>
          <CharString index="101">
            rlineto
            -58 hlineto
            return
          </CharString>
          <CharString index="102">
            -78 callgsubr
            endchar
          </CharString>
          <CharString index="103">
            rmoveto
            -198 178 -12 -59 152 -136 -210 -134 -13 -59 274 173 rlineto
            endchar
          </CharString>
          <CharString index="104">
            23 -6 63 594 63 203 -20 hstem
            47 70 vstem
            return
          </CharString>
          <CharString index="105">
            321 rmoveto
            91 89 48 79 42 -29 35 -49 8 hvcurveto
            return
          </CharString>
          <CharString index="106">
            -20 21 -20 hstemhm
            return
          </CharString>
          <CharString index="107">
            710 rlineto
            return
          </CharString>
          <CharString index="108">
            39 callgsubr
            207 -20 hstem
            return
          </CharString>
          <CharString index="109">
            -30 callgsubr
            hstem
            547 72 vstem
            return
          </CharString>
          <CharString index="110">
            -52 callsubr
            hstem
            return
          </CharString>
          <CharString index="111">
            38 176 -72 callgsubr
            return
          </CharString>
          <CharString index="112">
            101 -35 35 hstemhm
            return
          </CharString>
          <CharString index="113">
            -388 21 -21 return
          </CharString>
          <CharString index="114">
            431 0 51 -40 -21 29 -21 472 51 9 -20 220 43 callgsubr
            hintmask 10010110
            return
          </CharString>
          <CharString index="115">
            -100 -22 -62 -58 -71 hhcurveto
            -47 -35 23 35 -10 hvcurveto
            -34 -29 rlineto
            -45 14 45 -26 57 hhcurveto
            return
          </CharString>
          <CharString index="116">
            -20 -38 callsubr
            return
          </CharString>
          <CharString index="117">
            25 -31 -40 15 -47 hhcurveto
            -163 -148 -155 -167 -61 19 -54 34 -40 hvcurveto
            return
          </CharString>
          <CharString index="118">
            rmoveto
            91 90 47 79 43 -29 34 -50 8 hvcurveto
            return
          </CharString>
          <CharString index="119">
            -176 32 71 28 return
          </CharString>
          <CharString index="120">
            hstemhm
            25 71 return
          </CharString>
          <CharString index="121">
            rmoveto
            50 hlineto
            return
          </CharString>
          <CharString index="122">
            -63 -8 61 298 54 243 62 hstemhm
            24 71 24 68 246 69 -23 return
          </CharString>
          <CharString index="123">
            37 callsubr
            432 73 return
          </CharString>
          <CharString index="124">
            209 -20 hstem
            return
          </CharString>
          <CharString index="125">
            -21 709 -1 callsubr
            return
          </CharString>
          <CharString index="126">
            200 -20 return
          </CharString>
          <CharString index="127">
            -6 62 674 -20 hstem
            28 74 vstem
            return
          </CharString>
          <CharString index="128">
            131 89 122 153 82 -49 50 -79 -98 -91 -72 -87 return
          </CharString>
          <CharString index="129">
            -191 -21 202 60 -29 -29 callgsubr
            hstemhm
            hintmask 11010000
            return
          </CharString>
          <CharString index="130">
            rmoveto
            -86 -51 74 91 125 110 130 121 73 return
          </CharString>
          <CharString index="131">
            0 callsubr
            -469 hlineto
            -13 -63 rlineto
            360 hlineto
            endchar
          </CharString>
          <CharString index="132">
            rmoveto
            42 84 20 95 rlineto
            -65 hlineto
            -20 -95 rlineto
            23 hlineto
            return
          </CharString>
          <CharString index="133">
            9 rmoveto
            225 566 223 -566 rlineto
            endchar
          </CharString>
          <CharString index="134">
            45 145 41 138 41 hstemhm
            return
          </CharString>
          <CharString index="135">
            hlineto
            -99 -467 -16 callgsubr
            111 15 callgsubr
            return
          </CharString>
          <CharString index="136">
            -21 475 56 199 -20 hstem
            449 63 vstem
            return
          </CharString>
          <CharString index="137">
            32 231 46 -19 48 return
          </CharString>
          <CharString index="138">
            1 6 1 5 hvcurveto
            99 467 rlineto
            3 14 return
          </CharString>
          <CharString index="139">
            hlineto
            -93 -207 rlineto
            58 hlineto
            91 207 rlineto
            return
          </CharString>
          <CharString index="140">
            59 39 -24 56 hhcurveto
            35 39 9 17 36 hvcurveto
            return
          </CharString>
          <CharString index="141">
            -10 60 -29 -21 470 60 19 callsubr
            hstemhm
            return
          </CharString>
          <CharString index="142">
            -167 0 51 419 51 return
          </CharString>
          <CharString index="143">
            -165 -10 52 437 51 return
          </CharString>
          <CharString index="144">
            -1 callgsubr
            -9 -20 hstemhm
            return
          </CharString>
          <CharString index="145">
            -12 -54 rlineto
            69 hlineto
            return
          </CharString>
          <CharString index="146">
            420 60 -9 -20 return
          </CharString>
          <CharString index="147">
            hintmask 11111010
            66 55 -37 -63 -91 -99 -52 -73 return
          </CharString>
          <CharString index="148">
            -10 52 194 46 -16 43 170 51 return
          </CharString>
          <CharString index="149">
            100 -72 callgsubr
            return
          </CharString>
          <CharString index="150">
            hlineto
            -11 -54 rlineto
            return
          </CharString>
          <CharString index="151">
            44 155 37 return
          </CharString>
        <CharString name=".notdef">
          -633 endchar
        </CharString>
        <CharString name="A">
          -62 callgsubr
          hstem
          -102 callgsubr
          endchar
        </CharString>
        <CharString name="A.sc">
          -69 21 -21 165 55 328 -20 hstem
          -41 hmoveto
          67 hlineto
          106 165 rlineto
          249 hlineto
          36 -165 rlineto
          66 hlineto
          -119 548 rlineto
          -52 hlineto
          -153 -328 rmoveto
          162 250 56 -250 rlineto
          endchar
        </CharString>
        <CharString name="AE">
          28 callgsubr
          hstem
          -81 hmoveto
          -60 callsubr
        </CharString>
        <CharString name="AEacute">
          28 callgsubr
          207 -20 hstem
          678 917 -89 callsubr
          -654 -807 rmoveto
          -60 callsubr
        </CharString>
        <CharString name="Aacute">
          -62 callgsubr
          227 -20 hstem
          -102 callgsubr
          79 640 -43 callsubr
        </CharString>
        <CharString name="Abreve">
          -62 callgsubr
          126 -6 callgsubr
          354 43 hintmask 11110100
          -102 callgsubr
          -19 574 -46 callsubr
          hintmask 11101100
          -98 callgsubr
          hintmask 11110100
          -59 callgsubr
        </CharString>
        <CharString name="Acircumflex">
          -62 callgsubr
          227 -20 hstem
          -102 callgsubr
          -101 534 -65 callsubr
        </CharString>
        <CharString name="Adblgrave">
          -62 callgsubr
          228 -20 hstem
          -102 callgsubr
          35 531 -33 callsubr
        </CharString>
        <CharString name="Adieresis">
          -62 callgsubr
          130 94 hstem
          -102 callgsubr
          -71 543 -67 callsubr
        </CharString>
        <CharString name="Agrave">
          -62 callgsubr
          227 -20 hstem
          -102 callgsubr
          -44 530 -76 callgsubr
        </CharString>
        <CharString name="Ainvertedbreve">
          -62 callgsubr
          126 5 callsubr
          494 40 hintmask 11110100
          -102 callgsubr
          -114 539 rmoveto
          40 hlineto
          hintmask 11101100
          -75 callgsubr
          hvcurveto
          hintmask 11110100
          -91 callsubr
          endchar
        </CharString>
        <CharString name="Amacron">
          -62 callgsubr
          159 47 hstem
          -102 callgsubr
          122 572 -68 callsubr
          endchar
        </CharString>
        <CharString name="Aogonek">
          18 -154 -21 196 -48 callgsubr
          hstem
          431 44 vstem
          491 -175 rmoveto
          -61 callsubr
          -128 0 callsubr
          -60 hlineto
          -431 -710 rlineto
          75 hlineto
          132 222 rlineto
          299 hlineto
          39 -222 rlineto
          26 hlineto
          -66 -42 -29 -35 27 callgsubr
          -303 452 rmoveto
          211 351 58 -351 rlineto
          endchar
        </CharString>
        <CharString name="Aring">
          -62 callgsubr
          96 27 77 27 hstem
          372 33 80 32 vstem
          -102 callgsubr
          -85 562 -88 callsubr
          endchar
        </CharString>
        <CharString name="Aringacute">
          -62 callgsubr
          97 27 104 -20 hstem
          352 33 80 32 vstem
          560 918 rmoveto
          -71 hlineto
          -76 -90 40 -15 rlineto
          -5 -4 1 -5 hhcurveto
          -47 -40 -32 -46 -20 8 -15 15 -9 hvcurveto
          -420 -692 rlineto
          75 hlineto
          132 222 rlineto
          299 hlineto
          39 -222 rlineto
          74 hlineto
          -125 691 rlineto
          29 12 19 26 32 vvcurveto
          27 -16 19 -26 5 vhcurveto
          -267 -535 rmoveto
          211 351 58 -351 rlineto
          -24 510 rmoveto
          18 14 -12 -19 -27 -27 -19 -22 -19 -12 14 17 27 24 19 24 hvcurveto
          endchar
        </CharString>
        <CharString name="Atilde">
          -62 callgsubr
          135 -47 callsubr
          hintmask 11110100
          -102 callgsubr
          38 548 -88 callgsubr
          hintmask 11101000
          -93 callgsubr
          hintmask 11110100
          -56 callgsubr
        </CharString>
        <CharString name="B">
          8 0 61 269 57 262 61 hstemhm
          507 69 -27 27 -27 72 hintmask 11110000
          24 hmoveto
          318 hlineto
          119 115 93 127 68 -33 56 -59 20 hvcurveto
          hintmask 11100100
          81 35 56 81 85 vvcurveto
          74 -41 71 -79 vhcurveto
          -326 hlineto
          -69 -649 rmoveto
          57 269 rlineto
          256 hlineto
          hintmask 11110000
          55 33 -50 -59 -82 -75 -78 -77 hvcurveto
          -180 326 rmoveto
          56 262 rlineto
          235 hlineto
          hintmask 11101000
          52 31 -46 -57 -82 -70 -77 -74 hvcurveto
          endchar
        </CharString>
        <CharString name="B.sc">
          -76 0 54 197 51 190 56 hstemhm
          419 63 -33 33 -33 65 hintmask 11110000
          18 hmoveto
          268 hlineto
          100 96 69 99 54 -29 43 -51 16 hvcurveto
          hintmask 11100100
          66 26 46 62 65 vvcurveto
          58 -35 56 -68 vhcurveto
          -276 hlineto
          -42 -494 rmoveto
          41 197 rlineto
          211 hlineto
          hintmask 11110000
          46 28 -38 -43 -60 -60 -56 -62 hvcurveto
          -152 248 rmoveto
          40 190 rlineto
          194 hlineto
          hintmask 11101000
          43 27 -32 -44 -61 -55 -53 -60 hvcurveto
          endchar
        </CharString>
        <CharString name="C">
          23 -6 63 594 63 hstem
          47 70 vstem
          294 -6 -94 callgsubr
          endchar
        </CharString>
        <CharString name="C.sc">
          -63 -5 57 442 57 hstem
          33 64 vstem
          246 -5 rmoveto
          87 111 46 81 55 hvcurveto
          -46 29 rlineto
          -70 -50 -79 -29 -63 hhcurveto
          -102 -62 84 99 119 104 140 152 60 64 -23 -72 21 hvcurveto
          56 32 rlineto
          70 -20 -65 50 -101 hhcurveto
          -195 -140 -172 -148 -121 78 -115 135 hvcurveto
          endchar
        </CharString>
        <CharString name="CR">
          -633 endchar
        </CharString>
        <CharString name="Cacute">
          -3 callsubr
          577 917 -89 callsubr
          -178 -813 -94 callgsubr
          endchar
        </CharString>
        <CharString name="Ccaron">
          -3 callsubr
          452 811 -92 callsubr
          -82 -903 -94 callgsubr
          endchar
        </CharString>
        <CharString name="Ccedilla">
          19 12 callsubr
          40 62 594 63 hstem
          43 70 213 38 vstem
          159 -157 rmoveto
          -78 callsubr
          36 46 102 4 125 58 64 102 rlinecurve
          -52 30 rlineto
          -92 -62 -96 -40 -76 hhcurveto
          -120 -74 110 130 161 132 193 186 73 75 -32 -94 23 hvcurveto
          63 34 rlineto
          91 -22 -75 64 -120 hhcurveto
          -234 -171 -226 -194 -145 80 -139 141 -14 hvcurveto
          -59 -83 -79 callsubr
          endchar
        </CharString>
        <CharString name="Ccircumflex">
          -3 callsubr
          401 811 -100 callgsubr
          -73 -838 -94 callgsubr
          endchar
        </CharString>
        <CharString name="Cdotaccent">
          23 -6 63 594 63 106 97 hstem
          47 70 vstem
          294 -6 -94 callgsubr
          220 826 -66 callgsubr
          endchar
        </CharString>
        <CharString name="D">
          57 0 22 callgsubr
          24 hmoveto
          -94 callsubr
        </CharString>
        <CharString name="D.sc">
          -33 0 56 436 56 hstem
          489 65 vstem
          18 hmoveto
          196 hlineto
          195 145 140 193 121 -71 94 -153 hvcurveto
          -195 hlineto
          -42 -492 rmoveto
          92 436 rlineto
          133 hlineto
          113 58 -70 -99 -142 -99 -125 -165 hvcurveto
          endchar
        </CharString>
        <CharString name="Dcaron">
          57 1 callsubr
          592 72 vstem
          402 811 -92 callsubr
          -302 -897 rmoveto
          -94 callsubr
        </CharString>
        <CharString name="Dcroat">
          -73 callgsubr
        </CharString>
        <CharString name="Ddotbelow">
          57 7 callgsubr
          68 22 callgsubr
          258 -44 callgsubr
          -172 166 rmoveto
          -94 callsubr
        </CharString>
        <CharString name="Delta">
          16 0 62 648 -20 hstem
          326 710 rmoveto
          -58 hlineto
          -273 -657 rlineto
          -53 601 53 vlineto
          -524 26 callsubr
        </CharString>
        <CharString name="E">
          -66 callsubr
          hstem
          24 hmoveto
          -103 callgsubr
          endchar
        </CharString>
        <CharString name="E.sc">
          -124 0 56 197 52 187 56 hstem
          18 hmoveto
          385 hlineto
          12 56 rlineto
          -322 hlineto
          42 197 rlineto
          274 hlineto
          12 52 rlineto
          -275 hlineto
          39 187 rlineto
          316 hlineto
          11 56 rlineto
          -377 hlineto
          endchar
        </CharString>
        <CharString name="Eacute">
          -2 callgsubr
          527 917 -89 callsubr
          -398 -807 rmoveto
          -103 callgsubr
          endchar
        </CharString>
        <CharString name="Ebreve">
          -66 callsubr
          106 -6 callgsubr
          336 43 hintmask 11110100
          24 hmoveto
          -103 callgsubr
          245 141 -46 callsubr
          hintmask 11101100
          -98 callgsubr
          hintmask 11110100
          -59 callgsubr
        </CharString>
        <CharString name="Ecaron">
          -2 callgsubr
          389 811 -92 callsubr
          -289 -897 rmoveto
          -103 callgsubr
          endchar
        </CharString>
        <CharString name="Ecircumflex">
          -2 callgsubr
          347 811 -100 callgsubr
          -289 -832 rmoveto
          -103 callgsubr
          endchar
        </CharString>
        <CharString name="Edblgrave">
          -66 callsubr
          208 -20 hstem
          481 808 -89 callgsubr
          -280 -918 rmoveto
          -103 callgsubr
          endchar
        </CharString>
        <CharString name="Edieresis">
          -66 callsubr
          110 94 hstem
          378 820 -95 callgsubr
          -440 -820 rmoveto
          -103 callgsubr
          endchar
        </CharString>
        <CharString name="Edotaccent">
          -66 callsubr
          110 97 hstem
          24 hmoveto
          -103 callgsubr
          279 110 -66 callgsubr
          endchar
        </CharString>
        <CharString name="Edotbelow">
          -51 7 callgsubr
          68 62 271 59 256 62 hstem
          24 hmoveto
          -103 callgsubr
          70 -876 -83 callsubr
          endchar
        </CharString>
        <CharString name="Egrave">
          -2 callgsubr
          24 hmoveto
          -103 callgsubr
          240 97 -76 callgsubr
        </CharString>
        <CharString name="Einvertedbreve">
          -66 callsubr
          106 5 callsubr
          481 40 hintmask 11110100
          330 816 rmoveto
          40 hlineto
          hintmask 11101100
          -75 callgsubr
          hvcurveto
          hintmask 11110100
          -91 callsubr
          -306 -816 rmoveto
          -103 callgsubr
          endchar
        </CharString>
        <CharString name="Emacron">
          -66 callsubr
          139 47 hstem
          24 hmoveto
          -103 callgsubr
          389 139 -68 callsubr
          endchar
        </CharString>
        <CharString name="Eng">
          103 -181 61 141 18 callsubr
          hintmask 11100000
          396 -181 rmoveto
          75 87 64 92 20 hvcurveto
          156 734 -32 callgsubr
          -125 -587 rlineto
          hintmask 11010000
          -311 588 rlineto
          -53 hlineto
          -151 -710 rlineto
          69 hlineto
          123 579 301 -570 -8 -36 rlineto
          -53 -11 -52 -40 -44 hhcurveto
          -24 -24 5 19 -15 hvcurveto
          -43 -19 callsubr
          41 hhcurveto
          endchar
        </CharString>
        <CharString name="Eogonek">
          -51 -154 -21 175 62 271 59 256 62 hstem
          139 44 vstem
          24 hmoveto
          210 -51 callgsubr
          196 -77 callsubr
          -385 hlineto
          58 271 rlineto
          328 hlineto
          12 59 -13 callsubr
          55 256 rlineto
          376 -77 callsubr
          -445 hlineto
          endchar
        </CharString>
        <CharString name="Eth">
          -73 callgsubr
        </CharString>
        <CharString name="Etilde">
          -66 callsubr
          115 -47 callsubr
          hintmask 11110100
          24 hmoveto
          -103 callgsubr
          299 115 -88 callgsubr
          hintmask 11101000
          -93 callgsubr
          hintmask 11110100
          -56 callgsubr
        </CharString>
        <CharString name="Euro">
          130 -6 63 211 43 62 43 235 63 hstem
          102 416 rmoveto
          -27 -43 -16 callgsubr
          -5 -21 -3 -21 -1 -20 rrcurveto
          -80 hlineto
          -28 -43 rlineto
          109 hlineto
          -144 9 89 -130 148 hhcurveto
          104 133 59 106 66 hvcurveto
          -51 30 rlineto
          -92 -63 -97 -40 -75 hhcurveto
          -111 -72 94 117 -10 hvcurveto
          258 hlineto
          27 43 rlineto
          -286 hlineto
          1 20 3 21 5 21 rrcurveto
          307 hlineto
          27 43 rlineto
          -321 hlineto
          124 45 110 111 141 hhcurveto
          72 76 -32 -94 23 hvcurveto
          63 34 rlineto
          91 -22 -75 64 -120 hhcurveto
          -186 -146 -143 -155 -52 hvcurveto
          endchar
        </CharString>
        <CharString name="F">
          -61 21 -21 329 58 261 62 hstem
          24 hmoveto
          69 hlineto
          70 329 rlineto
          315 hlineto
          13 58 rlineto
          -315 hlineto
          55 261 rlineto
          373 -77 callsubr
          -442 hlineto
          endchar
        </CharString>
        <CharString name="F.sc">
          -135 21 -21 248 54 190 56 hstem
          44 callgsubr
          52 248 rlineto
          264 hlineto
          12 54 rlineto
          -264 hlineto
          40 190 rlineto
          312 hlineto
          12 56 rlineto
          -374 hlineto
          endchar
        </CharString>
        <CharString name="G">
          -32 callsubr
          hstemhm
          47 70 hintmask 01111000
          510 hmoveto
          -71 callsubr
          hintmask 10111000
          -98 callsubr
          endchar
        </CharString>
        <CharString name="G.alt">
          68 -5 63 228 63 303 63 hstem
          47 70 vstem
          300 -5 rmoveto
          171 159 148 168 44 hvcurveto
          10 38 rlineto
          -270 hlineto
          -14 -63 rlineto
          195 hlineto
          -117 -43 -116 -111 -127 hhcurveto
          -125 -67 114 123 169 144 188 174 97 58 -67 -68 23 hvcurveto
          63 45 rlineto
          91 -33 -79 62 -112 hhcurveto
          -214 -191 -212 -213 -155 93 -140 160 hvcurveto
          endchar
        </CharString>
        <CharString name="G.sc">
          -40 -4 57 -32 -21 223 48 224 56 hstemhm
          34 63 hintmask 01111000
          423 hmoveto
          54 hlineto
          57 271 rlineto
          -178 hlineto
          -9 -48 rlineto
          124 hlineto
          -18 -81 rlineto
          hintmask 10111000
          -61 -65 -64 -28 -63 hhcurveto
          -99 -65 81 99 127 112 135 139 72 56 -30 -66 20 hvcurveto
          56 33 rlineto
          70 -22 -59 49 -109 hhcurveto
          -173 -155 -157 -165 -121 80 -112 131 67 64 26 54 63 hvcurveto
          endchar
        </CharString>
        <CharString name="Gacute">
          -32 callsubr
          202 -20 hstemhm
          47 70 hintmask 01111100
          560 917 -89 callsubr
          55 -807 rmoveto
          -71 callsubr
          hintmask 10111100
          -98 callsubr
          endchar
        </CharString>
        <CharString name="Gbreve">
          -32 callsubr
          101 -6 callgsubr
          47 70 266 43 hintmask 01111011
          510 hmoveto
          -71 callsubr
          hintmask 10111011
          -98 callsubr
          hintmask 01111011
          -65 748 -46 callsubr
          hintmask 10110111
          -98 callgsubr
          hintmask 10111011
          -59 callgsubr
        </CharString>
        <CharString name="Gcircumflex">
          -32 callsubr
          202 -20 hstemhm
          47 70 hintmask 01111100
          385 811 -100 callgsubr
          159 -832 rmoveto
          -71 callsubr
          hintmask 10111100
          -98 callsubr
          endchar
        </CharString>
        <CharString name="Gcommaaccent">
          54 -8 callsubr
          44 0 63 -37 -21 295 54 303 63 hstemhm
          47 70 hintmask 11011110
          259 -90 callgsubr
          285 199 rmoveto
          -71 callsubr
          hintmask 10101110
          -98 callsubr
          endchar
        </CharString>
        <CharString name="Gdotaccent">
          -32 callsubr
          105 97 hstemhm
          47 70 hintmask 01111100
          510 hmoveto
          -71 callsubr
          hintmask 10111100
          -98 callsubr
          hintmask 01111100
          -30 717 -66 callgsubr
          endchar
        </CharString>
        <CharString name="H">
          76 21 -21 332 62 316 -20 hstem
          24 hmoveto
          69 hlineto
          71 332 rlineto
          395 hlineto
          -71 -332 rlineto
          70 hlineto
          151 710 -32 callgsubr
          -67 -316 rlineto
          -395 hlineto
          67 316 -16 callsubr
          endchar
        </CharString>
        <CharString name="H.sc">
          -16 21 -21 252 57 239 -20 hstem
          44 callgsubr
          53 252 rlineto
          328 hlineto
          -53 -252 rlineto
          62 hlineto
          116 548 13 callgsubr
          -50 -239 rlineto
          -329 hlineto
          51 239 13 callgsubr
          endchar
        </CharString>
        <CharString name="Hbar">
          86 21 -21 332 62 156 39 -39 160 hstemhm
          hintmask 11100000
          99 550 rmoveto
          47 hlineto
          -117 -550 rlineto
          70 hlineto
          70 332 rlineto
          395 hlineto
          -70 -332 rlineto
          69 hlineto
          117 550 rlineto
          47 hlineto
          9 39 rlineto
          -48 hlineto
          hintmask 11010000
          26 121 -16 callsubr
          hintmask 11100000
          -26 -121 rlineto
          -395 hlineto
          hintmask 11010000
          26 121 -32 callgsubr
          hintmask 11100000
          -26 -121 rlineto
          -47 hlineto
          76 -195 rmoveto
          33 156 rlineto
          395 hlineto
          -33 -156 rlineto
          endchar
        </CharString>
        <CharString name="Hcircumflex">
          76 21 -21 332 62 316 -20 227 -20 hstem
          380 811 -100 callgsubr
          -322 -832 rmoveto
          69 hlineto
          71 332 rlineto
          395 hlineto
          -71 -332 rlineto
          70 hlineto
          151 710 -32 callgsubr
          -67 -316 rlineto
          -395 hlineto
          67 316 -16 callsubr
          endchar
        </CharString>
        <CharString name="Hdotbelow">
          76 7 callgsubr
          89 -21 332 62 316 -20 hstem
          24 hmoveto
          69 hlineto
          71 332 rlineto
          395 hlineto
          -71 -332 rlineto
          70 hlineto
          151 710 -32 callgsubr
          -67 -316 rlineto
          -395 hlineto
          67 316 -16 callsubr
          113 -876 -83 callsubr
          endchar
        </CharString>
        <CharString name="I">
          6 callsubr
          709 -20 hstem
          24 hmoveto
          69 -80 callgsubr
          endchar
        </CharString>
        <CharString name="I.sc">
          -407 21 -21 547 -20 hstem
          44 callgsubr
          116 547 13 callgsubr
          endchar
        </CharString>
        <CharString name="IJ">
          80 -11 63 -31 -21 709 -20 hstemhm
          hintmask 01100000
          24 hmoveto
          69 -80 callgsubr
          hintmask 10100000
          170 -720 -81 callsubr
          endchar
        </CharString>
        <CharString name="Iacute">
          6 callsubr
          917 -20 hstem
          24 hmoveto
          69 -80 callgsubr
          153 208 -43 callsubr
        </CharString>
        <CharString name="Ibreve">
          6 callsubr
          816 -6 callgsubr
          143 43 hintmask 11010000
          24 hmoveto
          69 -80 callgsubr
          52 142 -46 callsubr
          hintmask 10110000
          -98 callgsubr
          hintmask 11010000
          -59 callgsubr
        </CharString>
        <CharString name="Icircumflex">
          6 callsubr
          917 -20 hstem
          24 hmoveto
          69 -80 callgsubr
          -26 102 -65 callsubr
        </CharString>
        <CharString name="Idblgrave">
          6 callsubr
          918 -20 hstem
          24 hmoveto
          69 -80 callgsubr
          114 99 -33 callsubr
        </CharString>
        <CharString name="Idieresis">
          6 callsubr
          820 94 hstem
          24 hmoveto
          69 -80 callgsubr
          13 111 -67 callsubr
        </CharString>
        <CharString name="Idotaccent">
          6 callsubr
          820 97 hstem
          24 hmoveto
          69 -80 callgsubr
          87 111 -66 callgsubr
          endchar
        </CharString>
        <CharString name="Idotbelow">
          -388 7 callgsubr
          89 -21 709 -20 hstem
          24 hmoveto
          69 -80 callgsubr
          -122 -875 -83 callsubr
          endchar
        </CharString>
        <CharString name="Igrave">
          6 callsubr
          917 -20 hstem
          24 hmoveto
          69 -80 callgsubr
          47 98 -76 callgsubr
        </CharString>
        <CharString name="Iinvertedbreve">
          6 callsubr
          882 35 hstem
          290 40 vstem
          24 hmoveto
          69 -80 callgsubr
          -36 107 rmoveto
          40 hlineto
          -75 callgsubr
          -7 -1 -6 -1 -8 hvcurveto
          40 hlineto
          2 7 0 7 7 vvcurveto
          44 -29 36 -47 -54 -50 -45 -56 -11 vhcurveto
          endchar
        </CharString>
        <CharString name="Imacron">
          6 callsubr
          849 47 hstem
          24 hmoveto
          69 -80 callgsubr
          201 140 -68 callsubr
          endchar
        </CharString>
        <CharString name="Iogonek">
          -388 -154 -21 196 -21 709 -20 hstem
          -50 44 vstem
          24 hmoveto
          21 -51 callgsubr
          -60 callgsubr
          -69 hlineto
          endchar
        </CharString>
        <CharString name="Itilde">
          6 callsubr
          825 -47 callsubr
          hintmask 11010000
          24 hmoveto
          69 -80 callgsubr
          116 116 -88 callgsubr
          hintmask 10100000
          -93 callgsubr
          hintmask 11010000
          -56 callgsubr
        </CharString>
        <CharString name="J">
          -165 -11 63 657 -20 hstem
          100 -11 -81 callsubr
          endchar
        </CharString>
        <CharString name="J.sc">
          -220 -8 56 499 -20 hstem
          83 -8 rmoveto
          168 44 110 167 36 hvcurveto
          60 278 rlineto
          -63 hlineto
          -59 -278 rlineto
          -143 -31 -30 -78 -113 hhcurveto
          -46 -36 14 14 -19 hvcurveto
          -28 -51 rlineto
          -22 29 39 -11 49 hhcurveto
          endchar
        </CharString>
        <CharString name="Jcircumflex">
          -165 -11 63 865 -20 hstem
          379 811 -100 callgsubr
          -245 -843 -81 callsubr
          endchar
        </CharString>
        <CharString name="K">
          -18 21 18 callsubr
          hintmask 10100000
          24 hmoveto
          -25 callgsubr
          hintmask 11000000
          88 412 -16 callsubr
          endchar
        </CharString>
        <CharString name="K.sc">
          -94 21 -21 547 -1 callsubr
          hintmask 10100000
          44 callgsubr
          36 168 125 102 157 -270 -16 callgsubr
          -178 307 282 241 -16 callsubr
          -371 -310 rlineto
          hintmask 11000000
          66 309 13 callgsubr
          endchar
        </CharString>
        <CharString name="Kcommaaccent">
          -18 -178 -21 220 18 callsubr
          hintmask 11010000
          229 -90 callgsubr
          -171 199 rmoveto
          -25 callgsubr
          hintmask 11100000
          88 412 -16 callsubr
          endchar
        </CharString>
        <CharString name="L">
          -76 0 62 648 -20 hstem
          24 hmoveto
          -54 callgsubr
          endchar
        </CharString>
        <CharString name="L.sc">
          -164 0 56 492 -20 hstem
          18 hmoveto
          374 hlineto
          12 56 rlineto
          -311 hlineto
          104 492 13 callgsubr
          endchar
        </CharString>
        <CharString name="Lacute">
          -76 0 62 648 -20 227 -20 hstem
          340 917 -89 callsubr
          -211 -807 rmoveto
          -54 callgsubr
          endchar
        </CharString>
        <CharString name="Lcaron">
          -76 0 62 668 -20 hstem
          340 -38 callgsubr
          -274 -637 rmoveto
          -54 callgsubr
          endchar
        </CharString>
        <CharString name="Lcommaaccent">
          -76 -8 callsubr
          49 10 callgsubr
          hstemhm
          219 -90 callgsubr
          -161 199 rmoveto
          457 hlineto
          hintmask 11100000
          13 62 rlineto
          -388 hlineto
          138 648 -16 callsubr
          endchar
        </CharString>
        <CharString name="Ldot">
          -76 0 62 648 -20 hstem
          24 hmoveto
          -54 callgsubr
          212 -362 -26 callgsubr
        </CharString>
        <CharString name="Lslash">
          -69 0 62 648 -20 hstem
          25 229 rmoveto
          65 48 -59 -277 rlineto
          457 -77 callsubr
          -387 hlineto
          59 276 197 145 -13 39 -172 -126 67 314 -32 callgsubr
          -80 -375 -90 -66 rlineto
          endchar
        </CharString>
        <CharString name="M">
          207 3 callsubr
          24 hmoveto
          69 hlineto
          125 583 146 -451 rlineto
          41 hlineto
          338 451 -124 -583 rlineto
          70 hlineto
          151 0 callsubr
          -72 hlineto
          -364 -486 -157 486 rlineto
          -72 hlineto
          endchar
        </CharString>
        <CharString name="M.sc">
          93 17 callgsubr
          44 callgsubr
          92 435 130 -335 rlineto
          36 hlineto
          271 335 -92 -435 rlineto
          62 hlineto
          117 548 rlineto
          -65 hlineto
          -293 -364 -139 364 rlineto
          -65 hlineto
          endchar
        </CharString>
        <CharString name="N">
          107 21 18 callsubr
          hintmask 11000000
          24 hmoveto
          -85 callgsubr
          rlineto
          hintmask 10100000
          -37 callgsubr
          endchar
        </CharString>
        <CharString name="N.sc">
          9 21 -21 547 -1 callsubr
          hintmask 11000000
          44 callgsubr
          91 431 271 -431 rlineto
          54 hlineto
          116 547 rlineto
          -63 hlineto
          -93 -438 rlineto
          hintmask 10100000
          -274 439 rlineto
          -48 hlineto
          endchar
        </CharString>
        <CharString name="NULL">
          -633 endchar
        </CharString>
        <CharString name="Nacute">
          107 -20 callsubr
          585 917 -89 callsubr
          -456 -807 rmoveto
          -85 callgsubr
          -37 callgsubr
          endchar
        </CharString>
        <CharString name="Ncaron">
          107 -20 callsubr
          448 811 -92 callsubr
          -348 -897 rmoveto
          -85 callgsubr
          -37 callgsubr
          endchar
        </CharString>
        <CharString name="Ncommaaccent">
          107 -178 -21 220 18 callsubr
          hintmask 11100000
          273 -90 callgsubr
          -215 199 rmoveto
          -85 callgsubr
          rlineto
          hintmask 11010000
          -37 callgsubr
          endchar
        </CharString>
        <CharString name="Ndotaccent">
          107 -52 callsubr
          130 97 hstem
          512 820 -66 callgsubr
          -426 -820 rmoveto
          -85 callgsubr
          -37 callgsubr
          endchar
        </CharString>
        <CharString name="Ntilde">
          107 -52 callsubr
          135 -47 callsubr
          hintmask 11101000
          24 hmoveto
          -85 callgsubr
          -37 callgsubr
          367 115 -88 callgsubr
          hintmask 11010000
          -93 callgsubr
          hintmask 11101000
          -56 callgsubr
        </CharString>
        <CharString name="O">
          -37 callsubr
          -38 callsubr
          -82 callgsubr
          endchar
        </CharString>
        <CharString name="O.sc">
          -9 -4 57 441 57 hstem
          32 64 420 63 vstem
          247 -4 rmoveto
          173 159 159 165 118 -76 113 -137 -174 -160 -160 -165 -120 78 -110 137 hvcurveto
          13 57 rmoveto
          -105 -59 84 96 124 115 137 142 102 61 -84 -96 -123 -113 -138 -143 hvcurveto
          endchar
        </CharString>
        <CharString name="OE">
          465 0 62 -46 -21 336 62 259 58 5 -20 hstemhm
          46 71 hintmask 01110100
          297 -5 rmoveto
          111 110 80 105 66 hvcurveto
          hintmask 10110100
          -39 -180 rlineto
          449 -77 callsubr
          -379 hlineto
          57 269 rlineto
          319 hlineto
          14 62 rlineto
          -319 hlineto
          53 255 rlineto
          371 hlineto
          14 62 rlineto
          -441 hlineto
          -38 -180 rlineto
          hintmask 01101100
          102 -20 -73 83 -115 hhcurveto
          -207 -197 -210 -217 -153 90 -140 161 hvcurveto
          12 63 rmoveto
          -123 -69 110 126 hvcurveto
          hintmask 10110100
          170 144 188 175 121 70 -111 -126 -168 -143 -189 -175 vhcurveto
          endchar
        </CharString>
        <CharString name="Oacute">
          -42 callgsubr
          576 917 -89 callsubr
          -175 -812 -106 callgsubr
          endchar
        </CharString>
        <CharString name="Obreve">
          -37 callsubr
          101 -6 callgsubr
          46 71 271 43 197 70 hintmask 11101110
          -82 callgsubr
          162 793 -46 callsubr
          hintmask 11011110
          -98 callgsubr
          hintmask 11101110
          -59 callgsubr
        </CharString>
        <CharString name="Ocircumflex">
          -42 callgsubr
          396 811 -100 callgsubr
          -66 -837 -106 callgsubr
          endchar
        </CharString>
        <CharString name="Odblgrave">
          -37 callsubr
          203 9 callsubr
          546 808 -89 callgsubr
          -73 -923 -106 callgsubr
          endchar
        </CharString>
        <CharString name="Odieresis">
          -37 callsubr
          105 94 -38 callsubr
          430 820 -95 callgsubr
          -220 -825 -106 callgsubr
          endchar
        </CharString>
        <CharString name="Odotbelow">
          89 7 callgsubr
          63 63 593 64 -38 callsubr
          298 -44 callgsubr
          60 161 -106 callgsubr
          endchar
        </CharString>
        <CharString name="Ograve">
          -42 callgsubr
          -82 callgsubr
          171 749 -76 callgsubr
        </CharString>
        <CharString name="Ohungarumlaut">
          -42 callgsubr
          508 917 -64 callsubr
          -230 -812 -106 callgsubr
          endchar
        </CharString>
        <CharString name="Oinvertedbreve">
          -37 callsubr
          101 5 callsubr
          46 71 421 40 50 70 hintmask 11101110
          387 816 rmoveto
          40 hlineto
          hintmask 11011110
          -75 callgsubr
          hvcurveto
          hintmask 11101110
          -91 callsubr
          -91 -821 -106 callgsubr
          endchar
        </CharString>
        <CharString name="Omacron">
          -37 callsubr
          134 47 -38 callsubr
          618 849 -68 callsubr
          -47 -854 -106 callgsubr
          endchar
        </CharString>
        <CharString name="Omega">
          -76 callsubr
        </CharString>
        <CharString name="Oogonek">
          89 -155 -21 172 62 593 64 hstem
          46 71 59 44 408 70 vstem
          236 16 callgsubr
          200 10 185 205 209 vvcurveto
          151 -88 144 -160 -207 -197 -210 -217 -144 79 -132 143 -15 vhcurveto
          -64 -41 -28 -34 27 callgsubr
          74 234 rmoveto
          -124 -69 110 126 170 144 187 175 121 71 -110 -126 -168 -143 -189 -175 hvcurveto
          endchar
        </CharString>
        <CharString name="Oslash">
          89 -5 63 -37 -21 651 64 -5 -20 hstemhm
          46 71 511 70 hintmask 10011100
          637 710 rmoveto
          -40 -47 rlineto
          hintmask 01101100
          -14 callgsubr
          hintmask 10011100
          -15 callsubr
          hintmask 10101100
          -53 callsubr
          endchar
        </CharString>
        <CharString name="Oslashacute">
          89 -5 63 -37 -21 651 64 -5 -20 227 -20 hstemhm
          46 71 511 70 hintmask 10011110
          637 710 rmoveto
          -40 -47 rlineto
          hintmask 01101110
          -14 callgsubr
          hintmask 10011110
          -15 callsubr
          hintmask 10101110
          -53 callsubr
          267 859 -43 callsubr
        </CharString>
        <CharString name="Otilde">
          -37 callsubr
          110 -47 callsubr
          46 71 511 70 hintmask 11101110
          -82 callgsubr
          222 767 -88 callgsubr
          hintmask 11010110
          -93 callgsubr
          hintmask 11101110
          -56 callgsubr
        </CharString>
        <CharString name="P">
          -34 -9 callgsubr
          hstem
          542 71 vstem
          24 hmoveto
          69 hlineto
          56 262 rlineto
          216 hlineto
          134 114 136 127 94 -59 91 -99 hvcurveto
          -280 hlineto
          -13 -386 rmoveto
          69 324 rlineto
          206 hlineto
          62 43 -57 -72 -96 -76 -99 -92 hvcurveto
          endchar
        </CharString>
        <CharString name="P.sc">
          -110 21 -21 199 56 237 56 hstem
          444 64 vstem
          44 callgsubr
          42 199 rlineto
          179 hlineto
          113 93 104 98 75 -51 72 -86 hvcurveto
          -236 hlineto
          -293 vmoveto
          50 237 rlineto
          171 hlineto
          52 36 -42 -55 -71 -59 -69 -75 hvcurveto
          endchar
        </CharString>
        <CharString name="Q">
          88 -5 63 -63 223 -197 -21 652 63 hstemhm
          46 71 511 70 hintmask 00111100
          531 hmoveto
          70 hlineto
          -59 96 rlineto
          93 81 63 121 122 vvcurveto
          151 -87 144 -160 -208 -197 -210 -217 vhcurveto
          hintmask 10011100
          -153 90 -140 160 70 68 24 40 61 vhcurveto
          hintmask 00111100
          hintmask 10011100
          -185 -1 rmoveto
          -124 -69 110 126 170 144 188 175 121 71 -111 -126 -95 -46 -102 -71 -70 hvcurveto
          hintmask 01011100
          -42 70 -16 callsubr
          65 -109 rlineto
          hintmask 10011100
          -32 -46 -53 -19 -56 hhcurveto
          endchar
        </CharString>
        <CharString name="Q.sc">
          -10 -4 57 -57 179 -154 -21 495 56 hstemhm
          32 64 419 64 hintmask 00111100
          444 hmoveto
          62 hlineto
          -50 76 rlineto
          73 61 50 91 92 vvcurveto
          118 -76 113 -137 -173 -161 -160 -165 vhcurveto
          hintmask 10011100
          -120 78 -110 137 59 58 18 31 50 vhcurveto
          hintmask 00111100
          hintmask 10011100
          -154 8 rmoveto
          -105 -59 84 96 124 115 138 142 103 59 -85 -95 -69 -34 -73 -55 -51 hvcurveto
          hintmask 01011100
          -35 53 rlineto
          -63 hlineto
          56 -85 rlineto
          hintmask 10011100
          -23 -36 -43 -14 -45 hhcurveto
          endchar
        </CharString>
        <CharString name="R">
          -5 21 2 callsubr
          93 hmoveto
          -102 callsubr
          endchar
        </CharString>
        <CharString name="R.sc">
          -83 21 -21 199 56 237 56 hstem
          450 64 vstem
          44 callgsubr
          42 199 rlineto
          162 hlineto
          89 -199 rlineto
          72 hlineto
          -94 211 rlineto
          90 18 72 86 86 vvcurveto
          75 -51 72 -87 vhcurveto
          -241 hlineto
          -293 vmoveto
          50 237 rlineto
          176 hlineto
          53 36 -45 -53 -69 -62 -70 -73 hvcurveto
          endchar
        </CharString>
        <CharString name="Racute">
          1 callgsubr
          17 callsubr
          547 72 vstem
          509 919 -89 callsubr
          -311 -809 rmoveto
          -102 callsubr
          endchar
        </CharString>
        <CharString name="Rcaron">
          1 callgsubr
          17 callsubr
          547 72 vstem
          394 813 -92 callsubr
          -225 -899 rmoveto
          -102 callsubr
          endchar
        </CharString>
        <CharString name="Rcommaaccent">
          -5 -178 -21 220 2 callsubr
          217 -90 callgsubr
          -90 199 rmoveto
          -102 callsubr
          endchar
        </CharString>
        <CharString name="Rdblgrave">
          1 callgsubr
          208 -20 hstem
          547 72 vstem
          474 808 -89 callgsubr
          -204 -918 rmoveto
          -102 callsubr
          endchar
        </CharString>
        <CharString name="Rdotbelow">
          -5 7 callgsubr
          89 2 callsubr
          93 hmoveto
          -102 callsubr
          -132 -490 -83 callsubr
          endchar
        </CharString>
        <CharString name="Rinvertedbreve">
          1 callgsubr
          106 5 callsubr
          476 40 31 72 hintmask 11110110
          325 816 rmoveto
          40 hlineto
          hintmask 11101110
          -75 callgsubr
          hvcurveto
          hintmask 11110110
          -91 callsubr
          -232 -816 rmoveto
          -102 callsubr
          endchar
        </CharString>
        <CharString name="S">
          -48 -6 62 597 62 hstem
          99 76 278 77 vstem
          241 -6 -100 callsubr
          endchar
        </CharString>
        <CharString name="S.sc">
          -125 -5 55 446 55 hstem
          76 66 228 69 vstem
          200 -5 rmoveto
          134 105 58 120 77 -65 27 -98 23 hvcurveto
          -89 21 -45 17 47 vvcurveto
          64 48 47 111 67 49 -23 -35 25 vhcurveto
          39 50 rlineto
          41 -38 -55 22 -75 hhcurveto
          -132 -105 -67 -117 -69 52 -28 96 -22 hvcurveto
          94 -21 52 -20 -52 vvcurveto
          -68 -62 -37 -94 -87 -64 33 42 -32 vhcurveto
          -42 -52 rlineto
          -51 52 73 -27 86 hhcurveto
          endchar
        </CharString>
        <CharString name="Sacute">
          -21 callgsubr
          512 933 -89 callsubr
          -166 -829 -100 callsubr
          endchar
        </CharString>
        <CharString name="Scaron">
          -21 callgsubr
          381 827 -92 callsubr
          -64 -919 -100 callsubr
          endchar
        </CharString>
        <CharString name="Schwa">
          73 -6 63 265 61 267 65 hstem
          28 69 509 76 vstem
          282 -6 rmoveto
          203 197 197 233 163 -98 128 -149 -116 -128 -72 -102 -67 hvcurveto
          60 -30 rlineto
          82 44 98 57 90 hhcurveto
          113 77 -93 -129 -16 -2 -14 -1 -15 hvcurveto
          -556 hlineto
          -7 -20 -12 -37 -50 vvcurveto
          -160 102 -122 152 vhcurveto
          13 63 rmoveto
          -130 -68 96 111 19 2 20 4 19 hvcurveto
          488 hlineto
          -151 -38 -126 -114 -132 hhcurveto
          endchar
        </CharString>
        <CharString name="Scircumflex">
          -21 callgsubr
          332 827 -100 callgsubr
          -57 -854 -100 callsubr
          endchar
        </CharString>
        <CharString name="Sdotbelow">
          -48 7 callgsubr
          62 62 597 62 hstem
          99 76 278 77 vstem
          241 -6 -100 callsubr
          -6 -160 -83 callsubr
          endchar
        </CharString>
        <CharString name="T">
          -51 21 -21 648 62 hstem
          191 hmoveto
          69 -69 callgsubr
        </CharString>
        <CharString name="T.sc">
          -124 21 -21 492 56 hstem
          159 hmoveto
          63 hlineto
          104 492 rlineto
          199 hlineto
          12 56 rlineto
          -462 hlineto
          -12 -56 rlineto
          201 hlineto
          endchar
        </CharString>
        <CharString name="Tbar">
          -16 21 -21 366 39 243 62 hstem
          78 366 rmoveto
          208 hlineto
          -78 -366 rlineto
          69 hlineto
          77 366 rlineto
          209 hlineto
          8 39 rlineto
          -208 hlineto
          52 243 rlineto
          239 -77 callsubr
          -547 hlineto
          -13 -62 rlineto
          239 hlineto
          -52 -243 rlineto
          -208 hlineto
          endchar
        </CharString>
        <CharString name="Tcaron">
          -51 21 -21 648 62 207 -20 hstem
          367 811 -92 callsubr
          -100 -897 rmoveto
          69 -69 callgsubr
        </CharString>
        <CharString name="Tdotbelow">
          -51 7 callgsubr
          89 -21 648 62 hstem
          221 -44 callgsubr
          32 166 rmoveto
          69 -69 callgsubr
        </CharString>
        <CharString name="Thorn">
          -54 21 -21 121 63 323 62 -62 203 hstemhm
          495 70 hintmask 11101000
          24 hmoveto
          69 hlineto
          26 121 rlineto
          198 hlineto
          135 113 135 128 95 -58 90 -100 hvcurveto
          -193 hlineto
          hintmask 11011000
          30 141 -16 callsubr
          -43 -526 rmoveto
          69 323 rlineto
          189 hlineto
          63 42 -59 -71 -92 -75 -101 -92 hvcurveto
          endchar
        </CharString>
        <CharString name="U">
          91 -5 63 652 -83 callgsubr
          endchar
        </CharString>
        <CharString name="U.sc">
          -9 -4 57 495 -20 hstem
          57 64 vstem
          248 -4 rmoveto
          174 92 127 148 31 hvcurveto
          59 277 13 callgsubr
          -59 -277 rlineto
          -108 -23 -63 -110 -138 hhcurveto
          -103 -35 63 80 24 4 25 5 26 hvcurveto
          58 277 13 callgsubr
          -59 -277 rlineto
          -6 -29 -4 -30 -28 vvcurveto
          -104 50 -84 141 vhcurveto
          endchar
        </CharString>
        <CharString name="Uacute">
          26 callgsubr
          563 917 -89 callsubr
          -160 -812 -107 callsubr
          endchar
        </CharString>
        <CharString name="Ubreve">
          -36 callgsubr
          126 -6 callgsubr
          75 70 238 43 hintmask 11101100
          -101 callgsubr
          169 856 -46 callsubr
          hintmask 11011100
          -98 callgsubr
          hintmask 11101100
          -59 callgsubr
        </CharString>
        <CharString name="Ucircumflex">
          26 callgsubr
          386 811 -100 callgsubr
          -54 -837 -107 callsubr
          endchar
        </CharString>
        <CharString name="Udblgrave">
          -36 callgsubr
          228 -20 hstem
          75 70 vstem
          529 808 -89 callgsubr
          -54 -923 -107 callsubr
          endchar
        </CharString>
        <CharString name="Udieresis">
          -36 callgsubr
          130 94 hstem
          75 70 vstem
          423 820 -95 callgsubr
          -211 -825 -107 callsubr
          endchar
        </CharString>
        <CharString name="Udotbelow">
          91 7 callgsubr
          63 63 652 -83 callgsubr
          -7 -161 -83 callsubr
          endchar
        </CharString>
        <CharString name="Ugrave">
          91 -5 63 652 -20 227 -83 callgsubr
          170 812 -76 callgsubr
        </CharString>
        <CharString name="Uhungarumlaut">
          91 -5 63 652 -20 227 -83 callgsubr
          195 922 -64 callsubr
          endchar
        </CharString>
        <CharString name="Uinvertedbreve">
          -36 callgsubr
          126 5 callsubr
          75 70 384 40 hintmask 11101100
          378 816 rmoveto
          40 hlineto
          hintmask 11011100
          -75 callgsubr
          hvcurveto
          hintmask 11101100
          -91 callsubr
          -80 -821 -107 callsubr
          endchar
        </CharString>
        <CharString name="Umacron">
          -36 callgsubr
          159 47 -90 callsubr
          313 854 -68 callsubr
          endchar
        </CharString>
        <CharString name="Uogonek">
          91 -155 -21 172 62 652 -20 hstem
          75 70 33 44 vstem
          238 16 callgsubr
          196 8 108 161 39 187 75 358 rcurveline
          -77 callgsubr
          -145 -30 -79 -149 -169 hhcurveto
          -123 -42 81 103 35 5 37 8 38 hvcurveto
          76 -73 callsubr
          -9 -42 -5 -41 -39 vvcurveto
          -122 50 -100 144 -12 vhcurveto
          -64 -41 -27 -33 27 callgsubr
          endchar
        </CharString>
        <CharString name="Uring">
          -36 callgsubr
          96 27 77 27 hstem
          75 70 258 33 80 32 vstem
          403 839 -88 callsubr
          -186 -895 -107 callsubr
          endchar
        </CharString>
        <CharString name="Utilde">
          -36 callgsubr
          135 -47 callsubr
          75 70 hintmask 11101100
          -101 callgsubr
          227 830 -88 callgsubr
          hintmask 11010100
          -93 callgsubr
          hintmask 11101100
          -56 callgsubr
        </CharString>
        <CharString name="V">
          15 3 callsubr
          226 hmoveto
          62 hlineto
          430 0 callsubr
          -73 hlineto
          -369 -623 -106 623 rlineto
          -73 hlineto
          endchar
        </CharString>
        <CharString name="V.sc">
          -72 17 callgsubr
          186 hmoveto
          55 hlineto
          352 548 rlineto
          -67 hlineto
          -293 -461 -100 461 rlineto
          -66 hlineto
          endchar
        </CharString>
        <CharString name="W">
          364 3 callsubr
          229 hmoveto
          -91 callgsubr
          endchar
        </CharString>
        <CharString name="W.alt">
          376 3 callsubr
          164 hmoveto
          73 hlineto
          322 597 75 -597 rlineto
          73 hlineto
          366 0 callsubr
          -79 hlineto
          -308 -609 -65 609 rlineto
          -76 hlineto
          -318 -609 -50 609 rlineto
          -77 hlineto
          endchar
        </CharString>
        <CharString name="W.sc">
          224 17 callgsubr
          189 hmoveto
          56 hlineto
          173 264 61 -264 rlineto
          54 hlineto
          357 548 -72 callgsubr
          -304 -472 -53 231 150 237 rlineto
          -60 hlineto
          -120 -192 -37 192 rlineto
          -59 hlineto
          49 -237 -150 -231 -104 472 -72 callgsubr
          endchar
        </CharString>
        <CharString name="Wacute">
          364 -20 callsubr
          694 917 -89 callsubr
          -360 -807 rmoveto
          -91 callgsubr
          endchar
        </CharString>
        <CharString name="Wcircumflex">
          364 -20 callsubr
          520 811 -100 callgsubr
          -257 -832 rmoveto
          -91 callgsubr
          endchar
        </CharString>
        <CharString name="Wdieresis">
          364 -52 callsubr
          130 94 hstem
          551 820 -95 callgsubr
          -408 -820 rmoveto
          -91 callgsubr
          endchar
        </CharString>
        <CharString name="Wgrave">
          364 -20 callsubr
          229 hmoveto
          -91 callgsubr
          492 97 -76 callgsubr
        </CharString>
        <CharString name="X">
          -29 3 callsubr
          -51 hmoveto
          79 hlineto
          274 300 147 -300 rlineto
          77 hlineto
          -176 350 335 360 rlineto
          -77 hlineto
          -284 -310 -153 310 rlineto
          -79 hlineto
          182 -360 rlineto
          endchar
        </CharString>
        <CharString name="X.sc">
          -104 17 callgsubr
          -44 hmoveto
          70 hlineto
          223 225 127 -225 rlineto
          69 hlineto
          -153 270 276 278 -32 callgsubr
          -230 -233 -132 233 -32 callgsubr
          158 -278 rlineto
          endchar
        </CharString>
        <CharString name="Y">
          -26 3 callsubr
          -84 callsubr
          endchar
        </CharString>
        <CharString name="Y.sc">
          -107 17 callgsubr
          163 hmoveto
          63 hlineto
          43 202 293 346 -16 callsubr
          -244 -290 -119 290 -72 callgsubr
          145 -345 rlineto
          endchar
        </CharString>
        <CharString name="Yacute">
          -26 -20 callsubr
          -84 callsubr
          243 651 -43 callsubr
        </CharString>
        <CharString name="Ycircumflex">
          -26 -20 callsubr
          -84 callsubr
          62 545 -65 callsubr
        </CharString>
        <CharString name="Ydieresis">
          -26 -52 callsubr
          130 94 hstem
          -84 callsubr
          106 554 -67 callsubr
        </CharString>
        <CharString name="Ygrave">
          -26 -20 callsubr
          -84 callsubr
          141 541 -76 callgsubr
        </CharString>
        <CharString name="Ytilde">
          -26 -52 callsubr
          135 -47 callsubr
          hintmask 11101000
          -84 callsubr
          197 559 -88 callgsubr
          hintmask 11010000
          -93 callgsubr
          hintmask 11101000
          -56 callgsubr
        </CharString>
        <CharString name="Z">
          -37 39 callgsubr
          hstem
          -36 hmoveto
          -24 callgsubr
        </CharString>
        <CharString name="Z.sc">
          -108 0 56 436 56 hstem
          -28 hmoveto
          451 hlineto
          12 56 rlineto
          -373 hlineto
          468 442 11 50 rlineto
          -446 hlineto
          -12 -56 rlineto
          372 hlineto
          -473 -443 rlineto
          endchar
        </CharString>
        <CharString name="Zacute">
          -37 1 callsubr
          495 917 -89 callsubr
          -426 -807 rmoveto
          -24 callgsubr
        </CharString>
        <CharString name="Zcaron">
          -37 1 callsubr
          372 811 -92 callsubr
          -332 -27 callsubr
          endchar
        </CharString>
        <CharString name="Zdotaccent">
          -37 39 callgsubr
          110 97 hstem
          -36 -57 callgsubr
          456 765 -66 callgsubr
          endchar
        </CharString>
        <CharString name="Zdotbelow">
          -37 7 callgsubr
          68 62 586 62 hstem
          -36 -57 callgsubr
          259 -221 -83 callsubr
          endchar
        </CharString>
        <CharString name="a">
          -72 callsubr
          hstemhm
          25 71 hintmask 10101000
          210 -10 rmoveto
          73 82 43 68 53 hvcurveto
          -8 -40 -3 -13 -11 vvcurveto
          hintmask 01011000
          -103 callsubr
          hintmask 10101000
          -105 callgsubr
          endchar
        </CharString>
        <CharString name="a.alt">
          -37 -10 60 -29 -21 470 60 hstemhm
          24 72 hintmask 10110000
          209 -10 rmoveto
          80 73 46 69 51 hvcurveto
          hintmask 01110000
          -22 -105 -16 callgsubr
          110 517 -72 callgsubr
          -23 -106 rlineto
          69 -21 -57 50 -82 hhcurveto
          -148 -146 -153 -170 hvcurveto
          hintmask 10110000
          -117 68 -100 117 vhcurveto
          28 60 rmoveto
          -89 -52 76 91 119 106 134 121 75 53 -57 -77 11 hvcurveto
          -34 -158 rlineto
          -72 -43 -71 -56 -77 hhcurveto
          endchar
        </CharString>
        <CharString name="a.alt2">
          -114 -10 52 -21 -21 266 43 170 51 hstemhm
          -4 67 332 68 hintmask 10111100
          130 -10 rmoveto
          73 79 29 63 58 hvcurveto
          hintmask 01111100
          -17 -82 rlineto
          66 hlineto
          68 323 rlineto
          4 19 2 20 18 vvcurveto
          91 -54 59 -109 -68 -70 -29 -39 -63 vhcurveto
          13 -45 rlineto
          40 63 58 22 51 hhcurveto
          71 40 -42 -66 -13 -1 -14 -3 -15 hvcurveto
          -11 -47 rlineto
          12 -23 -48 15 -68 hhcurveto
          -110 -135 -55 -131 hvcurveto
          hintmask 10111100
          -75 53 -58 81 vhcurveto
          28 52 rmoveto
          -54 -41 38 56 95 101 35 77 44 46 -9 -18 40 hvcurveto
          -18 -85 -3 -12 -9 -13 -13 -14 rlinecurve
          -49 -43 -71 -24 -56 hhcurveto
          endchar
        </CharString>
        <CharString name="aacute">
          -72 callsubr
          229 43 callgsubr
          hintmask 10101100
          210 -10 rmoveto
          73 82 43 68 53 hvcurveto
          -8 -40 -3 -13 -11 vvcurveto
          hintmask 01011100
          -103 callsubr
          hintmask 10101100
          -105 callgsubr
          217 680 -43 callsubr
        </CharString>
        <CharString name="abreve">
          -72 callsubr
          128 -6 callgsubr
          25 71 172 43 hintmask 10101011
          210 -10 rmoveto
          73 82 43 68 53 hvcurveto
          -8 -40 -3 -13 -11 vvcurveto
          hintmask 01011011
          -103 callsubr
          hintmask 10101011
          -105 callgsubr
          114 614 -46 callsubr
          hintmask 10100111
          -98 callgsubr
          hintmask 10101011
          -59 callgsubr
        </CharString>
        <CharString name="acircumflex">
          -72 callsubr
          229 43 callgsubr
          hintmask 10101100
          210 -10 rmoveto
          73 82 43 68 53 hvcurveto
          -8 -40 -3 -13 -11 vvcurveto
          hintmask 01011100
          -103 callsubr
          hintmask 10101100
          -105 callgsubr
          32 574 -65 callsubr
        </CharString>
        <CharString name="acute">
          -421 -11 callsubr
          179 730 -43 callsubr
        </CharString>
        <CharString name="adblgrave">
          -72 callsubr
          229 43 callgsubr
          hintmask 10101100
          210 -10 rmoveto
          73 82 43 68 53 hvcurveto
          -8 -40 -3 -13 -11 vvcurveto
          hintmask 01011100
          -103 callsubr
          hintmask 10101100
          -105 callgsubr
          161 570 -33 callsubr
        </CharString>
        <CharString name="adieresis">
          -72 callsubr
          132 94 13 callsubr
          hintmask 10101100
          210 -10 rmoveto
          73 82 43 68 53 hvcurveto
          -8 -40 -3 -13 -11 vvcurveto
          hintmask 01011100
          -103 callsubr
          hintmask 10101100
          -105 callgsubr
          70 583 -67 callsubr
        </CharString>
        <CharString name="ae">
          254 41 callsubr
          hstemhm
          -4 67 285 66 378 66 hintmask 11011110
          134 -10 -74 callsubr
          hintmask 10111110
          -50 callgsubr
          hintmask 11011110
          -3 callgsubr
        </CharString>
        <CharString name="aeacute">
          252 41 callsubr
          19 callsubr
          hstemhm
          -5 67 285 66 378 66 hintmask 11011111
          606 730 -89 callsubr
          -368 -630 -74 callsubr
          hintmask 10111111
          -50 callgsubr
          hintmask 11011111
          -3 callgsubr
        </CharString>
        <CharString name="afii61352">
          457 21 -21 348 48 267 49 -2 -20 hstemhm
          769 58 237 58 hintmask 11011100
          528 hmoveto
          60 hlineto
          -60 callgsubr
          -70 hlineto
          -125 -590 -37 callgsubr
          -151 -710 rlineto
          70 hlineto
          123 580 rlineto
          691 -232 rmoveto
          117 98 105 111 hvcurveto
          hintmask 11101100
          82 -52 66 -86 -117 -98 -104 -113 -79 50 -68 88 vhcurveto
          -80 154 rmoveto
          87 73 74 74 53 37 -46 -60 -86 -74 -75 -73 -54 -36 46 60 vhcurveto
          endchar
        </CharString>
        <CharString name="agrave">
          -72 callsubr
          229 43 callgsubr
          hintmask 10101100
          210 -10 rmoveto
          73 82 43 68 53 hvcurveto
          -8 -40 -3 -13 -11 vvcurveto
          hintmask 01011100
          -103 callsubr
          hintmask 10101100
          -105 callgsubr
          102 570 -76 callgsubr
        </CharString>
        <CharString name="ainvertedbreve">
          -72 callsubr
          128 5 callsubr
          25 71 311 40 hintmask 10101011
          210 -10 rmoveto
          73 82 43 68 53 hvcurveto
          -8 -40 -3 -13 -11 vvcurveto
          hintmask 01011011
          -103 callsubr
          hintmask 10101011
          -105 callgsubr
          18 579 rmoveto
          40 hlineto
          hintmask 10100111
          -75 callgsubr
          hvcurveto
          hintmask 10101011
          -91 callsubr
          endchar
        </CharString>
        <CharString name="amacron">
          -72 callsubr
          161 47 13 callsubr
          hintmask 10101100
          210 -10 rmoveto
          73 82 43 68 53 hvcurveto
          -8 -40 -3 -13 -11 vvcurveto
          hintmask 01011100
          -103 callsubr
          hintmask 10101100
          -105 callgsubr
          266 612 -68 callsubr
          endchar
        </CharString>
        <CharString name="ampersand">
          38 -10 56 -25 -21 361 55 250 53 hstemhm
          18 67 66 64 hintmask 01111100
          480 hmoveto
          86 hlineto
          -113 161 39 56 30 68 21 76 rlinecurve
          99 hlineto
          12 55 rlineto
          -160 hlineto
          -14 -78 -26 -71 -34 -58 -144 206 rcurveline
          -47 67 -14 38 30 vvcurveto
          61 62 55 70 55 47 -39 -55 21 vhcurveto
          47 42 rlineto
          65 -28 -59 40 -72 hhcurveto
          -110 -97 -81 -98 -39 16 -40 40 -61 hvcurveto
          -108 -66 -81 -71 -108 vvcurveto
          hintmask 10111100
          -96 69 -69 98 79 79 42 72 65 vhcurveto
          hintmask 01111100
          hintmask 10111100
          -209 -58 rmoveto
          -65 -49 44 73 77 58 58 93 58 hvcurveto
          142 -207 rlineto
          -64 -53 -63 -39 -63 hhcurveto
          endchar
        </CharString>
        <CharString name="aogonek">
          -35 -154 -21 165 37 callgsubr
          25 71 241 44 hintmask 11011100
          397 -175 rmoveto
          -61 callsubr
          13 60 rlineto
          -13 -6 5 11 4 1 5 1 4 hvcurveto
          92 432 -72 callgsubr
          -24 -109 rlineto
          hintmask 11101100
          65 -23 -55 53 -84 20 callgsubr
          -138 -157 -165 -117 69 -101 116 73 82 43 68 53 hvcurveto
          -8 -40 -3 -13 -11 vvcurveto
          -17 9 -13 18 -6 vhcurveto
          -68 -42 -29 -35 -38 -48 callsubr
          -159 225 rmoveto
          -85 -57 76 92 121 103 131 120 70 62 -59 -71 9 hvcurveto
          -33 -161 rlineto
          -71 -26 -97 -58 -66 hhcurveto
          endchar
        </CharString>
        <CharString name="apostrophe">
          -97 -11 callsubr
          323 620 rmoveto
          106 110 rlineto
          -93 hlineto
          -6 -34 -48 -59 rlineto
          endchar
        </CharString>
        <CharString name="approxequal">
          -191 173 52 -10 52 20 51 -9 51 hstemhm
          hintmask 10100000
          335 357 rmoveto
          -11 -10 -16 -8 -27 hhcurveto
          hintmask 10010000
          -52 -30 42 -59 hhcurveto
          -38 -24 -17 8 callgsubr
          17 20 18 hvcurveto
          -31 -81 rmoveto
          -11 -10 -16 -7 -27 hhcurveto
          hintmask 01100000
          -52 -30 42 -59 hhcurveto
          -38 -24 -18 8 callgsubr
          16 18 18 hvcurveto
          endchar
        </CharString>
        <CharString name="aring">
          -72 callsubr
          98 27 77 27 13 callsubr
          187 33 91 21 hintmask 1010111110000000
          210 -10 rmoveto
          73 82 43 68 53 hvcurveto
          -8 -40 -3 -13 -11 vvcurveto
          hintmask 0101111110000000
          -103 callsubr
          hintmask 1010111110000000
          -105 callgsubr
          45 602 -88 callsubr
          endchar
        </CharString>
        <CharString name="aringacute">
          -72 callsubr
          98 27 77 27 150 43 callgsubr
          187 33 91 21 hintmask 1010111111000000
          210 -10 rmoveto
          73 82 43 68 53 hvcurveto
          -8 -40 -3 -13 -11 vvcurveto
          hintmask 0101111111000000
          -103 callsubr
          hintmask 1010111111000000
          -105 callgsubr
          244 830 -89 callsubr
          -94 -118 -88 callsubr
          endchar
        </CharString>
        <CharString name="asciicircum">
          -92 324 -21 407 -20 hstem
          110 303 rmoveto
          169 343 166 -343 rlineto
          60 hlineto
          -197 407 -6 callsubr
          -198 -407 rlineto
          endchar
        </CharString>
        <CharString name="asciitilde">
          -141 241 45 13 45 hstem
          51 241 rmoveto
          43 hlineto
          2 24 56 46 vhcurveto
          47 35 -58 64 hhcurveto
          84 41 91 6 1 hvcurveto
          -42 hlineto
          -5 -25 -47 -50 vhcurveto
          -53 -34 58 -60 hhcurveto
          -76 -42 -90 -13 -3 hvcurveto
          endchar
        </CharString>
        <CharString name="asterisk">
          -320 545 -21 189 -20 hstem
          161 524 rmoveto
          55 65 26 -65 36 22 -29 62 70 22 -2 36 -73 -26 18 73 rlineto
          -41 hlineto
          -13 -73 -61 26 -18 -36 60 -22 -54 -62 rlineto
          endchar
        </CharString>
        <CharString name="at">
          170 -146 34 96 37 -18 41 369 42 114 34 hstemhm
          25 35 108 48 269 41 180 35 hintmask 1101111110000000
          560 21 rmoveto
          -23 -11 12 27 8 1 13 4 18 hvcurveto
          75 351 rlineto
          -45 hlineto
          -18 -88 rlineto
          55 -20 -46 38 -68 hhcurveto
          -125 -116 -130 -142 hvcurveto
          hintmask 1011111110000000
          -100 59 -80 94 59 63 30 43 44 vhcurveto
          -2 -10 0 -10 -8 vvcurveto
          hintmask 1101111110000000
          -47 25 -17 38 135 58 212 115 156 -107 136 -175 -207 -227 -191 -253 -179 113 -126 161 53 58 13 27 56 vhcurveto
          -5 32 rlineto
          -24 -52 -47 -14 -53 hhcurveto
          -153 -96 118 156 223 195 184 196 162 93 -126 -142 -112 -60 -168 -86 hvcurveto
          hintmask 1011111110000000
          -219 23 rmoveto
          -71 -54 63 88 119 98 99 93 55 47 -33 -70 20 hvcurveto
          -29 -154 rlineto
          -60 -23 -72 -52 -64 hhcurveto
          endchar
        </CharString>
        <CharString name="atilde">
          -72 callsubr
          137 -47 callsubr
          25 71 hintmask 10101011
          210 -10 rmoveto
          73 82 43 68 53 hvcurveto
          -8 -40 -3 -13 -11 vvcurveto
          hintmask 01011011
          -103 callsubr
          hintmask 10101011
          -105 callgsubr
          168 588 -88 callgsubr
          hintmask 10100101
          -93 callgsubr
          hintmask 10101011
          -56 callgsubr
        </CharString>
        <CharString name="b">
          -41 34 callsubr
          479 72 hintmask 10111000
          254 -10 rmoveto
          149 148 153 174 109 -59 104 -117 -79 -73 -48 -70 -59 hvcurveto
          68 318 -72 callgsubr
          hintmask 01111000
          -155 -730 rlineto
          60 hlineto
          22 101 rlineto
          hintmask 10111000
          -63 23 56 -48 84 hhcurveto
          -2 60 rmoveto
          -73 -62 51 69 -4 hvcurveto
          36 173 rlineto
          68 50 69 59 75 hhcurveto
          88 48 -79 -86 -130 -111 -125 -116 hvcurveto
          endchar
        </CharString>
        <CharString name="backslash">
          -99 3 callsubr
          107 710 rmoveto
          263 -710 rlineto
          76 hlineto
          -262 0 callsubr
          endchar
        </CharString>
        <CharString name="bar">
          -345 -109 -21 905 -20 hstem
          119 60 vstem
          179 -130 rmoveto
          905 -60 -905 vlineto
          endchar
        </CharString>
        <CharString name="braceleft">
          -382 -10 -21 771 -20 hstem
          285 683 rmoveto
          12 57 rlineto
          -93 hlineto
          -6 -17 -5 -25 -5 hvcurveto
          -57 -270 rlineto
          -17 -3 -19 -36 -27 hhcurveto
          -11 -52 rlineto
          18 -2 9 -17 -20 vvcurveto
          -6 0 -5 -1 -5 vhcurveto
          -60 -281 rlineto
          -1 -4 0 -4 -3 vvcurveto
          -14 8 -5 8 vhcurveto
          93 hlineto
          12 57 rlineto
          -52 hlineto
          58 272 rlineto
          1 5 0 6 6 vvcurveto
          16 -3 17 -11 12 vhcurveto
          24 19 12 27 3 16 56 261 rcurveline
          endchar
        </CharString>
        <CharString name="braceright">
          -383 -10 -21 771 -20 hstem
          181 683 rmoveto
          -56 -261 rlineto
          -1 -5 -1 -6 -7 vvcurveto
          -15 4 -16 10 -13 vhcurveto
          -23 -18 -12 -29 -3 -15 -58 -272 rcurveline
          -53 hlineto
          -12 -57 rlineto
          93 hlineto
          9 15 7 23 5 hvcurveto
          59 281 5 26 19 26 25 3 rlinecurve
          11 52 rlineto
          -21 -7 22 18 4 1 5 1 4 hvcurveto
          58 270 rlineto
          1 3 0 3 3 vvcurveto
          17 -12 4 -5 vhcurveto
          -93 hlineto
          -11 -57 rlineto
          endchar
        </CharString>
        <CharString name="bracketleft">
          -382 -19 -21 780 -20 hstem
          131 -40 rmoveto
          12 57 rlineto
          -54 hlineto
          142 666 rlineto
          53 hlineto
          12 57 rlineto
          -116 hlineto
          -166 -780 rlineto
          endchar
        </CharString>
        <CharString name="bracketright">
          -383 -19 -21 780 -20 hstem
          92 -40 rmoveto
          165 780 rlineto
          -116 hlineto
          -12 -57 rlineto
          53 hlineto
          -142 -666 rlineto
          -53 hlineto
          -12 -57 rlineto
          endchar
        </CharString>
        <CharString name="breve">
          -363 629 -6 callgsubr
          59 43 hintmask 10100000
          143 664 -46 callsubr
          hintmask 01100000
          -98 callgsubr
          hintmask 10100000
          -59 callgsubr
        </CharString>
        <CharString name="brokenbar">
          -351 -109 -21 905 -20 hstem
          116 60 vstem
          116 277 rmoveto
          -407 60 407 vlineto
          -60 498 rmoveto
          -407 60 407 vlineto
          endchar
        </CharString>
        <CharString name="bullet">
          -292 256 179 hstem
          91 175 vstem
          266 361 rmoveto
          41 -27 33 -42 -52 -54 -49 -56 -42 28 -32 40 54 53 49 56 vhcurveto
          endchar
        </CharString>
        <CharString name="c">
          -107 -41 callsubr
          hstem
          25 70 vstem
          223 -10 -93 callsubr
          endchar
        </CharString>
        <CharString name="c_t">
          207 -6 56 -39 -21 480 60 -9 -20 209 37 hstemhm
          24 70 351 35 87 74 38 69 hintmask 0110111110000000
          222 -10 rmoveto
          87 101 47 82 47 hvcurveto
          -62 20 rlineto
          hintmask 1010111110000000
          -55 -28 -80 -34 -53 hhcurveto
          -84 -56 76 93 117 100 134 124 61 45 -26 -59 19 hvcurveto
          70 21 rlineto
          -6 29 -27 79 61 vvcurveto
          69 40 66 79 61 19 -30 -45 vhcurveto
          hintmask 1001111110000000
          -32 -9 -39 -9 -43 vhcurveto
          -69 43 callsubr
          69 hlineto
          -80 -373 rlineto
          -2 -9 -1 -9 -7 vvcurveto
          -50 37 -25 50 49 43 19 12 28 vhcurveto
          -5 55 rlineto
          -8 -17 -31 -15 -32 hhcurveto
          -27 -21 14 30 3 0 5 1 4 hvcurveto
          75 354 rlineto
          112 hlineto
          12 54 rlineto
          -112 hlineto
          10 48 9 43 35 vvcurveto
          61 -27 39 -97 -111 -68 -77 -91 -35 10 -34 8 -24 vhcurveto
          hintmask 0110111110000000
          28 -30 -38 16 -62 hhcurveto
          -174 -135 -163 -157 -115 71 -105 127 hvcurveto
          endchar
        </CharString>
        <CharString name="cacute">
          -107 -41 callsubr
          -7 callsubr
          25 70 vstem
          443 730 -89 callsubr
          -115 -630 -93 callsubr
          endchar
        </CharString>
        <CharString name="caron">
          -317 645 -21 106 -20 hstem
          143 624 -92 callsubr
          endchar
        </CharString>
        <CharString name="caron.alt">
          -421 -11 callsubr
          95 -38 callgsubr
          endchar
        </CharString>
        <CharString name="ccaron">
          -107 -41 callsubr
          -7 callsubr
          25 70 vstem
          327 624 -92 callsubr
          -28 -720 -93 callsubr
          endchar
        </CharString>
        <CharString name="ccedilla">
          -107 12 callsubr
          36 59 420 60 hstem
          25 70 167 38 vstem
          95 -157 rmoveto
          -78 callsubr
          33 42 93 4 87 52 42 72 rlinecurve
          -63 20 rlineto
          -48 -24 -74 -41 -63 hhcurveto
          -82 -56 74 95 137 111 114 116 59 46 -32 -53 16 hvcurveto
          70 21 rlineto
          76 -19 -63 48 -94 hhcurveto
          -170 -142 -151 -169 -113 64 -93 108 -12 hvcurveto
          -56 -79 -79 callsubr
          endchar
        </CharString>
        <CharString name="ccircumflex">
          -107 -41 callsubr
          -7 callsubr
          25 70 vstem
          277 624 -100 callgsubr
          -20 -655 -93 callsubr
          endchar
        </CharString>
        <CharString name="cdotaccent">
          -107 -41 callsubr
          103 97 hstem
          25 70 vstem
          223 -10 -93 callsubr
          166 643 -66 callgsubr
          endchar
        </CharString>
        <CharString name="cedilla">
          -363 12 callsubr
          63 -20 hstem
          154 38 vstem
          -13 -157 rmoveto
          -78 callsubr
          45 56 -30 13 -76 -105 -79 callsubr
          endchar
        </CharString>
        <CharString name="cent">
          -93 -99 -21 110 61 417 61 116 -20 hstem
          29 70 vstem
          212 -120 rmoveto
          24 110 rlineto
          68 109 43 86 49 hvcurveto
          -63 20 -24 -51 -77 -34 -49 -3 rlinecurve
          88 417 53 -3 41 -26 17 -54 rlinecurve
          70 21 -21 74 -54 46 -93 3 rlinecurve
          25 116 rlineto
          -36 hlineto
          -25 -116 rlineto
          -163 -16 -122 -153 -149 vvcurveto
          -107 62 -104 109 -9 vhcurveto
          -24 -111 rlineto
          -77 338 rmoveto
          108 86 129 115 11 vhcurveto
          -87 -412 rlineto
          -71 12 -43 72 80 vvcurveto
          endchar
        </CharString>
        <CharString name="circumflex">
          -317 645 -21 106 -20 hstem
          91 624 -65 callsubr
        </CharString>
        <CharString name="colon">
          -448 21 -21 518 -20 hstem
          146 420 rmoveto
          12 callgsubr
          -31 -420 rmoveto
          21 98 rlineto
          -57 hlineto
          -22 -98 rlineto
          endchar
        </CharString>
        <CharString name="colonmonetary">
          -103 -120 170 -39 -21 480 175 -115 -20 hstemhm
          26 70 hintmask 10101000
          130 -120 rmoveto
          36 hlineto
          24 113 rlineto
          hintmask 01101000
          -2 11 11 -1 12 hhcurveto
          8 9 1 1 9 hvcurveto
          hintmask 10101000
          -24 -112 rlineto
          37 hlineto
          24 118 73 17 64 45 34 59 rlinecurve
          -62 20 rlineto
          -48 -25 -74 -41 -62 hhcurveto
          -83 -56 74 95 137 112 114 115 60 45 -32 -53 16 hvcurveto
          71 21 -15 58 -41 41 -59 17 rlinecurve
          26 123 rlineto
          -37 hlineto
          -25 -117 rlineto
          hintmask 10011000
          1 -8 -9 1 -9 hhcurveto
          -12 -11 -1 -1 -11 hvcurveto
          hintmask 10101000
          25 117 rlineto
          -36 hlineto
          -27 -124 rlineto
          -136 -35 -104 -132 -144 vvcurveto
          -97 48 -82 82 -30 vhcurveto
          endchar
        </CharString>
        <CharString name="comma">
          -411 -60 -21 179 -20 hstem
          39 -81 25 callsubr
          -35 -84 rlineto
          endchar
        </CharString>
        <CharString name="commaaccent">
          -484 -8 callsubr
          -20 hstem
          50 -90 callgsubr
          endchar
        </CharString>
        <CharString name="copyright">
          212 -7 33 97 59 347 60 93 33 hstem
          66 34 107 70 490 35 vstem
          -31 callsubr
          33 vmoveto
          -192 -141 141 187 188 142 140 191 192 142 -140 -189 -194 -146 -133 -188 hvcurveto
          7 97 rmoveto
          102 73 67 49 18 hvcurveto
          -65 19 rlineto
          -47 -22 -60 -29 -49 hhcurveto
          -72 -88 63 110 84 51 90 106 39 61 -13 -59 27 hvcurveto
          65 21 rlineto
          72 -30 -74 39 -88 hhcurveto
          -154 -73 -122 -112 -141 112 -91 121 hvcurveto
          endchar
        </CharString>
        <CharString name="currency">
          -71 146 -21 30 48 267 49 32 -20 hstem
          107 57 246 57 vstem
          105 551 rmoveto
          -33 -33 70 -71 rlineto
          -23 -31 -12 -38 -42 vvcurveto
          -41 13 -38 23 -32 vhcurveto
          -71 -71 29 -29 72 69 rlineto
          -24 31 38 -15 45 hhcurveto
          45 39 15 24 29 hvcurveto
          74 -69 30 29 -73 72 rlineto
          23 31 13 39 40 vvcurveto
          41 -13 39 -22 30 vhcurveto
          72 72 -34 33 -70 -71 rlineto
          24 -31 -38 15 -44 hhcurveto
          -44 -39 -14 -25 -29 hvcurveto
          -11 -145 rmoveto
          76 55 59 68 68 55 -58 -75 -74 -55 -60 -68 -68 -55 59 73 vhcurveto
          endchar
        </CharString>
        <CharString name="d">
          -35 -10 3 callgsubr
          hintmask 10111000
          211 -10 rmoveto
          -49 callsubr
          hintmask 01111000
          -23 17 -17 32 -52 callgsubr
          vhcurveto
          -85 callsubr
          hintmask 10111000
          -84 callgsubr
        </CharString>
        <CharString name="d.alt">
          -40 34 callsubr
          25 71 hintmask 10111000
          211 -10 rmoveto
          72 75 43 64 51 hvcurveto
          hintmask 01111000
          -20 -97 -16 callgsubr
          155 730 -72 callgsubr
          -68 -318 rlineto
          65 -27 -52 53 -83 20 callgsubr
          -138 -156 -166 hvcurveto
          hintmask 10111000
          5 callgsubr
          vhcurveto
          27 60 rmoveto
          -86 -56 76 93 119 103 132 121 67 66 -57 -73 7 hvcurveto
          -33 -161 rlineto
          -71 -24 -100 -58 -65 hhcurveto
          endchar
        </CharString>
        <CharString name="dagger">
          -238 -109 -21 370 62 473 -20 hstem
          139 -130 rmoveto
          78 370 rlineto
          125 -77 callsubr
          -125 hlineto
          101 473 rlineto
          -65 hlineto
          -101 -473 rlineto
          -125 hlineto
          -13 -62 rlineto
          125 hlineto
          -78 -370 rlineto
          endchar
        </CharString>
        <CharString name="daggerdbl">
          -237 -109 -21 289 63 110 63 380 -20 hstem
          140 -130 rmoveto
          61 289 rlineto
          125 hlineto
          13 63 rlineto
          -125 hlineto
          24 110 rlineto
          124 hlineto
          14 63 rlineto
          -125 hlineto
          81 380 rlineto
          -65 hlineto
          -81 -380 rlineto
          -125 hlineto
          -13 -63 rlineto
          125 hlineto
          -24 -110 rlineto
          -125 hlineto
          -13 -63 rlineto
          125 hlineto
          -61 -289 rlineto
          endchar
        </CharString>
        <CharString name="dcaron">
          -35 -10 3 callgsubr
          hintmask 10111000
          678 -38 callgsubr
          -425 -647 rmoveto
          -49 callsubr
          hintmask 01111000
          -23 17 -17 32 -52 callgsubr
          vhcurveto
          -85 callsubr
          hintmask 10111000
          -84 callgsubr
        </CharString>
        <CharString name="dcroat">
          -35 -10 60 -31 -21 472 60 80 46 -46 120 13 callsubr
          hintmask 10110100
          419 610 rmoveto
          99 hlineto
          -42 -198 -51 callsubr
          5 callgsubr
          -49 callsubr
          hintmask 01110100
          -23 17 -17 32 -52 callgsubr
          vhcurveto
          -47 callgsubr
          110 15 callgsubr
          76 hlineto
          9 46 rlineto
          -75 hlineto
          hintmask 10101100
          16 74 -72 callgsubr
          hintmask 10110100
          -16 -74 rlineto
          -99 hlineto
          -190 -606 rmoveto
          -87 -56 76 93 120 103 131 121 67 64 -58 -72 9 hvcurveto
          -33 -161 rlineto
          -71 -26 -98 -58 -64 hhcurveto
          endchar
        </CharString>
        <CharString name="ddotbelow">
          -35 7 callgsubr
          58 3 callgsubr
          hintmask 11011100
          228 -44 callgsubr
          45 156 rmoveto
          -49 callsubr
          hintmask 10111100
          -23 17 -17 32 -52 callgsubr
          vhcurveto
          -85 callsubr
          hintmask 11011100
          -84 callgsubr
        </CharString>
        <CharString name="degree">
          -374 558 39 87 40 hstem
          117 40 85 39 vstem
          181 558 rmoveto
          53 47 45 54 38 -25 29 -39 -55 -45 -51 -50 -38 26 -27 38 hvcurveto
          9 39 rmoveto
          -20 -13 14 22 28 26 23 26 20 13 -13 -22 -28 -28 -24 -24 hvcurveto
          endchar
        </CharString>
        <CharString name="dieresis">
          -314 633 94 hstem
          121 633 -67 callsubr
        </CharString>
        <CharString name="divide">
          -96 95 -21 180 57 179 -20 hstem
          234 59 vstem
          293 399 rmoveto
          91 -59 -91 vlineto
          59 -325 rmoveto
          90 -59 -90 vlineto
          231 180 rmoveto
          57 -403 -57 vlineto
          endchar
        </CharString>
        <CharString name="dollar">
          -39 -82 -21 97 62 596 62 101 -20 hstem
          103 76 278 77 vstem
          591 633 rmoveto
          -42 49 -61 30 -82 3 21 100 rcurveline
          -36 hlineto
          -22 -101 rlineto
          -150 -8 -116 -89 -142 vvcurveto
          -86 66 -34 121 -31 vhcurveto
          -57 -267 -89 7 -70 41 -32 49 rlinecurve
          -47 -57 55 -62 75 -34 92 -6 rlinecurve
          -21 -98 rlineto
          36 hlineto
          21 97 rlineto
          158 3 123 76 150 vvcurveto
          100 -81 36 -121 27 vhcurveto
          56 267 76 -3 56 -30 26 -43 rlinecurve
          -89 -375 rmoveto
          -94 -76 -52 -120 vhcurveto
          56 261 rlineto
          90 -26 50 -28 -61 vvcurveto
          -278 295 rmoveto
          85 54 64 126 6 vhcurveto
          -55 -259 rlineto
          -83 22 -42 25 57 vvcurveto
          endchar
        </CharString>
        <CharString name="dotaccent">
          -477 633 97 hstem
          113 633 -66 callgsubr
          endchar
        </CharString>
        <CharString name="dotbelow">
          -476 7 callgsubr
          hstem
          75 -44 callgsubr
          endchar
        </CharString>
        <CharString name="dotlessi">
          21 -21 521 -20 -23 callsubr
          endchar
        </CharString>
        <CharString name="dotlessj">
          -181 61 641 -44 callsubr
          endchar
        </CharString>
        <CharString name="e">
          -63 callsubr
          -96 callgsubr
          endchar
        </CharString>
        <CharString name="eacute">
          -50 callsubr
          445 730 -89 callsubr
          -114 -630 -107 callgsubr
          endchar
        </CharString>
        <CharString name="ebreve">
          -63 callsubr
          99 -6 callgsubr
          25 69 179 43 127 62 hintmask 11110111
          -104 callsubr
          25 187 -46 callsubr
          hintmask 11101111
          -98 callgsubr
          hintmask 11110111
          -59 callgsubr
        </CharString>
        <CharString name="ecaron">
          -50 callsubr
          328 624 -92 callsubr
          -26 -720 -107 callgsubr
          endchar
        </CharString>
        <CharString name="ecircumflex">
          -50 callsubr
          280 624 -100 callgsubr
          -20 -655 -107 callgsubr
          endchar
        </CharString>
        <CharString name="edblgrave">
          -50 callsubr
          407 620 -89 callgsubr
          -4 -740 -107 callgsubr
          endchar
        </CharString>
        <CharString name="edieresis">
          -63 callsubr
          103 94 hstem
          -17 callsubr
          vstem
          311 633 -95 callgsubr
          -171 -643 -107 callgsubr
          endchar
        </CharString>
        <CharString name="edotaccent">
          -63 callsubr
          103 97 -96 callgsubr
          57 156 -66 callgsubr
          endchar
        </CharString>
        <CharString name="edotbelow">
          -99 7 callgsubr
          58 52 193 49 193 53 -96 callgsubr
          -108 -643 -83 callsubr
          endchar
        </CharString>
        <CharString name="egrave">
          -99 -10 52 193 49 193 53 200 -20 -96 callgsubr
          23 143 -76 callgsubr
        </CharString>
        <CharString name="eight">
          15 callsubr
          23 -23 71 hintmask 11111100
          217 -8 rmoveto
          143 142 97 140 72 -43 56 -57 23 hvcurveto
          hintmask 11111001
          -30 callsubr
          16 61 rmoveto
          -70 -68 47 77 103 108 71 91 hvcurveto
          hintmask 11111100
          70 69 -46 -78 -104 -110 -70 -90 hvcurveto
          74 352 rmoveto
          -59 -61 37 65 86 88 55 83 hvcurveto
          40 callsubr
          hvcurveto
          endchar
        </CharString>
        <CharString name="eight.denominator">
          -249 -5 44 callsubr
          126 42 hstemhm
          -4 -28 callsubr
          hintmask 11111100
          125 -5 -17 callgsubr
          hintmask 11111001
          -86 callgsubr
          hintmask 11111100
          -69 callsubr
          hintmask 11111010
          -19 callgsubr
          endchar
        </CharString>
        <CharString name="eight.lnum">
          15 callsubr
          71 hintmask 11111100
          502 229 rmoveto
          72 -43 56 -57 23 vhcurveto
          hintmask 11111010
          -30 callsubr
          hintmask 11111100
          143 142 97 140 hvcurveto
          -69 -2 rmoveto
          -104 -110 -70 -90 -70 -68 47 77 103 108 71 91 70 69 -46 -78 vhcurveto
          -246 280 rmoveto
          86 88 55 83 vhcurveto
          40 callsubr
          -59 -61 37 65 hvcurveto
          endchar
        </CharString>
        <CharString name="eight.numerator">
          -250 326 44 callsubr
          125 43 hstemhm
          66 46 9 45 167 44 -21 45 hintmask 11111100
          377 458 rmoveto
          42 -28 30 -40 15 vhcurveto
          hintmask 11111010
          50 16 42 33 49 vvcurveto
          54 -57 33 -61 -73 -89 -44 -70 -34 26 -25 31 -12 vhcurveto
          -54 -18 -58 -38 -61 vvcurveto
          -56 51 -46 79 vhcurveto
          hintmask 11111100
          92 89 55 77 hvcurveto
          -44 -1 rmoveto
          -52 -68 -35 -57 -47 -49 25 42 52 67 36 60 47 -4 callgsubr
          -40 -41 20 35 hvcurveto
          endchar
        </CharString>
        <CharString name="eightinferior">
          -249 -85 44 callsubr
          126 42 hstemhm
          -21 46 9 45 166 45 -22 47 hintmask 11111100
          290 47 rmoveto
          42 -28 30 -41 15 vhcurveto
          hintmask 11111010
          50 16 44 33 49 vvcurveto
          54 -59 33 -61 -73 -88 -44 -70 -34 25 -25 31 -12 vhcurveto
          -54 -17 -57 -39 -61 vvcurveto
          -56 50 -46 79 vhcurveto
          hintmask 11111100
          92 90 55 77 hvcurveto
          -45 -1 rmoveto
          -52 -67 -35 -58 -47 -48 25 41 53 67 36 59 47 47 -26 -42 vhcurveto
          -166 159 rmoveto
          44 53 28 54 vhcurveto
          hintmask 11111010
          44 38 -21 -34 -44 -61 -27 -47 -40 -41 20 34 hvcurveto
          endchar
        </CharString>
        <CharString name="eightsuperior">
          -250 406 44 callsubr
          125 43 hstemhm
          83 46 9 44 167 45 -22 46 hintmask 11111100
          394 538 rmoveto
          42 -29 30 -40 15 vhcurveto
          hintmask 11111010
          50 16 43 33 49 vvcurveto
          54 -58 33 -61 -73 -88 -44 -70 -34 25 -25 31 -12 vhcurveto
          -54 -18 -57 -38 -61 vvcurveto
          -56 50 -46 79 vhcurveto
          hintmask 11111100
          92 90 55 77 hvcurveto
          -45 -1 rmoveto
          -52 -67 -35 -58 -47 -48 25 42 52 66 36 61 46 -4 callgsubr
          -39 -42 20 35 hvcurveto
          endchar
        </CharString>
        <CharString name="einvertedbreve">
          -63 callsubr
          99 5 callsubr
          25 69 324 40 -15 62 hintmask 11110110
          267 629 rmoveto
          40 hlineto
          hintmask 11101110
          -75 callgsubr
          hvcurveto
          hintmask 11110110
          -91 callsubr
          -41 -639 rmoveto
          95 95 54 78 48 hvcurveto
          -56 17 rlineto
          -96 callsubr
          hintmask 11110101
          188 90 53 102 92 -74 48 -92 -179 -135 -155 -165 -122 73 -98 128 hvcurveto
          106 487 rmoveto
          60 51 -26 -60 -62 -55 -45 -158 -37 -40 2 3 -48 hvcurveto
          96 28 79 92 120 hhcurveto
          endchar
        </CharString>
        <CharString name="ellipsis">
          -184 0 98 hstem
          60 hmoveto
          12 callgsubr
          188 hmoveto
          21 98 rlineto
          -57 hlineto
          -21 -98 rlineto
          188 hmoveto
          12 callgsubr
          endchar
        </CharString>
        <CharString name="emacron">
          -63 callsubr
          132 47 -96 callgsubr
          165 185 -68 callsubr
          endchar
        </CharString>
        <CharString name="emdash">
          229 241 63 hstem
          785 241 rmoveto
          13 63 rlineto
          -734 hlineto
          -13 -63 rlineto
          endchar
        </CharString>
        <CharString name="emspace">
          238 endchar
        </CharString>
        <CharString name="endash">
          9 callgsubr
        </CharString>
        <CharString name="eng">
          -74 -181 61 141 16 callsubr
          hintmask 11101000
          242 -181 rmoveto
          75 87 66 92 19 hvcurveto
          69 328 rlineto
          8 38 5 33 30 vvcurveto
          77 -32 47 -81 -87 -93 -51 -76 -56 vhcurveto
          hintmask 11011000
          26 118 rlineto
          -63 hlineto
          -110 -521 rlineto
          -46 callgsubr
          hintmask 11101000
          86 42 93 63 75 hhcurveto
          52 26 -29 -63 -24 -3 -27 -7 -34 hvcurveto
          -68 -318 rlineto
          -53 -11 -53 -40 -43 hhcurveto
          -24 -24 5 19 -15 hvcurveto
          -43 -19 callsubr
          42 hhcurveto
          endchar
        </CharString>
        <CharString name="enspace">
          -82 endchar
        </CharString>
        <CharString name="eogonek">
          -99 -160 -21 171 52 193 49 193 53 hstem
          25 69 28 44 277 62 vstem
          182 21 callgsubr
          71 42 vhcurveto
          82 11 78 50 42 68 -56 17 rcurveline
          -96 callsubr
          188 90 53 102 92 -74 48 -92 -179 -135 -155 -165 -118 67 -95 120 -7 hvcurveto
          -63 -40 -27 -34 -36 -48 callsubr
          150 658 rmoveto
          60 51 -26 -60 -62 -55 -45 -158 -37 -40 2 3 -48 hvcurveto
          96 28 79 92 120 hhcurveto
          endchar
        </CharString>
        <CharString name="equal">
          -162 194 49 66 49 hstem
          380 194 rmoveto
          49 -301 -49 vlineto
          301 115 rmoveto
          49 -301 -49 vlineto
          endchar
        </CharString>
        <CharString name="estimated">
          -23 -10 32 233 34 210 32 hstem
          39 96 335 96 vstem
          302 22 rmoveto
          -67 -60 32 51 -40 hvcurveto
          150 431 vlineto
          152 -108 124 -156 -155 -108 -125 -146 -145 106 -125 157 100 68 36 47 47 vhcurveto
          -22 24 rlineto
          -41 -38 -63 -34 -92 hhcurveto
          477 vmoveto
          66 61 -33 -53 41 hvcurveto
          -124 -335 125 vlineto
          52 40 60 33 67 hhcurveto
          endchar
        </CharString>
        <CharString name="eth">
          -54 -10 60 367 57 256 -20 hstemhm
          21 70 364 87 -66 66 hintmask 11110100
          539 713 rmoveto
          -96 -56 -22 26 -26 25 -30 22 rlinecurve
          -94 hlineto
          48 -34 38 -33 28 -33 -111 -63 rcurveline
          15 -31 117 68 rlineto
          59 -82 11 -82 -83 vvcurveto
          69 -19 -63 48 -84 hhcurveto
          -145 -144 -133 -150 -112 80 -89 116 159 166 147 234 81 -21 96 -58 83 hvcurveto
          91 52 rlineto
          -463 -484 rmoveto
          116 110 102 112 vhcurveto
          hintmask 11111000
          84 58 -63 -82 -114 -110 -108 -113 -84 -57 66 83 hvcurveto
          endchar
        </CharString>
        <CharString name="etilde">
          -63 callsubr
          108 -47 callsubr
          -17 callsubr
          hintmask 11110111
          -104 callsubr
          79 161 -88 callgsubr
          hintmask 11101011
          -93 callgsubr
          hintmask 11110111
          -56 callgsubr
        </CharString>
        <CharString name="exclam">
          -385 0 112 605 -20 hstem
          143 228 rmoveto
          103 489 -72 callgsubr
          -103 -489 rlineto
          19 -228 rmoveto
          25 112 -16 callsubr
          -24 -112 rlineto
          endchar
        </CharString>
        <CharString name="exclamdown">
          -386 19 -21 605 112 hstem
          129 487 rmoveto
          -104 -489 -16 callgsubr
          104 489 rlineto
          -20 228 rmoveto
          -25 -112 rlineto
          70 hlineto
          23 112 rlineto
          endchar
        </CharString>
        <CharString name="f">
          -311 -191 -21 679 54 160 59 hstem
          -14 -212 rmoveto
          68 hlineto
          144 679 rlineto
          136 hlineto
          11 54 rlineto
          -135 hlineto
          3 16 rlineto
          93 20 43 51 60 hhcurveto
          25 27 -9 -14 14 hvcurveto
          31 49 rlineto
          20 -24 -36 13 -38 hhcurveto
          -90 -83 -78 -127 -18 hvcurveto
          -2 -14 rlineto
          -69 43 callsubr
          68 hlineto
          endchar
        </CharString>
        <CharString name="f_f">
          -71 -29 callsubr
          156 hlineto
          11 54 rlineto
          -155 hlineto
          3 16 rlineto
          68 14 46 75 80 hhcurveto
          38 15 -13 -9 10 hvcurveto
          30 49 rlineto
          8 -14 -21 25 -58 hhcurveto
          -59 -45 -26 -39 -35 41 callgsubr
          -65 -85 -89 -21 hvcurveto
          -1 -6 rlineto
          -69 43 callsubr
          68 hlineto
          80 54 rmoveto
          1 7 rlineto
          54 12 35 60 32 callgsubr
          -39 -7 -37 rrcurveto
          endchar
        </CharString>
        <CharString name="f_f_i">
          71 -29 callsubr
          181 28 callsubr
          -249 hlineto
          3 16 rlineto
          68 14 48 75 84 hhcurveto
          43 41 -17 -19 16 hvcurveto
          41 49 rlineto
          17 -22 -48 30 -65 hhcurveto
          -63 -51 -26 -39 -37 41 callgsubr
          -67 -91 -83 -19 hvcurveto
          -1 -6 rlineto
          -69 43 callsubr
          68 hlineto
          80 54 rmoveto
          1 7 rlineto
          52 10 37 62 32 callgsubr
          -41 -7 -35 rrcurveto
          endchar
        </CharString>
        <CharString name="f_f_l">
          150 0 55 -40 -21 473 54 121 59 -21 21 -21 60 hstemhm
          547 74 34 72 hintmask 01110011
          629 -6 rmoveto
          41 50 14 2 1 hvcurveto
          2 56 rlineto
          hintmask 10100111
          -2 -36 -11 -22 hhcurveto
          -30 -12 23 22 6 31 callsubr
          2 13 12 vvcurveto
          69 -47 48 -95 -63 -51 -24 -41 -38 vhcurveto
          hintmask 10101011
          13 -22 -28 13 -46 hhcurveto
          -100 -72 -82 -92 -22 hvcurveto
          -1 -6 rlineto
          -69 43 callsubr
          68 hlineto
          -99 -467 rlineto
          -18 callgsubr
          156 hlineto
          -99 -467 rlineto
          -18 callgsubr
          102 hlineto
          12 54 rlineto
          -102 hlineto
          2 9 rlineto
          78 17 43 72 79 hhcurveto
          58 22 -36 -42 -10 -2 -11 -2 -10 hvcurveto
          -99 -464 rlineto
          -4 -18 -1 -10 -12 vvcurveto
          hintmask 01110011
          -42 26 -31 56 vhcurveto
          -419 527 rmoveto
          1 8 rlineto
          54 10 46 59 70 hhcurveto
          21 25 -3 -16 17 hvcurveto
          -14 -23 -12 -40 -9 -39 rrcurveto
          endchar
        </CharString>
        <CharString name="f_i">
          -149 21 -21 467 54 159 60 hstem
          31 hmoveto
          -18 callgsubr
          180 28 callsubr
          -248 hlineto
          3 16 rlineto
          68 14 49 75 80 hhcurveto
          46 39 -16 -20 18 hvcurveto
          41 49 rlineto
          17 -20 -46 30 -69 hhcurveto
          -122 -85 -110 -95 -14 hvcurveto
          -2 -14 rlineto
          -69 43 callsubr
          68 hlineto
          endchar
        </CharString>
        <CharString name="f_l">
          -74 0 55 -40 -21 473 54 159 60 hstemhm
          323 75 34 71 hintmask 01111100
          403 -6 rmoveto
          44 49 14 2 2 hvcurveto
          2 56 rlineto
          hintmask 10111100
          -3 -10 -28 -8 -23 hhcurveto
          -29 -12 23 23 5 31 callsubr
          1 12 13 vvcurveto
          70 -46 47 -96 -115 -75 -83 -117 -25 vhcurveto
          -4 -19 rlineto
          -69 43 callsubr
          68 hlineto
          -99 -467 rlineto
          -18 callgsubr
          103 hlineto
          11 54 rlineto
          -102 hlineto
          2 13 rlineto
          80 17 46 66 74 hhcurveto
          62 21 -37 -41 -10 -2 -11 -2 -10 hvcurveto
          -100 -468 rlineto
          -4 -17 -1 -9 -10 vvcurveto
          hintmask 01111100
          -41 27 -32 53 vhcurveto
          endchar
        </CharString>
        <CharString name="five">
          -107 -149 61 339 61 196 63 hstem
          376 71 vstem
          157 -149 rmoveto
          148 142 117 162 108 -72 74 -106 -55 -53 -22 -37 -40 hvcurveto
          100 255 rlineto
          275 hlineto
          14 63 rlineto
          -326 hlineto
          -2 -144 -365 -35 -15 hvcurveto
          63 hlineto
          52 43 62 28 58 hhcurveto
          76 51 -54 -80 -116 -99 -89 -107 -72 -56 44 65 -21 hvcurveto
          -52 -34 rlineto
          -82 21 71 -54 96 hhcurveto
          endchar
        </CharString>
        <CharString name="five.denominator">
          -270 -5 18 callgsubr
          249 46 vstem
          109 -5 rmoveto
          97 89 64 90 62 -49 43 -72 -56 callsubr
          endchar
        </CharString>
        <CharString name="five.lnum">
          -96 -10 62 339 60 196 63 hstem
          411 71 vstem
          192 -10 rmoveto
          149 141 118 161 107 -72 75 -106 -55 -53 -21 -38 -41 hvcurveto
          101 255 rlineto
          275 hlineto
          14 63 rlineto
          -327 hlineto
          -1 -144 -365 -34 -15 hvcurveto
          63 hlineto
          51 43 62 29 58 hhcurveto
          76 51 -55 -80 -115 -99 -89 -107 -72 -56 43 66 -21 hvcurveto
          -52 -34 rlineto
          -83 22 70 -54 96 hhcurveto
          endchar
        </CharString>
        <CharString name="five.numerator">
          -270 326 18 callgsubr
          318 47 vstem
          243 585 -81 callgsubr
          endchar
        </CharString>
        <CharString name="fiveeighths">
          199 -5 44 callsubr
          95 42 -11 42 150 36 101 44 hstemhm
          323 47 74 -28 callsubr
          hintmask 1110111111000000
          248 585 -81 callgsubr
          -149 -589 -78 callgsubr
          502 -32 -17 callgsubr
          hintmask 1101111110010000
          -86 callgsubr
          hintmask 1101111111000000
          -69 callsubr
          hintmask 1110111110100000
          -19 callgsubr
          endchar
        </CharString>
        <CharString name="fiveinferior">
          -270 -85 18 callgsubr
          232 46 vstem
          157 174 rmoveto
          -56 callsubr
          97 89 64 90 62 -49 43 -72 hvcurveto
          endchar
        </CharString>
        <CharString name="fivesuperior">
          -270 406 18 callgsubr
          335 47 vstem
          260 665 -81 callgsubr
          endchar
        </CharString>
        <CharString name="florin">
          -128 -181 61 526 54 221 59 hstem
          37 -181 rmoveto
          76 85 64 92 20 hvcurveto
          92 431 rlineto
          135 hlineto
          12 54 rlineto
          -135 hlineto
          16 77 rlineto
          93 20 42 51 60 hhcurveto
          26 27 -9 -14 14 hvcurveto
          30 49 rlineto
          20 -23 -37 13 -38 hhcurveto
          -90 -73 -78 -127 -27 hvcurveto
          -15 -75 rlineto
          -70 43 callsubr
          69 hlineto
          -92 -433 rlineto
          -53 -11 -52 -40 -44 38 callgsubr
          -42 -19 callsubr
          41 hhcurveto
          endchar
        </CharString>
        <CharString name="four">
          -106 -127 240 -62 62 458 -20 hstemhm
          hintmask 10100000
          249 -127 rmoveto
          68 hlineto
          hintmask 01100000
          38 178 rlineto
          84 -77 callsubr
          -84 hlineto
          98 458 rlineto
          -54 hlineto
          -427 -460 -13 -60 rlineto
          315 hlineto
          hintmask 10100000
          -229 62 rmoveto
          324 351 -75 -351 rlineto
          endchar
        </CharString>
        <CharString name="four.denominator">
          -263 21 -21 103 44 252 -20 hstem
          177 hmoveto
          -65 callgsubr
          endchar
        </CharString>
        <CharString name="four.lnum">
          -87 21 -21 190 62 458 -20 hstem
          360 hmoveto
          40 190 rlineto
          84 hlineto
          14 62 rlineto
          -84 hlineto
          97 458 rlineto
          -47 hlineto
          -447 -459 -14 -61 rlineto
          329 hlineto
          -40 -190 rlineto
          -202 252 rmoveto
          337 352 -75 -352 rlineto
          endchar
        </CharString>
        <CharString name="four.numerator">
          -262 352 -21 103 43 253 -20 hstem
          293 331 -40 callgsubr
        </CharString>
        <CharString name="fourinferior">
          -263 -59 -21 103 44 252 -20 hstem
          204 -80 rmoveto
          22 103 rlineto
          55 hlineto
          10 44 rlineto
          -56 hlineto
          54 252 rlineto
          -31 hlineto
          -284 -254 -9 -42 rlineto
          217 hlineto
          -22 -103 rlineto
          73 338 rmoveto
          -40 -191 rlineto
          -170 hlineto
          endchar
        </CharString>
        <CharString name="foursuperior">
          -262 432 -21 103 43 253 -20 hstem
          310 411 -40 callgsubr
        </CharString>
        <CharString name="fraction">
          -479 17 -21 718 -20 hstem
          -232 -4 -5 callsubr
        </CharString>
        <CharString name="franc">
          -42 0 188 -54 54 141 58 261 62 hstemhm
          hintmask 10110000
          122 hmoveto
          hintmask 01110000
          28 134 rlineto
          127 hlineto
          11 54 rlineto
          -126 hlineto
          30 141 rlineto
          316 hlineto
          12 58 rlineto
          -315 hlineto
          55 261 rlineto
          374 -77 callsubr
          -443 hlineto
          -111 -522 rlineto
          -87 43 callsubr
          86 hlineto
          hintmask 10110000
          -28 -134 rlineto
          endchar
        </CharString>
        <CharString name="g">
          -49 callgsubr
          hstemhm
          24 70 hintmask 11011000
          -5 callgsubr
          hintmask 11101000
          -101 callsubr
          endchar
        </CharString>
        <CharString name="gacute">
          -49 callgsubr
          229 -20 hstemhm
          24 70 hintmask 11011100
          429 730 -89 callsubr
          -159 -843 -75 callsubr
          hintmask 11101100
          -101 callsubr
          endchar
        </CharString>
        <CharString name="gbreve">
          -49 callgsubr
          128 -6 callgsubr
          24 70 166 43 hintmask 11011011
          -5 callgsubr
          hintmask 11101011
          -101 callsubr
          107 614 -46 callsubr
          hintmask 11100111
          -98 callgsubr
          hintmask 11101011
          -59 callgsubr
        </CharString>
        <CharString name="gcircumflex">
          -49 callgsubr
          229 -20 hstemhm
          24 70 hintmask 11011100
          267 624 -100 callgsubr
          -68 -868 -75 callsubr
          hintmask 11101100
          -101 callsubr
          endchar
        </CharString>
        <CharString name="gcommaaccent">
          -49 callgsubr
          29 60 150 -20 hstemhm
          24 70 hintmask 11011110
          363 740 rmoveto
          -40 -74 -16 -76 rlineto
          61 hlineto
          17 76 rlineto
          -20 hlineto
          32 74 rlineto
          -232 -963 -75 callsubr
          67 -30 -50 51 -85 hhcurveto
          -157 -137 -159 -163 -114 67 -101 114 72 81 42 66 51 hvcurveto
          -22 -103 rlineto
          -112 -24 -92 -55 -95 hhcurveto
          -74 -62 31 66 -25 hvcurveto
          -48 -33 rlineto
          -72 28 56 -46 114 hhcurveto
          72 273 rmoveto
          -86 -57 77 92 hvcurveto
          hintmask 11100110
          114 100 137 125 70 60 -55 -75 11 vhcurveto
          -34 -161 rlineto
          -64 -25 -88 -65 -76 hhcurveto
          endchar
        </CharString>
        <CharString name="gdotaccent">
          -49 callgsubr
          132 97 hstemhm
          24 70 hintmask 11011100
          -5 callgsubr
          hintmask 11101100
          -101 callsubr
          136 583 -66 callgsubr
          endchar
        </CharString>
        <CharString name="germandbls">
          -104 -6 63 -36 -21 368 62 224 60 hstemhm
          405 70 -44 44 -44 68 hintmask 10110100
          163 -6 rmoveto
          181 6 131 89 159 vvcurveto
          76 -38 62 -74 17 vhcurveto
          hintmask 01110010
          68 17 68 80 82 vvcurveto
          78 -59 54 -88 -112 -97 -81 -118 -25 vhcurveto
          -109 -515 rlineto
          65 hlineto
          107 505 rlineto
          83 18 55 66 82 hhcurveto
          54 41 -32 -57 -76 -64 -59 -76 hvcurveto
          -17 hlineto
          -14 -62 rlineto
          18 hlineto
          hintmask 10111000
          79 48 -49 -75 -123 -93 -62 -135 -2 hvcurveto
          endchar
        </CharString>
        <CharString name="grave">
          -11 callsubr
          126 620 -76 callgsubr
        </CharString>
        <CharString name="greater">
          -88 10 -21 539 -20 hstem
          496 276 rmoveto
          -419 252 rlineto
          -73 vlineto
          320 -196 -320 -195 rlineto
          -75 vlineto
          419 250 rlineto
          endchar
        </CharString>
        <CharString name="greaterequal">
          -155 61 57 424 -20 hstem
          71 61 rmoveto
          322 57 -322 hlineto
          5 70 rmoveto
          318 157 rlineto
          38 vlineto
          -321 159 3 -66 219 -111 -219 -109 rlineto
          endchar
        </CharString>
        <CharString name="guillemotleft">
          -80 -22 callgsubr
          206 -37 rmoveto
          199 -173 13 59 -153 134 210 136 13 59 -275 -178 rlineto
          endchar
        </CharString>
        <CharString name="guillemotright">
          -80 87 -21 388 -20 hstem
          506 276 rmoveto
          -199 178 -12 -59 151 -136 -209 -134 -12 -59 273 173 rlineto
          -206 37 -4 callsubr
        </CharString>
        <CharString name="guilsinglleft">
          -294 -22 callgsubr
          endchar
        </CharString>
        <CharString name="guilsinglright">
          -294 87 -21 388 -20 hstem
          292 276 -4 callsubr
        </CharString>
        <CharString name="h">
          -8 callgsubr
          -7 callsubr
          431 72 vstem
          9 hmoveto
          -74 callgsubr
          70 327 -72 callgsubr
          endchar
        </CharString>
        <CharString name="hbar">
          -8 callgsubr
          80 46 -46 120 hstemhm
          431 72 hintmask 11101000
          69 610 rmoveto
          69 hlineto
          -129 -610 rlineto
          -46 callgsubr
          85 41 90 64 71 hhcurveto
          55 30 -34 -67 -22 -3 -24 -6 -30 -18 callsubr
          7 35 4 30 27 vvcurveto
          82 -34 51 -85 -81 -85 -49 -78 -56 vhcurveto
          44 207 rlineto
          105 hlineto
          9 46 rlineto
          -104 hlineto
          hintmask 11011000
          16 74 -72 callgsubr
          hintmask 11101000
          -16 -74 -26 callsubr
        </CharString>
        <CharString name="hcircumflex">
          -8 callgsubr
          199 -1 callsubr
          431 72 hintmask 11101000
          310 624 rmoveto
          89 63 65 -63 40 21 -71 84 rlineto
          -48 hlineto
          -107 -84 rlineto
          -269 -645 rmoveto
          -74 callgsubr
          hintmask 11011000
          70 327 -72 callgsubr
          endchar
        </CharString>
        <CharString name="hdotbelow">
          -74 7 callgsubr
          89 -1 callgsubr
          -7 callsubr
          431 72 vstem
          9 hmoveto
          -74 callgsubr
          70 327 -72 callgsubr
          49 -896 -83 callsubr
          endchar
        </CharString>
        <CharString name="hungarumlaut">
          -321 -11 callsubr
          178 730 -64 callsubr
          endchar
        </CharString>
        <CharString name="hyphen">
          -228 241 63 hstem
          329 241 rmoveto
          13 63 rlineto
          -278 hlineto
          -13 -63 rlineto
          endchar
        </CharString>
        <CharString name="i">
          21 -55 callsubr
          endchar
        </CharString>
        <CharString name="iacute">
          -41 callgsubr
          280 730 -89 callsubr
          -166 -620 rmoveto
          -70 callsubr
          endchar
        </CharString>
        <CharString name="ibreve">
          -45 callgsubr
          128 -6 callgsubr
          89 43 hintmask 11101000
          9 hmoveto
          -70 callsubr
          54 143 -46 callsubr
          hintmask 11011000
          -98 callgsubr
          hintmask 11101000
          -59 callgsubr
        </CharString>
        <CharString name="icircumflex">
          -41 callgsubr
          96 624 -100 callgsubr
          -53 -645 rmoveto
          -70 callsubr
          endchar
        </CharString>
        <CharString name="idblgrave">
          -41 callgsubr
          227 620 -89 callgsubr
          -41 -730 rmoveto
          -70 callsubr
          endchar
        </CharString>
        <CharString name="idieresis">
          -45 callgsubr
          132 94 hstem
          131 633 -95 callgsubr
          -208 -633 rmoveto
          -70 callsubr
          endchar
        </CharString>
        <CharString name="idotbelow">
          7 callgsubr
          89 -55 callsubr
          -126 -896 -83 callsubr
          endchar
        </CharString>
        <CharString name="igrave">
          21 -21 521 -20 229 -20 -23 callsubr
          36 99 -76 callgsubr
        </CharString>
        <CharString name="iinvertedbreve">
          -45 callgsubr
          128 5 callsubr
          233 40 hintmask 11101000
          82 629 rmoveto
          40 hlineto
          hintmask 11011000
          -75 callgsubr
          hvcurveto
          hintmask 11101000
          -91 callsubr
          -73 -629 rmoveto
          -70 callsubr
          endchar
        </CharString>
        <CharString name="ij">
          -200 -181 61 141 -55 callsubr
          -54 -911 -95 callsubr
          endchar
        </CharString>
        <CharString name="imacron">
          -45 callgsubr
          161 47 -23 callsubr
          194 141 -68 callsubr
          endchar
        </CharString>
        <CharString name="infinity">
          59 186 55 220 56 hstem
          55 55 489 55 vstem
          212 517 rmoveto
          -89 -68 -74 -91 -91 75 -75 82 80 37 45 53 28 hvcurveto
          -53 29 38 -45 73 hhcurveto
          89 68 74 91 91 -61 75 -95 -77 -36 -48 -56 -30 hvcurveto
          56 -30 -36 48 -77 hhcurveto
          -276 vmoveto
          -48 -54 35 76 76 54 33 48 63 30 -51 -60 28 hvcurveto
          -59 -28 -31 -50 -62 hhcurveto
          286 hmoveto
          -60 -32 48 57 -27 hvcurveto
          62 26 29 53 64 hhcurveto
          49 52 -33 -76 -76 -52 -35 -49 hvcurveto
          endchar
        </CharString>
        <CharString name="integral">
          -337 -167 55 877 55 hstemhm
          104 62 -23 63 hintmask 11010000
          143 -16 rmoveto
          -75 -5 -21 -50 -16 -23 6 8 -19 vhcurveto
          -17 -48 rlineto
          -12 28 40 -9 28 hhcurveto
          60 37 37 63 3 0 4 -2 37 hvcurveto
          hintmask 11100000
          -38 684 rlineto
          -2 37 0 5 10 vvcurveto
          34 22 18 35 15 26 -6 -8 18 vhcurveto
          17 48 rlineto
          12 -28 -41 9 -29 hhcurveto
          -79 -16 -44 -66 -12 0 -12 1 -13 hvcurveto
          endchar
        </CharString>
        <CharString name="iogonek">
          -154 -21 196 0 callgsubr
          109 hstemhm
          -66 44 vstemhm
          9 hmoveto
          20 -51 callgsubr
          110 521 -72 callgsubr
          24 109 rmoveto
          68 hlineto
          hintmask 11110000
          21 42 callsubr
          endchar
        </CharString>
        <CharString name="itilde">
          -45 callgsubr
          137 -47 callsubr
          hintmask 11101000
          9 hmoveto
          -70 callsubr
          111 117 -88 callgsubr
          hintmask 11010000
          -93 callgsubr
          hintmask 11101000
          -56 callgsubr
        </CharString>
        <CharString name="j">
          -413 -181 61 641 -20 129 100 hstem
          -103 -181 -95 callsubr
          endchar
        </CharString>
        <CharString name="j.alt">
          -192 -21 843 91 hstem
          -36 -213 rmoveto
          68 hlineto
          155 730 -72 callgsubr
          24 113 rmoveto
          68 hlineto
          19 91 -72 callgsubr
          endchar
        </CharString>
        <CharString name="jcircumflex">
          -181 61 641 -20 229 -44 callsubr
          201 805 -65 callsubr
        </CharString>
        <CharString name="k">
          -97 21 29 callsubr
          9 hmoveto
          -59 callsubr
        </CharString>
        <CharString name="kcommaaccent">
          -97 -178 -21 220 29 callsubr
          177 -90 callgsubr
          -134 199 rmoveto
          -59 callsubr
        </CharString>
        <CharString name="kgreenlandic">
          -125 21 -21 520 -1 callsubr
          hintmask 11000000
          9 hmoveto
          68 hlineto
          34 163 127 104 124 -267 rlineto
          74 hlineto
          -145 307 246 213 rlineto
          -75 hlineto
          -336 -286 rlineto
          hintmask 10100000
          61 287 -72 callgsubr
          endchar
        </CharString>
        <CharString name="l">
          -369 20 callsubr
          107 -6 rmoveto
          27 42 8 10 26 hvcurveto
          2 55 rlineto
          -7 -18 -23 -4 -14 hhcurveto
          -30 -17 16 28 6 1 5 1 7 hvcurveto
          130 612 -72 callgsubr
          -134 -635 rlineto
          -2 -10 -2 -10 -8 vvcurveto
          -46 30 -27 49 vhcurveto
          endchar
        </CharString>
        <CharString name="l.alt">
          -408 21 -21 730 -20 hstem
          14 hmoveto
          68 hlineto
          155 730 -72 callgsubr
          endchar
        </CharString>
        <CharString name="lacute">
          -369 -6 62 674 -20 173 -20 hstem
          28 74 vstem
          314 883 -89 callsubr
          -102 -779 rmoveto
          27 42 8 10 26 hvcurveto
          2 55 rlineto
          -7 -18 -23 -4 -14 hhcurveto
          -30 -17 16 28 6 1 5 1 7 hvcurveto
          130 612 -72 callgsubr
          -134 -635 rlineto
          -2 -10 -2 -10 -8 vvcurveto
          -46 30 -27 49 vhcurveto
          endchar
        </CharString>
        <CharString name="lcaron">
          -378 20 callsubr
          311 -38 callgsubr
          -162 -643 rmoveto
          27 42 8 10 26 hvcurveto
          2 55 rlineto
          -7 -18 -23 -4 -14 hhcurveto
          -30 -17 16 28 6 1 5 1 7 hvcurveto
          130 612 -72 callgsubr
          -134 -635 rlineto
          -2 -10 -2 -10 -8 vvcurveto
          -46 30 -27 49 vhcurveto
          endchar
        </CharString>
        <CharString name="lcommaaccent">
          -369 -8 callsubr
          43 736 -20 hstem
          28 74 vstem
          67 -90 callgsubr
          74 193 rmoveto
          27 42 8 10 26 hvcurveto
          2 55 rlineto
          -7 -18 -23 -4 -14 hhcurveto
          -30 -17 16 28 6 1 5 1 7 hvcurveto
          130 612 -72 callgsubr
          -134 -635 rlineto
          -2 -10 -2 -10 -8 vvcurveto
          -46 30 -27 49 vhcurveto
          endchar
        </CharString>
        <CharString name="ldot">
          -333 20 callsubr
          107 -6 rmoveto
          27 42 8 10 26 hvcurveto
          2 55 rlineto
          -7 -18 -23 -4 -14 hhcurveto
          -30 -17 16 28 6 1 5 1 7 hvcurveto
          130 612 -72 callgsubr
          -134 -635 rlineto
          -2 -10 -2 -10 -8 vvcurveto
          -46 30 -27 49 vhcurveto
          172 269 -26 callgsubr
        </CharString>
        <CharString name="less">
          -88 10 -21 539 -20 hstem
          30 239 rmoveto
          419 -250 rlineto
          75 vlineto
          -320 195 320 196 rlineto
          73 vlineto
          -419 -252 rlineto
          endchar
        </CharString>
        <CharString name="lessequal">
          -174 61 57 424 -20 hstem
          377 61 rmoveto
          57 -322 -57 vlineto
          -1 284 rmoveto
          318 -157 rlineto
          68 vlineto
          -219 109 219 111 rlineto
          66 vlineto
          -318 -159 rlineto
          endchar
        </CharString>
        <CharString name="lira">
          -165 -15 60 -36 54 184 42 61 43 265 57 hstemhm
          123 63 hintmask 01111100
          60 350 rmoveto
          98 hlineto
          3 -18 3 -19 -19 vvcurveto
          -5 -106 vlineto
          -9 -42 rlineto
          110 hlineto
          -12 -61 -42 -51 -108 -93 8 -50 rcurveline
          10 34 43 7 30 hhcurveto
          hintmask 10111100
          33 callsubr
          hintmask 01111100
          -6 52 rlineto
          hintmask 10111100
          -12 -37 -27 -6 -24 hhcurveto
          hintmask 01111100
          33 callgsubr
          95 88 35 51 11 54 rrcurveto
          143 hlineto
          9 42 rlineto
          -147 12 hlineto
          17 -2 16 -2 16 vhcurveto
          159 hlineto
          9 43 rlineto
          -178 hlineto
          -11 43 -15 40 40 vvcurveto
          78 67 64 70 51 47 -35 -55 18 vhcurveto
          48 42 rlineto
          65 -25 -56 40 -70 hhcurveto
          -107 -106 -92 -109 -41 13 -39 11 -41 hvcurveto
          -78 hlineto
          endchar
        </CharString>
        <CharString name="logicalnot">
          -71 147 -21 176 62 hstem
          86 364 rmoveto
          -14 -62 rlineto
          361 hlineto
          -37 -176 rlineto
          58 hlineto
          52 238 rlineto
          endchar
        </CharString>
        <CharString name="lozenge">
          -127 21 -21 730 -20 hstem
          230 730 rmoveto
          -186 -364 186 -366 rlineto
          73 hlineto
          186 366 -186 364 rlineto
          -30 -677 rmoveto
          -160 322 151 301 161 -322 rlineto
          endchar
        </CharString>
        <CharString name="lslash">
          -351 -6 62 674 -20 hstem
          46 74 vstem
          31 289 rmoveto
          69 48 -51 -242 rlineto
          -2 -10 -1 -10 -9 vvcurveto
          -45 29 -27 50 27 42 8 10 27 vhcurveto
          2 55 rlineto
          -7 -18 -24 -4 -14 hhcurveto
          -30 -17 16 28 8 2 10 3 14 hvcurveto
          55 261 127 89 -15 39 -100 -70 60 279 -72 callgsubr
          -71 -335 -96 -67 rlineto
          endchar
        </CharString>
        <CharString name="m">
          245 21 37 callsubr
          416 73 261 74 hintmask 11011000
          9 hmoveto
          -46 callgsubr
          89 44 75 60 74 hhcurveto
          52 27 -30 -64 -23 -4 -27 -7 -33 hvcurveto
          -61 -35 callgsubr
          67 318 rlineto
          88 42 76 62 74 hhcurveto
          52 27 -31 -65 -23 -4 -27 -6 -31 hvcurveto
          -61 -35 callgsubr
          65 305 rlineto
          8 36 4 32 29 vvcurveto
          79 -33 49 -83 -80 -81 -47 -89 -58 vhcurveto
          86 -40 50 -79 -78 -80 -49 -78 -56 vhcurveto
          hintmask 10111000
          -31 callgsubr
        </CharString>
        <CharString name="macron">
          -255 662 47 hstem
          347 662 -68 callsubr
          endchar
        </CharString>
        <CharString name="minus">
          -83 267 56 hstem
          475 267 rmoveto
          56 -403 -56 vlineto
          endchar
        </CharString>
        <CharString name="mu">
          -35 22 callsubr
          -28 -62 callsubr
          3 26 7 30 hvcurveto
          63 294 -72 callgsubr
          endchar
        </CharString>
        <CharString name="multiply">
          -165 129 -21 329 -20 hstem
          270 272 rmoveto
          120 121 -43 44 -121 -121 -119 120 -44 -43 119 -121 -120 -120 43 -44 121 121 122 -121 44 43 rlineto
          endchar
        </CharString>
        <CharString name="n">
          -74 21 16 callsubr
          hintmask 11010000
          9 hmoveto
          -46 callgsubr
          -97 callgsubr
          hintmask 10110000
          -31 callgsubr
        </CharString>
        <CharString name="nacute">
          -24 callsubr
          478 730 -89 callsubr
          -364 -620 rmoveto
          -46 callgsubr
          -97 callgsubr
          hintmask 10111000
          -31 callgsubr
        </CharString>
        <CharString name="napostrophe">
          -24 callsubr
          21 620 rmoveto
          106 110 rlineto
          -93 hlineto
          -6 -34 -48 -59 rlineto
          29 -637 rmoveto
          -46 callgsubr
          -97 callgsubr
          hintmask 10111000
          -31 callgsubr
        </CharString>
        <CharString name="ncaron">
          -24 callsubr
          320 624 -92 callsubr
          -235 -710 rmoveto
          -46 callgsubr
          -97 callgsubr
          hintmask 10111000
          -31 callgsubr
        </CharString>
        <CharString name="ncommaaccent">
          -74 -178 -21 220 16 callsubr
          hintmask 11101000
          180 -90 callgsubr
          -137 199 rmoveto
          -46 callgsubr
          -97 callgsubr
          hintmask 11011000
          -31 callgsubr
        </CharString>
        <CharString name="ndotaccent">
          -8 callgsubr
          -9 -20 132 97 hstemhm
          432 73 hintmask 11011000
          373 633 -66 callgsubr
          -302 -633 rmoveto
          -46 callgsubr
          -97 callgsubr
          hintmask 10111000
          -31 callgsubr
        </CharString>
        <CharString name="nine">
          -62 -155 61 180 56 369 59 hstem
          37 66 356 65 vstem
          173 -155 rmoveto
          208 143 239 265 137 30 callgsubr
          -111 75 -86 111 87 85 50 80 45 hvcurveto
          -186 -24 -114 -124 -115 hhcurveto
          -71 -52 44 67 -12 hvcurveto
          -52 -39 rlineto
          -83 20 65 -50 88 hhcurveto
          69 297 rmoveto
          -81 -58 68 84 116 110 101 107 82 57 -68 -84 -115 -108 -102 -109 hvcurveto
          endchar
        </CharString>
        <CharString name="nine.denominator">
          -240 -5 42 93 40 191 41 hstem
          23 44 230 43 vstem
          120 -5 rmoveto
          21 callsubr
          -64 50 -49 77 52 55 26 39 28 hvcurveto
          8 callsubr
          42 175 rmoveto
          -55 -40 36 46 57 67 52 68 56 39 -38 -45 -57 -66 -51 -69 hvcurveto
          endchar
        </CharString>
        <CharString name="nine.lnum">
          -45 -10 61 180 56 369 59 hstem
          76 67 356 64 vstem
          76 428 rmoveto
          -111 74 -86 113 83 85 51 78 44 vhcurveto
          -196 -43 -96 -113 -111 hhcurveto
          -70 -53 44 67 -12 hvcurveto
          -51 -39 rlineto
          -83 20 65 -50 88 hhcurveto
          208 143 240 263 138 30 callgsubr
          hvcurveto
          283 228 rmoveto
          82 58 -68 -85 -114 -110 -102 -107 -82 -57 68 84 115 109 102 107 hvcurveto
          endchar
        </CharString>
        <CharString name="nine.numerator">
          -240 322 42 93 40 192 41 hstem
          92 44 232 42 vstem
          92 571 rmoveto
          -64 52 -50 76 51 57 27 39 26 34 callgsubr
          -9 hvcurveto
          -34 -28 rlineto
          -45 14 45 -27 57 hhcurveto
          130 90 122 154 82 -50 50 -78 -99 -91 -73 -86 hvcurveto
          180 118 rmoveto
          55 41 -38 -46 -57 -68 -51 -68 -55 -41 37 45 58 67 52 69 hvcurveto
          endchar
        </CharString>
        <CharString name="nineinferior">
          -239 -85 42 93 40 191 41 hstem
          6 44 230 43 vstem
          6 163 rmoveto
          -64 50 -49 77 52 55 26 39 28 vhcurveto
          8 callsubr
          21 callsubr
          hvcurveto
          179 118 rmoveto
          56 39 -38 -45 -57 -66 -51 -69 -55 -40 36 46 57 66 52 69 hvcurveto
          endchar
        </CharString>
        <CharString name="ninesuperior">
          -240 402 42 93 40 192 41 hstem
          109 44 231 42 vstem
          109 651 rmoveto
          -64 52 -50 76 51 56 27 39 27 34 callgsubr
          -10 hvcurveto
          -33 -28 rlineto
          -45 14 45 -27 56 hhcurveto
          131 89 122 154 82 -49 50 -79 -98 -91 -73 -86 hvcurveto
          180 118 rmoveto
          55 40 -38 -46 -57 -67 -51 -68 -56 -40 37 45 58 67 52 69 hvcurveto
          endchar
        </CharString>
        <CharString name="notequal">
          -157 99 -21 116 49 66 49 116 -20 hstem
          81 309 rmoveto
          147 hlineto
          -38 -66 rlineto
          -109 -49 82 hlineto
          -57 -101 34 -15 66 116 rlineto
          177 49 -149 hlineto
          37 66 rlineto
          112 49 -84 hlineto
          57 100 -35 16 -66 -116 rlineto
          -174 hlineto
          endchar
        </CharString>
        <CharString name="ntilde">
          -8 callgsubr
          -9 -20 137 -47 callsubr
          432 73 hintmask 11010110
          9 hmoveto
          -46 callgsubr
          -97 callgsubr
          hintmask 10110110
          26 118 rlineto
          -63 hlineto
          274 117 -88 callgsubr
          hintmask 11001010
          -93 callgsubr
          hintmask 11010110
          -56 callgsubr
        </CharString>
        <CharString name="numbersign">
          19 21 -21 207 54 196 51 202 -20 hstem
          659 508 rmoveto
          -111 hlineto
          90 202 -6 callsubr
          -88 -202 rlineto
          -177 hlineto
          90 202 rlineto
          -57 hlineto
          -89 -202 rlineto
          -136 hlineto
          -12 -51 rlineto
          124 hlineto
          -85 -196 rlineto
          -121 43 callsubr
          107 32 callsubr
          177 32 callsubr
          140 hlineto
          11 54 rlineto
          -127 hlineto
          86 196 rlineto
          124 hlineto
          -442 -196 rmoveto
          86 196 rlineto
          176 hlineto
          -87 -196 rlineto
          endchar
        </CharString>
        <CharString name="o">
          4 callgsubr
          hstem
          -7 callgsubr
          vstem
          -80 callsubr
          endchar
        </CharString>
        <CharString name="oacute">
          -54 callsubr
          454 730 -89 callsubr
          -129 -630 -106 callsubr
          endchar
        </CharString>
        <CharString name="obreve">
          4 callgsubr
          99 -6 callgsubr
          24 70 179 43 145 70 hintmask 11101110
          -80 callsubr
          124 614 -46 callsubr
          hintmask 11011110
          -98 callgsubr
          hintmask 11101110
          -59 callgsubr
        </CharString>
        <CharString name="ocircumflex">
          -54 callsubr
          273 624 -100 callgsubr
          -19 -655 -106 callsubr
          endchar
        </CharString>
        <CharString name="odblgrave">
          -54 callsubr
          412 620 -89 callgsubr
          -15 -740 -106 callsubr
          endchar
        </CharString>
        <CharString name="odieresis">
          4 callgsubr
          103 94 hstem
          -7 callgsubr
          vstem
          312 633 -95 callgsubr
          -178 -643 -106 callsubr
          endchar
        </CharString>
        <CharString name="odotbelow">
          -60 7 callgsubr
          58 -36 callsubr
          hstem
          -7 callgsubr
          vstem
          220 -44 callgsubr
          62 156 -106 callsubr
          endchar
        </CharString>
        <CharString name="oe">
          352 -10 52 194 46 188 60 hstem
          24 70 367 59 369 64 vstem
          219 -10 rmoveto
          93 91 62 101 64 hvcurveto
          -98 22 70 -65 94 hhcurveto
          92 98 53 77 50 hvcurveto
          -55 16 rlineto
          -56 -32 -71 -38 -68 hhcurveto
          -88 -59 69 92 11 0 11 2 11 hvcurveto
          420 hlineto
          4 8 7 19 46 vvcurveto
          134 -72 87 -121 -100 -91 -61 -104 -58 vhcurveto
          101 -13 -67 64 -95 hhcurveto
          -160 -152 -148 -176 -123 77 -93 118 hvcurveto
          14 60 rmoveto
          -84 -55 71 93 137 115 119 114 83 55 -73 -94 -137 -113 -116 -115 hvcurveto
          297 232 rmoveto
          113 30 91 82 96 hhcurveto
          85 57 -64 -94 -12 0 -12 -2 -13 hvcurveto
          endchar
        </CharString>
        <CharString name="ogonek">
          -403 -154 -21 192 -20 hstem
          29 44 vstem
          89 -175 rmoveto
          -61 callsubr
          -19 17 rlineto
          -87 -50 -37 -39 -42 -48 callsubr
          endchar
        </CharString>
        <CharString name="ograve">
          -54 callsubr
          -80 callsubr
          117 570 -76 callgsubr
        </CharString>
        <CharString name="ohungarumlaut">
          -54 callsubr
          381 730 -64 callsubr
          -179 -630 -106 callsubr
          endchar
        </CharString>
        <CharString name="oinvertedbreve">
          4 callgsubr
          99 5 callsubr
          24 70 323 40 4 70 hintmask 11101110
          266 629 rmoveto
          40 hlineto
          hintmask 11011110
          -75 callgsubr
          hvcurveto
          hintmask 11101110
          -91 callsubr
          -46 -639 -106 callsubr
          endchar
        </CharString>
        <CharString name="omacron">
          4 callgsubr
          132 47 hstem
          -7 callgsubr
          vstem
          498 662 -68 callsubr
          -3 -672 -106 callsubr
          endchar
        </CharString>
        <CharString name="one">
          -223 0 62 348 66 95 -20 hstem
          3 hmoveto
          325 -77 callsubr
          -121 hlineto
          108 509 -16 callsubr
          -12 -9 -108 -83 -59 hhcurveto
          -14 -66 rlineto
          51 93 49 31 29 hvcurveto
          -91 -428 rlineto
          -135 hlineto
          endchar
        </CharString>
        <CharString name="one.denominator">
          -358 0 44 361 -20 hstem
          -16 hmoveto
          209 hlineto
          9 44 rlineto
          -79 hlineto
          -11 callgsubr
          endchar
        </CharString>
        <CharString name="one.lnum">
          -235 0 62 495 64 98 -20 hstem
          0 vmoveto
          318 -77 callsubr
          -120 hlineto
          139 657 -16 callsubr
          -4 -3 -101 -94 -67 hhcurveto
          -13 -64 rlineto
          51 89 55 31 27 hvcurveto
          -123 -581 rlineto
          -128 hlineto
          endchar
        </CharString>
        <CharString name="one.numerator">
          -373 326 45 360 -20 hstem
          184 371 -34 callsubr
        </CharString>
        <CharString name="oneeighth">
          187 -5 44 callsubr
          95 45 -14 42 332 -20 hstemhm
          433 -28 callsubr
          hintmask 1110111100000000
          77 -4 -78 callgsubr
          144 344 -87 callgsubr
          297 -376 -17 callgsubr
          hintmask 1101111001000000
          -86 callgsubr
          hintmask 1101111100000000
          -69 callsubr
          hintmask 1110111010000000
          -19 callgsubr
          endchar
        </CharString>
        <CharString name="onehalf">
          187 0 44 -27 -21 330 45 -10 43 327 -20 hstemhm
          730 49 hintmask 10011100
          426 hmoveto
          292 hlineto
          9 44 rlineto
          -225 hlineto
          8 36 24 50 88 30 rrcurveto
          96 33 61 31 84 vvcurveto
          55 -37 41 -77 -91 -62 -53 -14 -12 vhcurveto
          21 -32 rlineto
          22 24 43 34 63 hhcurveto
          53 26 -28 -34 -73 -82 -17 -67 -25 hvcurveto
          -86 -33 -49 -48 -20 -103 rrcurveto
          hintmask 01101100
          -362 -4 -78 callgsubr
          157 344 -34 callsubr
        </CharString>
        <CharString name="oneinferior">
          -357 -80 44 361 -20 hstem
          106 -36 rmoveto
          -11 callgsubr
          -9 -44 rlineto
          209 hlineto
          9 44 rlineto
          endchar
        </CharString>
        <CharString name="onequarter">
          153 17 -21 25 -21 103 44 179 45 360 -20 hstemhm
          hintmask 01111000
          587 hmoveto
          -65 callgsubr
          hintmask 10111000
          -525 -151 -78 callgsubr
          124 344 -34 callsubr
        </CharString>
        <CharString name="onesuperior">
          -373 406 45 260 -20 120 -20 hstem
          201 451 -34 callsubr
        </CharString>
        <CharString name="onethird">
          187 -5 44 146 40 101 45 -8 41 327 -20 hstemhm
          435 30 callsubr
          hintmask 11101110
          67 -4 -78 callgsubr
          155 344 -87 callgsubr
          297 -376 11 callsubr
          hintmask 11011101
          -79 callgsubr
          hintmask 11101110
          -40 callsubr
        </CharString>
        <CharString name="oogonek">
          -60 -160 -21 171 -36 callsubr
          hstem
          24 70 24 44 299 70 vstem
          178 21 callgsubr
          72 42 vhcurveto
          149 22 123 143 153 vvcurveto
          120 -74 99 -122 -164 -147 -155 -167 -115 68 -96 116 -7 vhcurveto
          -63 -40 -27 -34 -36 -48 callsubr
          55 231 rmoveto
          -83 -56 72 94 135 117 119 111 83 56 -74 -94 -135 -116 -117 -112 hvcurveto
          endchar
        </CharString>
        <CharString name="ordfeminine">
          -219 346 45 137 37 103 42 hstem
          75 57 211 58 vstem
          167 346 rmoveto
          53 53 23 42 40 hvcurveto
          -2 -13 -2 -12 -5 vvcurveto
          -23 21 -7 27 4 4 0 1 4 vhcurveto
          11 52 rlineto
          -10 1 -5 4 9 vvcurveto
          3 0 2 1 3 vhcurveto
          31 143 rlineto
          3 14 1 13 13 vvcurveto
          65 -43 36 -75 -44 -46 -15 -31 -51 vhcurveto
          11 -37 rlineto
          27 44 39 14 34 hhcurveto
          47 26 -26 -42 -7 -1 -8 -2 -10 hvcurveto
          -6 -28 rlineto
          12 -24 -33 6 -35 hhcurveto
          -93 -74 -53 -76 -51 37 -39 55 hvcurveto
          25 45 rmoveto
          -36 -24 25 33 47 48 32 64 29 30 -4 -12 23 hvcurveto
          -11 -52 rlineto
          -37 -8 -64 -32 -51 hhcurveto
          endchar
        </CharString>
        <CharString name="ordmasculine">
          -202 346 49 266 49 hstem
          86 57 238 57 vstem
          223 346 rmoveto
          117 98 105 112 81 -51 66 -87 -115 -99 -103 -114 -79 50 -68 87 hvcurveto
          10 49 rmoveto
          -54 -36 45 60 88 74 73 73 54 37 -46 -60 -86 -74 -74 -74 hvcurveto
          endchar
        </CharString>
        <CharString name="oslash">
          -60 -10 60 -30 -21 471 60 -7 -20 hstemhm
          -7 callgsubr
          hintmask 01101100
          25 -1 rmoveto
          46 hlineto
          30 31 rlineto
          hintmask 10011100
          -14 callsubr
          hintmask 01101100
          10 callsubr
          hintmask 10101100
          -58 callgsubr
          endchar
        </CharString>
        <CharString name="oslashacute">
          -60 -10 60 -30 -21 471 60 -7 -20 227 -20 hstemhm
          -7 callgsubr
          hintmask 01101110
          25 -1 rmoveto
          46 hlineto
          30 31 rlineto
          hintmask 10011110
          -14 callsubr
          hintmask 01101110
          10 callsubr
          hintmask 10101110
          -58 callgsubr
          360 514 -43 callsubr
        </CharString>
        <CharString name="otilde">
          4 callgsubr
          108 -47 callsubr
          -7 callgsubr
          hintmask 11101110
          -80 callsubr
          177 588 -88 callgsubr
          hintmask 11010110
          -93 callgsubr
          hintmask 11101110
          -56 callgsubr
        </CharString>
        <CharString name="p">
          -40 -192 -21 203 37 callgsubr
          480 71 hintmask 11101000
          -36 -213 rmoveto
          68 hlineto
          68 321 rlineto
          -67 24 55 -51 83 hhcurveto
          156 133 158 163 116 -69 103 -116 -75 -79 -45 -65 -53 hvcurveto
          hintmask 11011000
          21 101 rlineto
          -60 hlineto
          136 -471 rmoveto
          -73 -54 57 74 -14 hvcurveto
          34 160 rlineto
          hintmask 11101000
          70 26 98 59 64 hhcurveto
          87 56 -77 -93 -119 -103 -131 -121 hvcurveto
          endchar
        </CharString>
        <CharString name="paragraph">
          -54 -59 -21 311 54 371 54 hstem
          64 60 vstem
          64 418 rmoveto
          -114 73 -71 128 -2 vhcurveto
          -67 -311 rlineto
          60 hlineto
          66 311 rlineto
          69 hlineto
          -66 -311 rlineto
          59 hlineto
          157 736 rlineto
          66 hlineto
          12 54 rlineto
          -231 hlineto
          -199 -127 -117 -175 hvcurveto
          60 13 rmoveto
          129 86 95 145 1 vhcurveto
          -79 -371 rlineto
          -86 5 -66 45 96 vvcurveto
          280 -146 rmoveto
          -69 hlineto
          80 371 rlineto
          69 hlineto
          endchar
        </CharString>
        <CharString name="parenleft">
          -370 -16 -21 776 -20 hstem
          44 65 vstem
          44 260 rmoveto
          -96 24 -110 39 -91 vhcurveto
          56 27 rlineto
          -35 86 -19 109 82 vvcurveto
          163 130 190 79 94 vhcurveto
          -46 25 rlineto
          -126 -160 -102 -143 -176 vvcurveto
          endchar
        </CharString>
        <CharString name="parenright">
          -370 -16 -21 776 -20 hstem
          173 66 vstem
          239 432 rmoveto
          101 -26 110 -35 96 vhcurveto
          -58 -25 rlineto
          26 -62 27 -124 -104 vvcurveto
          -145 -84 -144 -121 -145 vhcurveto
          45 -27 rlineto
          131 155 95 148 166 vvcurveto
          endchar
        </CharString>
        <CharString name="partialdiff">
          -70 -10 60 328 56 221 60 hstemhm
          32 66 335 86 -64 64 hintmask 11110100
          251 -10 rmoveto
          159 109 140 269 224 -75 92 -145 -77 -75 -26 -51 -43 hvcurveto
          38 -41 rlineto
          34 28 62 24 62 hhcurveto
          98 63 -60 -177 -30 -2 -42 -4 -30 hvcurveto
          74 -21 -67 44 -83 hhcurveto
          -133 -113 -113 -126 -114 91 -91 128 hvcurveto
          1 60 rmoveto
          -89 -65 66 84 96 85 82 96 hvcurveto
          hintmask 11111000
          87 67 -67 -81 -87 -76 -93 -105 hvcurveto
          endchar
        </CharString>
        <CharString name="percent">
          55 29 callgsubr
          96 52 175 51 -38 52 176 51 hintmask 11111011
          211 433 rmoveto
          90 87 78 90 67 -46 52 -69 -90 -87 -78 -91 -66 47 -52 68 hvcurveto
          9 39 rmoveto
          -43 -29 38 47 63 58 60 58 42 30 -37 -47 -63 -58 -61 -58 hvcurveto
          219 -482 rmoveto
          90 86 78 91 66 -46 52 -69 hvcurveto
          hintmask 11111101
          -89 -88 -78 -90 -67 48 -52 68 hvcurveto
          8 40 rmoveto
          -43 -30 37 47 63 59 61 58 42 31 -38 -47 -64 -59 -59 -58 hvcurveto
          -412 -34 -5 callsubr
        </CharString>
        <CharString name="period">
          -445 21 -21 98 -20 hstem
          60 hmoveto
          12 callgsubr
          endchar
        </CharString>
        <CharString name="periodcentered">
          -447 267 -21 112 -20 hstem
          110 246 -26 callgsubr
        </CharString>
        <CharString name="perthousand">
          390 29 callgsubr
          102 52 175 51 -38 52 176 51 45 51 189 51 hintmask 1111101111000000
          219 433 rmoveto
          87 88 78 91 66 -46 52 -71 -87 -88 -78 -92 -65 46 -52 71 hvcurveto
          9 39 rmoveto
          -44 -30 38 45 65 58 60 56 44 30 -37 -46 -64 -58 -61 -56 hvcurveto
          219 -482 rmoveto
          87 87 78 91 66 -46 52 -71 hvcurveto
          hintmask 1111110111000000
          -87 -88 -78 -91 -66 47 -52 71 hvcurveto
          7 40 rmoveto
          -44 -30 37 46 64 59 61 57 44 30 -38 -46 -64 -59 -60 -57 hvcurveto
          329 -40 rmoveto
          87 87 78 91 66 -45 52 -71 -87 -88 -78 -91 -66 46 -52 71 hvcurveto
          8 40 rmoveto
          -45 -29 37 46 64 58 61 57 44 30 -38 -46 -64 -58 -60 -57 hvcurveto
          -750 -34 -5 callsubr
        </CharString>
        <CharString name="pi">
          38 -6 62 -35 -21 459 62 hstemhm
          136 66 200 66 hintmask 10111000
          501 -6 rmoveto
          27 42 8 10 25 hvcurveto
          -12 55 rlineto
          -7 -17 -22 -4 -15 hhcurveto
          -38 -23 23 39 hvcurveto
          341 110 62 -522 -62 80 vlineto
          hintmask 01111000
          -459 66 459 200 -364 vlineto
          hintmask 10111000
          -63 39 -38 60 vhcurveto
          endchar
        </CharString>
        <CharString name="plus">
          -219 213 -21 135 56 135 -20 hstem
          185 63 vstem
          248 383 rmoveto
          135 -63 -135 -124 -56 124 -135 63 135 124 56 vlineto
          endchar
        </CharString>
        <CharString name="plusminus">
          -149 61 57 218 57 140 -20 hstem
          198 62 vstem
          390 61 rmoveto
          57 -322 -57 vlineto
          192 332 rmoveto
          140 -62 -140 -130 -57 130 -140 62 140 130 57 vlineto
          endchar
        </CharString>
        <CharString name="product">
          111 -69 -21 738 62 hstem
          158 66 334 66 vstem
          558 -90 rmoveto
          66 738 80 62 -629 -62 83 -738 66 738 334 hlineto
          endchar
        </CharString>
        <CharString name="q">
          -41 -191 -21 202 37 callgsubr
          24 71 hintmask 11011000
          198 -10 rmoveto
          76 73 41 77 64 hvcurveto
          -55 -259 rlineto
          -1 -5 -1 -4 -4 vvcurveto
          -33 24 -15 36 7 7 1 1 7 vhcurveto
          12 59 rlineto
          -13 1 -6 5 12 vvcurveto
          3 1 3 1 5 vhcurveto
          136 643 -15 callgsubr
          hvcurveto
          34 60 23 callsubr
          57 -61 -72 4 hvcurveto
          -35 -164 rlineto
          -67 -48 -69 -56 -76 hhcurveto
          endchar
        </CharString>
        <CharString name="q.alt">
          -41 -192 -21 203 37 callgsubr
          24 71 hintmask 11011000
          343 -213 rmoveto
          68 hlineto
          155 734 -15 callgsubr
          76 73 41 77 64 hvcurveto
          -179 -58 23 callsubr
          59 -62 -69 2 hvcurveto
          -35 -166 rlineto
          -67 -48 -69 -56 -76 hhcurveto
          endchar
        </CharString>
        <CharString name="question">
          -175 21 -21 662 57 hstem
          410 62 vstem
          182 202 rmoveto
          21 96 47 26 51 26 rrcurveto
          89 45 82 39 134 vvcurveto
          101 -70 50 -82 -82 -91 -47 -82 -52 vhcurveto
          40 -30 rlineto
          57 39 67 45 66 hhcurveto
          56 47 -35 -68 -119 -105 -31 -65 -37 hvcurveto
          -62 -35 -35 -47 -19 -88 rrcurveto
          17 -202 rmoveto
          22 107 rlineto
          -57 hlineto
          -23 -107 rlineto
          endchar
        </CharString>
        <CharString name="questiondown">
          -180 -213 57 662 -20 hstem
          -37 62 vstem
          253 304 rmoveto
          -21 -96 -47 -26 -51 -26 rrcurveto
          -89 -45 -82 -39 -134 vvcurveto
          -101 70 -50 82 82 91 47 82 52 vhcurveto
          -40 30 rlineto
          -57 -39 -67 -45 -66 hhcurveto
          -56 -47 35 68 119 105 31 65 37 hvcurveto
          62 35 35 47 19 88 rrcurveto
          -17 202 rmoveto
          -22 -107 rlineto
          57 hlineto
          23 107 rlineto
          endchar
        </CharString>
        <CharString name="quotedbl">
          -346 522 194 hstem
          172 522 rmoveto
          41 194 rlineto
          -60 hlineto
          -41 -194 rlineto
          153 hmoveto
          41 194 rlineto
          -59 hlineto
          -42 -194 rlineto
          endchar
        </CharString>
        <CharString name="quotedblbase">
          -292 -10 callgsubr
          150 hmoveto
          46 104 23 102 rlineto
          -67 hlineto
          -22 -102 rlineto
          23 hlineto
          -38 -104 rlineto
          endchar
        </CharString>
        <CharString name="quotedblleft">
          -325 -12 callsubr
          80 hmoveto
          -48 -106 -21 -103 rlineto
          67 hlineto
          21 103 rlineto
          -23 hlineto
          38 106 rlineto
          endchar
        </CharString>
        <CharString name="quotedblright">
          -330 542 -21 17 callsubr
          150 521 rmoveto
          47 107 22 102 rlineto
          -67 hlineto
          -22 -102 rlineto
          23 hlineto
          -38 -107 rlineto
          150 hmoveto
          47 107 21 102 rlineto
          -67 hlineto
          -21 -102 rlineto
          23 hlineto
          -38 -107 rlineto
          endchar
        </CharString>
        <CharString name="quoteleft">
          -440 -12 callsubr
          endchar
        </CharString>
        <CharString name="quoteright">
          -445 542 -21 17 callsubr
          149 521 rmoveto
          47 106 22 103 rlineto
          -67 hlineto
          -21 -103 rlineto
          23 hlineto
          -39 -106 rlineto
          endchar
        </CharString>
        <CharString name="quotesinglbase">
          -408 -10 callgsubr
          endchar
        </CharString>
        <CharString name="quotesingle">
          -440 542 -21 195 -20 hstem
          172 521 rmoveto
          41 195 rlineto
          -60 hlineto
          -41 -195 rlineto
          endchar
        </CharString>
        <CharString name="r">
          -20 callgsubr
          hstemhm
          hintmask 11000000
          9 hmoveto
          -86 callsubr
          hintmask 10100000
          -13 callgsubr
        </CharString>
        <CharString name="racute">
          -20 callgsubr
          229 -20 hstemhm
          hintmask 11010000
          359 730 -89 callsubr
          -245 -620 rmoveto
          -86 callsubr
          hintmask 10110000
          -13 callgsubr
        </CharString>
        <CharString name="radical">
          -226 21 -21 790 -20 hstem
          19 314 rmoveto
          82 hlineto
          90 -314 rlineto
          75 hlineto
          148 790 rlineto
          -66 hlineto
          -118 -728 -72 303 rlineto
          -139 hlineto
          endchar
        </CharString>
        <CharString name="rcaron">
          -20 callgsubr
          229 -20 hstemhm
          hintmask 11010000
          226 624 -92 callsubr
          -141 -710 rmoveto
          -86 callsubr
          hintmask 10110000
          -13 callgsubr
        </CharString>
        <CharString name="rcommaaccent">
          -290 -8 callsubr
          49 461 61 -1 -20 hstemhm
          hintmask 11100000
          2 -90 callgsubr
          41 199 rmoveto
          -86 callsubr
          hintmask 11010000
          -13 callgsubr
        </CharString>
        <CharString name="rdblgrave">
          -20 callgsubr
          229 -20 hstemhm
          hintmask 11010000
          317 620 -89 callgsubr
          -131 -730 rmoveto
          -86 callsubr
          hintmask 10110000
          -13 callgsubr
        </CharString>
        <CharString name="rdotbelow">
          -290 7 callgsubr
          89 -21 461 61 -1 -20 hstemhm
          hintmask 11100000
          9 hmoveto
          -86 callsubr
          hintmask 11010000
          27 125 rlineto
          -64 hlineto
          -79 -687 -83 callsubr
          endchar
        </CharString>
        <CharString name="registered">
          212 -7 32 102 214 -46 46 191 48 102 33 hstemhm
          66 36 179 52 222 51 160 36 hintmask 1101111110000000
          -31 callsubr
          32 vmoveto
          -192 -139 142 188 186 140 141 191 192 141 -141 -187 -196 -145 -133 -188 hvcurveto
          -152 102 rmoveto
          52 hlineto
          hintmask 1011111110000000
          168 117 vlineto
          hintmask 1101111110000000
          107 -168 rlineto
          58 hlineto
          -111 175 rlineto
          61 12 41 58 65 vvcurveto
          70 -56 73 -78 vhcurveto
          -191 hlineto
          52 -239 rmoveto
          191 135 vlineto
          50 37 -40 -55 -54 -29 -42 -55 hvcurveto
          endchar
        </CharString>
        <CharString name="ring">
          -397 599 27 77 27 hstem
          66 33 80 32 vstem
          66 652 -88 callsubr
          endchar
        </CharString>
        <CharString name="rinvertedbreve">
          -20 callgsubr
          195 35 hstemhm
          312 40 hintmask 11011000
          161 630 rmoveto
          40 hlineto
          -75 callgsubr
          -7 -1 -6 -1 -8 hvcurveto
          40 hlineto
          2 7 0 7 7 vvcurveto
          44 -29 36 -47 -54 -50 -45 -56 -11 vhcurveto
          -152 -630 rmoveto
          -86 callsubr
          hintmask 10111000
          -13 callgsubr
        </CharString>
        <CharString name="s">
          36 callsubr
          hstem
          19 callgsubr
          vstem
          172 -10 -99 callsubr
          endchar
        </CharString>
        <CharString name="s_t">
          140 -10 67 -42 -21 473 54 -42 42 9 -20 200 37 hstemhm
          59 65 213 67 -26 26 97 73 39 69 hintmask 1001011011100000
          175 -10 rmoveto
          108 121 58 118 88 -69 14 -78 13 hvcurveto
          -77 13 -56 9 67 vvcurveto
          78 75 31 71 45 50 -13 -46 31 vhcurveto
          41 40 rlineto
          -6 13 -18 46 55 vvcurveto
          70 31 66 101 48 20 -15 -50 -28 -7 -40 -12 -56 vhcurveto
          -68 hlineto
          hintmask 0110011101100000
          38 callsubr
          -76 -358 rlineto
          -3 -16 -3 -13 -13 vvcurveto
          -48 38 -25 50 49 51 24 7 18 vhcurveto
          -5 55 rlineto
          hintmask 1010011011100000
          -5 -10 -36 -18 -33 hhcurveto
          -28 -21 13 29 4 1 4 1 6 hvcurveto
          75 354 rlineto
          112 hlineto
          12 54 rlineto
          -113 hlineto
          10 54 10 43 35 vvcurveto
          62 -27 32 -87 -145 -45 -88 -81 -29 5 -24 7 -26 vhcurveto
          hintmask 1000111101100000
          21 -28 -43 10 -41 hhcurveto
          -100 -119 -58 -120 -90 67 -13 84 -15 hvcurveto
          71 -12 56 -11 -61 vvcurveto
          -73 -81 -35 -71 -60 -54 24 47 -46 vhcurveto
          -39 -47 rlineto
          -42 38 69 -34 82 hhcurveto
          endchar
        </CharString>
        <CharString name="sacute">
          -23 callgsubr
          397 730 -89 callsubr
          -120 -630 -99 callsubr
          endchar
        </CharString>
        <CharString name="scaron">
          -23 callgsubr
          274 624 -92 callsubr
          -26 -720 -99 callsubr
          endchar
        </CharString>
        <CharString name="schwa">
          -72 -10 52 195 47 193 53 hstem
          12 66 371 70 vstem
          210 -10 rmoveto
          166 143 151 169 122 -75 98 -122 -97 -96 -55 -75 -46 hvcurveto
          55 -16 rlineto
          55 34 71 38 65 hhcurveto
          83 58 -65 -93 -11 -1 -12 -2 -12 hvcurveto
          -420 hlineto
          -11 -26 -3 -35 -27 vvcurveto
          -117 74 -89 124 vhcurveto
          12 52 rmoveto
          -86 -58 64 94 12 1 12 2 13 hvcurveto
          357 hlineto
          -112 -30 -91 -83 -95 hhcurveto
          endchar
        </CharString>
        <CharString name="scircumflex">
          -23 callgsubr
          231 624 -100 callgsubr
          -25 -655 -99 callsubr
          endchar
        </CharString>
        <CharString name="sdotbelow">
          -165 7 callgsubr
          58 52 437 51 hstem
          19 callgsubr
          vstem
          172 -10 -99 callsubr
          -4 -156 -83 callsubr
          endchar
        </CharString>
        <CharString name="section">
          -144 -88 65 409 56 211 62 hstemhm
          74 66 -46 70 168 72 -40 66 hintmask 11101010
          378 195 rmoveto
          26 24 26 47 49 vvcurveto
          93 -81 31 -81 3 vhcurveto
          -60 2 -44 19 59 vvcurveto
          81 79 50 69 45 50 -14 -44 13 vhcurveto
          58 25 rlineto
          48 -21 -39 47 -96 hhcurveto
          -105 -123 -83 -120 -37 11 -33 17 -15 hvcurveto
          hintmask 11110100
          -22 -23 -26 -43 -50 vvcurveto
          -84 63 -43 94 -5 vhcurveto
          48 -3 53 -10 -59 vvcurveto
          -81 -83 -49 -69 -53 -39 22 46 -36 vhcurveto
          -54 -42 rlineto
          -42 29 53 -49 89 hhcurveto
          95 140 68 144 32 -8 26 -18 13 hvcurveto
          -238 116 rmoveto
          37 20 34 21 18 vhcurveto
          -9 19 29 -5 30 hhcurveto
          hintmask 11110010
          48 57 -21 -61 -34 -20 -37 -25 -18 hvcurveto
          -52 24 -127 -28 100 vvcurveto
          endchar
        </CharString>
        <CharString name="semicolon">
          -443 -60 -21 599 -20 hstem
          147 420 rmoveto
          21 98 -6 callsubr
          -20 -98 rlineto
          -66 -501 25 callsubr
          -34 -84 rlineto
          endchar
        </CharString>
        <CharString name="servicemark">
          55 420 43 209 38 5 -20 hstemhm
          129 50 92 52 hintmask 11011000
          519 523 rmoveto
          -40 187 rlineto
          -66 hlineto
          -61 -286 rlineto
          14 callgsubr
          47 hlineto
          61 286 rlineto
          -67 hlineto
          -294 -28 rmoveto
          hintmask 10111000
          21 -21 -29 12 -39 hhcurveto
          -70 -56 -37 -63 -40 33 -16 48 -13 hvcurveto
          41 -12 20 -9 -21 vvcurveto
          -28 -25 -13 -41 -41 -32 16 20 -16 vhcurveto
          -30 -36 rlineto
          -28 27 37 -15 45 hhcurveto
          72 56 31 65 44 -34 17 -49 13 hvcurveto
          -41 10 -20 11 17 vvcurveto
          hintmask 11011000
          27 21 17 45 33 26 -13 -18 11 vhcurveto
          endchar
        </CharString>
        <CharString name="seven">
          -119 -106 -21 647 63 hstem
          -11 -127 rmoveto
          77 hlineto
          492 24 callsubr
        </CharString>
        <CharString name="seven.denominator">
          -292 21 -21 355 44 hstem
          -7 hmoveto
          50 hlineto
          309 -45 callsubr
        </CharString>
        <CharString name="seven.lnum">
          -134 21 -21 647 63 hstem
          12 hmoveto
          76 hlineto
          493 24 callsubr
        </CharString>
        <CharString name="seven.numerator">
          -293 352 -21 355 44 hstem
          62 331 rmoveto
          51 hlineto
          308 -45 callsubr
        </CharString>
        <CharString name="seveneighths">
          178 -5 44 callsubr
          126 42 287 44 hstemhm
          425 -28 callsubr
          hintmask 1111111000000000
          34 -4 -78 callgsubr
          548 -32 -17 callgsubr
          hintmask 1111110010000000
          -86 callgsubr
          hintmask 1111111000000000
          -69 callsubr
          hintmask 1111110100000000
          -19 callgsubr
          -527 100 rmoveto
          51 hlineto
          308 -45 callsubr
        </CharString>
        <CharString name="seveninferior">
          -292 -59 -21 355 44 hstem
          -24 -80 14 callsubr
          309 -45 callsubr
        </CharString>
        <CharString name="sevensuperior">
          -291 432 -21 355 44 hstem
          80 411 14 callsubr
          309 -45 callsubr
        </CharString>
        <CharString name="six">
          -28 callgsubr
          -87 -85 -50 -79 -45 hvcurveto
          186 30 109 124 115 -57 callsubr
        </CharString>
        <CharString name="six.denominator">
          -240 -5 41 192 39 93 42 hstem
          10 41 232 43 vstem
          137 -5 rmoveto
          99 90 73 85 64 -50 50 -77 -51 -56 -26 -40 -27 hvcurveto
          -25 callsubr
          hvcurveto
          11 41 11 callgsubr
        </CharString>
        <CharString name="six.lnum">
          -28 callgsubr
          -84 -84 -51 -78 -45 hvcurveto
          196 43 97 114 110 -57 callsubr
        </CharString>
        <CharString name="six.numerator">
          -240 322 41 192 39 94 42 hstem
          79 42 232 44 vstem
          397 481 -55 callgsubr
          66 51 70 35 callgsubr
        </CharString>
        <CharString name="sixinferior">
          -241 -85 41 192 39 93 42 hstem
          -7 41 232 43 vstem
          309 73 rmoveto
          64 -50 50 -77 -51 -56 -26 -40 -27 vhcurveto
          -25 callsubr
          99 90 73 85 hvcurveto
          -178 -117 11 callgsubr
        </CharString>
        <CharString name="sixsuperior">
          -240 402 41 192 39 94 42 hstem
          96 42 232 44 vstem
          414 561 -55 callgsubr
          67 51 69 35 callgsubr
        </CharString>
        <CharString name="slash">
          -34 3 callsubr
          575 710 rmoveto
          -601 -710 rlineto
          77 hlineto
          600 0 callsubr
          endchar
        </CharString>
        <CharString name="space">
          -384 endchar
        </CharString>
        <CharString name="sterling">
          -155 -15 60 -36 54 255 54 286 57 hstemhm
          125 63 -21 62 hintmask 01110100
          56 318 rmoveto
          110 hlineto
          1 -8 0 -8 -8 vvcurveto
          -83 -32 -52 -135 -117 vhcurveto
          7 -50 rlineto
          10 34 43 7 30 hhcurveto
          hintmask 10111000
          33 callsubr
          hintmask 01111000
          -6 52 rlineto
          hintmask 10111000
          -12 -37 -26 -6 -25 hhcurveto
          hintmask 01110100
          33 callgsubr
          126 117 21 51 79 vvcurveto
          5 0 6 -1 6 vhcurveto
          150 hlineto
          12 54 rlineto
          -170 hlineto
          hintmask 10111000
          -12 52 -20 45 47 vvcurveto
          78 67 64 70 52 46 -35 -55 19 vhcurveto
          48 42 rlineto
          65 -26 -56 40 -69 hhcurveto
          -108 -106 -92 -109 -48 18 -45 13 -49 hvcurveto
          -88 hlineto
          endchar
        </CharString>
        <CharString name="summation">
          -34 0 64 589 57 hstem
          522 710 rmoveto
          -442 -46 hlineto
          220 -304 -226 -309 rlineto
          -51 463 64 -380 4 vlineto
          218 301 -203 280 rlineto
          4 350 vlineto
          endchar
        </CharString>
        <CharString name="t">
          -312 -6 63 2 callgsubr
          hintmask 11010000
          135 -6 -10 callsubr
          -70 callgsubr
          12 54 rlineto
          -114 hlineto
          hintmask 10110000
          4 callsubr
          hintmask 11010000
          -38 -176 -72 callgsubr
          38 callsubr
          -79 -373 rlineto
          -2 -9 -1 -9 -7 vvcurveto
          -50 37 -25 50 vhcurveto
          endchar
        </CharString>
        <CharString name="t.alt">
          -322 21 -21 459 62 -62 238 hstemhm
          hintmask 11000000
          35 hmoveto
          70 hlineto
          97 459 rlineto
          118 -77 callsubr
          -118 hlineto
          hintmask 10100000
          38 176 -32 callgsubr
          hintmask 11000000
          -37 -176 rlineto
          -73 hlineto
          -13 -62 rlineto
          73 hlineto
          endchar
        </CharString>
        <CharString name="tbar">
          -311 -6 63 250 46 114 54 -54 230 hstemhm
          48 74 hintmask 11101000
          28 307 rmoveto
          68 hlineto
          -45 -213 rlineto
          -2 -9 -1 -9 -7 vvcurveto
          -50 37 -25 51 52 50 19 12 18 vhcurveto
          -6 55 rlineto
          -5 -9 -36 -18 -35 hhcurveto
          -27 -21 14 31 7 2 11 4 16 hvcurveto
          36 171 rlineto
          114 hlineto
          9 46 rlineto
          -113 hlineto
          24 114 rlineto
          114 hlineto
          11 54 rlineto
          -113 hlineto
          hintmask 11011000
          4 callsubr
          hintmask 11101000
          -38 -176 rlineto
          -69 43 callsubr
          68 hlineto
          -24 -114 -72 callgsubr
          endchar
        </CharString>
        <CharString name="tcaron">
          -312 -6 63 410 54 17 callsubr
          48 73 vstem
          333 -38 callgsubr
          -156 -643 -10 callsubr
          -70 callgsubr
          12 54 rlineto
          -114 hlineto
          4 callsubr
          -38 -176 -72 callgsubr
          38 callsubr
          -79 -373 rlineto
          -2 -9 -1 -9 -7 vvcurveto
          -50 37 -25 50 vhcurveto
          endchar
        </CharString>
        <CharString name="tdotbelow">
          -312 7 callgsubr
          62 63 2 callgsubr
          hintmask 11101000
          127 -44 callgsubr
          70 160 -10 callsubr
          -70 callgsubr
          12 54 rlineto
          -114 hlineto
          hintmask 11011000
          4 callsubr
          hintmask 11101000
          -38 -176 -72 callgsubr
          38 callsubr
          -79 -373 rlineto
          -2 -9 -1 -9 -7 vvcurveto
          -50 37 -25 50 vhcurveto
          endchar
        </CharString>
        <CharString name="thorn">
          -56 -192 -21 197 63 423 62 -62 240 hstemhm
          467 70 hintmask 11101000
          -36 -213 rmoveto
          69 hlineto
          61 287 rlineto
          -48 19 41 -42 83 hhcurveto
          176 124 185 152 107 -61 104 -121 -78 -59 -43 -55 -47 hvcurveto
          hintmask 11011000
          58 276 -16 callsubr
          91 -663 rmoveto
          -75 -63 51 59 5 0 4 2 6 hvcurveto
          37 176 rlineto
          66 46 65 56 73 hhcurveto
          85 46 -74 -91 -134 -100 -124 -116 hvcurveto
          endchar
        </CharString>
        <CharString name="three">
          -123 -147 62 290 58 251 62 hstemhm
          348 71 -14 73 hintmask 11110000
          150 -147 rmoveto
          152 117 101 141 74 -38 55 -66 12 hvcurveto
          hintmask 11101000
          94 14 69 86 93 vvcurveto
          88 -64 59 -102 -93 -92 -46 -70 -46 vhcurveto
          34 -42 rlineto
          60 42 64 36 71 hhcurveto
          68 45 -35 -63 -87 -68 -66 -112 hvcurveto
          -26 hlineto
          -12 -58 rlineto
          24 hlineto
          hintmask 11110000
          90 47 -46 -72 -106 -74 -66 -111 -81 -46 38 58 -15 hvcurveto
          -55 -43 rlineto
          -72 21 68 -43 95 hhcurveto
          endchar
        </CharString>
        <CharString name="three.denominator">
          -258 -5 44 146 40 138 41 hstemhm
          -12 30 callsubr
          hintmask 11111000
          116 -5 11 callsubr
          hintmask 11110100
          -79 callgsubr
          hintmask 11111000
          -40 callsubr
        </CharString>
        <CharString name="three.lnum">
          -75 -9 64 278 59 266 61 hstemhm
          14 49 353 70 -19 73 hintmask 11111000
          206 -9 rmoveto
          138 142 89 136 74 -43 60 -73 15 hvcurveto
          hintmask 11110100
          111 27 59 70 89 vvcurveto
          99 -73 69 -114 -91 -97 -44 -72 -51 vhcurveto
          37 -46 rlineto
          57 35 74 44 78 hhcurveto
          77 52 -44 -73 -95 -89 -54 -138 hvcurveto
          -33 hlineto
          -12 -59 rlineto
          32 hlineto
          hintmask 11111000
          119 70 -44 -78 -89 -95 -67 -105 -99 -54 58 81 hvcurveto
          -49 -38 rlineto
          -102 76 -63 116 vhcurveto
          endchar
        </CharString>
        <CharString name="three.numerator">
          -259 321 27 callsubr
          56 34 231 44 -19 49 hintmask 11111000
          185 -2 callsubr
          hintmask 11110100
          -67 callgsubr
          hintmask 11111000
          -39 callsubr
          endchar
        </CharString>
        <CharString name="threeeighths">
          192 -5 44 callsubr
          90 45 -9 42 112 41 138 41 hstemhm
          62 34 231 44 -19 49 37 -28 callsubr
          hintmask 1110111101110000
          191 -2 callsubr
          hintmask 1110111011110000
          -67 callgsubr
          hintmask 1110111101110000
          -39 callsubr
          -90 -325 -78 callgsubr
          494 -32 -17 callgsubr
          hintmask 1101111101100100
          -86 callgsubr
          hintmask 1101111101110000
          -69 callsubr
          hintmask 1110111101101000
          -19 callgsubr
          endchar
        </CharString>
        <CharString name="threeinferior">
          -258 -85 44 146 40 138 41 hstemhm
          -29 30 callsubr
          hintmask 11111000
          99 -85 11 callsubr
          hintmask 11110100
          -79 callgsubr
          hintmask 11111000
          78 48 -24 -42 -47 -58 -33 -68 -68 -37 38 35 hvcurveto
          -32 -28 rlineto
          -61 58 -28 70 vhcurveto
          endchar
        </CharString>
        <CharString name="threequarters">
          164 17 -21 25 -21 103 44 174 27 callsubr
          60 34 231 44 -19 49 hintmask 0111111100000000
          189 -2 callsubr
          hintmask 0111111010000000
          -67 callgsubr
          hintmask 0111111100000000
          -39 callsubr
          406 -321 rmoveto
          -65 callgsubr
          hintmask 1011111100000000
          -502 -151 -5 callsubr
        </CharString>
        <CharString name="threesuperior">
          -259 401 27 callsubr
          107 231 0 44 -19 49 hintmask 11101000
          204 401 rmoveto
          87 91 48 79 43 -29 34 -49 8 hvcurveto
          hintmask 11110100
          69 14 39 37 51 vvcurveto
          56 -50 40 -77 -59 -63 -24 -39 -31 vhcurveto
          23 -34 rlineto
          33 26 45 23 50 hhcurveto
          50 37 -24 -38 -50 -55 -26 -89 hvcurveto
          -22 hlineto
          -8 -41 rlineto
          22 hlineto
          79 48 -24 -41 -47 -60 -33 -65 -71 -35 37 36 hvcurveto
          -34 -29 rlineto
          -52 9 45 -37 77 hhcurveto
          endchar
        </CharString>
        <CharString name="tilde">
          -246 638 43 -30 -21 48 -12 callgsubr
          hintmask 10010000
          256 638 -88 callgsubr
          hintmask 01100000
          -93 callgsubr
          hintmask 10010000
          -56 callgsubr
        </CharString>
        <CharString name="trademark">
          66 445 -21 240 48 -2 -20 hstemhm
          hintmask 11000000
          373 712 rmoveto
          -228 hlineto
          -11 -48 rlineto
          90 hlineto
          -50 -240 rlineto
          48 hlineto
          51 240 rlineto
          90 hlineto
          -8 -240 rmoveto
          14 callgsubr
          48 hlineto
          hintmask 10100000
          61 286 rlineto
          -67 hlineto
          -120 -187 -39 187 rlineto
          -67 hlineto
          endchar
        </CharString>
        <CharString name="two">
          -130 0 62 458 61 hstem
          403 74 vstem
          -17 hmoveto
          410 hlineto
          13 62 -13 callsubr
          21 74 46 46 126 57 rrcurveto
          100 45 106 51 115 vvcurveto
          71 -54 60 -102 -116 -91 -78 -17 -19 vhcurveto
          30 -51 rlineto
          25 26 75 60 80 hhcurveto
          72 25 -35 -39 -71 -55 -45 -154 -68 hvcurveto
          -157 -69 -35 -103 -19 -90 rrcurveto
          endchar
        </CharString>
        <CharString name="two.denominator">
          -256 0 44 317 43 hstem
          285 51 vstem
          -27 hmoveto
          300 hlineto
          25 callgsubr
          99 33 63 31 84 -33 callgsubr
        </CharString>
        <CharString name="two.lnum">
          -77 0 62 593 64 hstem
          478 76 vstem
          -16 hmoveto
          457 -77 callsubr
          -371 hlineto
          18 88 46 73 153 65 rrcurveto
          116 49 138 55 163 vvcurveto
          89 -54 75 -118 -144 -102 -103 -19 -19 vhcurveto
          34 -49 rlineto
          40 37 77 67 96 hhcurveto
          81 36 -51 -61 -142 -134 -28 -108 -48 hvcurveto
          -132 -59 -84 -81 -36 -185 rrcurveto
          endchar
        </CharString>
        <CharString name="two.numerator">
          -259 327 43 317 44 hstem
          355 50 vstem
          337 327 42 callgsubr
          51 90 29 rrcurveto
          96 31 66 34 83 -34 callgsubr
        </CharString>
        <CharString name="twoinferior">
          -256 -80 44 317 43 hstem
          268 51 vstem
          256 -80 rmoveto
          25 callgsubr
          96 32 66 33 83 -33 callgsubr
        </CharString>
        <CharString name="twosuperior">
          -259 407 43 317 44 hstem
          372 50 vstem
          354 407 42 callgsubr
          50 90 30 rrcurveto
          93 31 69 32 85 -34 callgsubr
        </CharString>
        <CharString name="twothirds">
          202 -5 44 146 40 102 43 -7 41 283 44 hstemhm
          352 49 48 30 callsubr
          hintmask 1110111100000000
          335 327 rmoveto
          8 43 rlineto
          -220 hlineto
          8 37 24 51 88 29 rrcurveto
          94 31 64 34 83 vvcurveto
          55 -36 41 -78 -91 -62 -54 -14 -13 vhcurveto
          23 -31 rlineto
          22 22 45 33 61 hhcurveto
          54 26 -27 -34 -72 -82 -18 -68 -26 hvcurveto
          -86 -33 -48 -47 -21 -103 rrcurveto
          72 -331 -78 callgsubr
          486 -32 11 callsubr
          hintmask 1101111010000000
          -79 callgsubr
          hintmask 1110111100000000
          -40 callsubr
        </CharString>
        <CharString name="u">
          -61 callgsubr
          hstemhm
          37 72 hintmask 10110000
          -21 callsubr
          hintmask 01110000
          -24 16 -15 31 -52 callgsubr
          -68 callgsubr
          8 2 8 hvcurveto
          91 425 -72 callgsubr
          -70 -328 rlineto
          hintmask 10110000
          -64 callgsubr
        </CharString>
        <CharString name="u.alt">
          -68 -10 60 -29 -29 callgsubr
          hstemhm
          37 72 hintmask 10110000
          164 -10 rmoveto
          80 88 47 77 55 hvcurveto
          hintmask 01110000
          -25 -114 rlineto
          66 hlineto
          111 521 -72 callgsubr
          -70 -328 rlineto
          hintmask 10110000
          -78 -42 -83 -65 -78 hhcurveto
          -67 -22 39 59 23 4 27 6 29 hvcurveto
          63 294 -72 callgsubr
          -65 -306 rlineto
          -7 -34 -5 -30 -28 vvcurveto
          -78 32 -55 95 vhcurveto
          endchar
        </CharString>
        <CharString name="uacute">
          -22 callsubr
          431 730 -89 callsubr
          -167 -630 -105 callsubr
          endchar
        </CharString>
        <CharString name="ubreve">
          -61 callgsubr
          128 -6 callgsubr
          37 72 148 43 hintmask 10110110
          -21 callsubr
          hintmask 01110110
          -24 16 -15 31 -52 callgsubr
          -68 callgsubr
          8 2 8 hvcurveto
          91 425 -72 callgsubr
          -70 -328 rlineto
          hintmask 10110110
          -104 callgsubr
          182 674 -46 callsubr
          hintmask 10101110
          -98 callgsubr
          hintmask 10110110
          -59 callgsubr
        </CharString>
        <CharString name="ucircumflex">
          -22 callsubr
          268 624 -100 callgsubr
          -75 -655 -105 callsubr
          endchar
        </CharString>
        <CharString name="udblgrave">
          -22 callsubr
          399 620 -89 callgsubr
          -63 -740 -105 callsubr
          endchar
        </CharString>
        <CharString name="udieresis">
          -61 callgsubr
          132 94 hstemhm
          37 72 hintmask 10111000
          301 633 -95 callgsubr
          -228 -643 -105 callsubr
          endchar
        </CharString>
        <CharString name="udotbelow">
          -64 7 callgsubr
          58 -43 callgsubr
          hstemhm
          37 72 hintmask 11011000
          -21 callsubr
          hintmask 10111000
          -24 16 -15 31 -52 callgsubr
          -68 callgsubr
          8 2 8 hvcurveto
          91 425 -72 callgsubr
          -70 -328 rlineto
          hintmask 11011000
          -104 callgsubr
          46 -156 -83 callsubr
          endchar
        </CharString>
        <CharString name="ugrave">
          -22 callsubr
          159 -10 -105 callsubr
          170 630 -76 callgsubr
        </CharString>
        <CharString name="uhungarumlaut">
          -22 callsubr
          159 -10 -105 callsubr
          203 740 -64 callsubr
          endchar
        </CharString>
        <CharString name="uinvertedbreve">
          -61 callgsubr
          128 5 callsubr
          37 72 271 59 -40 40 hintmask 10110110
          248 629 rmoveto
          40 hlineto
          hintmask 10101101
          -75 callgsubr
          hvcurveto
          hintmask 10110110
          -91 callsubr
          -89 -639 rmoveto
          86 88 47 81 61 hvcurveto
          -13 -59 -1 -13 -9 vvcurveto
          hintmask 01110110
          -24 16 -15 31 -52 callgsubr
          -68 callgsubr
          8 2 8 hvcurveto
          91 425 -72 callgsubr
          -70 -328 rlineto
          hintmask 10110110
          -64 callgsubr
        </CharString>
        <CharString name="umacron">
          -61 callgsubr
          161 47 hstemhm
          37 72 hintmask 10111000
          159 -10 -105 callsubr
          323 672 -68 callsubr
          endchar
        </CharString>
        <CharString name="underscore">
          -141 -62 62 hstem
          348 -62 rmoveto
          13 62 rlineto
          -362 hlineto
          -13 -62 rlineto
          endchar
        </CharString>
        <CharString name="uni00A0">
          -384 endchar
        </CharString>
        <CharString name="uni00AD">
          9 callgsubr
        </CharString>
</ttFont>
